<svg width="107" height="168" viewBox="0 0 107 168" fill="none" xmlns="http://www.w3.org/2000/svg">
<path d="M83.9508 40.9426C107.37 31.9245 83.9508 0 83.9508 0H101.896C101.896 0 115.962 63.4171 97.3926 64.8345C78.8235 66.252 82.0897 67.0415 80.0014 89.0422C78.8236 123.775 54.2264 104.514 51.8707 133.563C49.5149 162.613 28.117 168 28.117 168L0.944272 167.77C-0.319093 167.481 -0.310414 165.368 0.944272 158.192C0.944272 158.192 3.57721 135.458 18.5433 133.563C33.5094 131.669 35.5188 129.564 38.3596 108.093C41.2004 86.6215 60.7395 91.9892 63.5803 74.7281C66.4211 57.4669 60.5313 49.9606 83.9508 40.9426Z" fill="#64F3FF"/>
</svg>
