<svg width="379" height="64" viewBox="0 0 379 64" fill="none" xmlns="http://www.w3.org/2000/svg">
<path d="M323.504 49.8639V36.0155H313.562L341.255 9.01099L368.949 36.0155H360.782V49.8639" stroke="url(#paint0_linear_1047_20)" stroke-width="8"/>
<path d="M26.5159 50.7043C22.7379 50.7043 19.2165 50.0973 15.9515 48.8834C12.7332 47.6228 9.93472 45.8486 7.55598 43.5609C5.17725 41.2731 3.31157 38.5885 1.95896 35.507C0.652986 32.4255 0 29.0406 0 25.3521C0 21.6637 0.652986 18.2788 1.95896 15.1973C3.31157 12.1158 5.17725 9.43118 7.55598 7.14342C9.98136 4.85566 12.8032 3.10482 16.0215 1.89091C19.2398 0.630301 22.7612 0 26.5859 0C30.8303 0 34.6549 0.747024 38.0598 2.24107C41.5113 3.68843 44.4031 5.83613 46.7352 8.68416L39.459 15.4074C37.7799 13.4931 35.9142 12.0691 33.862 11.1353C31.8098 10.1549 29.571 9.66463 27.1456 9.66463C24.8601 9.66463 22.7612 10.0381 20.8489 10.7852C18.9366 11.5322 17.2808 12.606 15.8816 14.0067C14.4823 15.4074 13.3862 17.0648 12.5933 18.9791C11.847 20.8933 11.4739 23.0177 11.4739 25.3521C11.4739 27.6866 11.847 29.811 12.5933 31.7252C13.3862 33.6395 14.4823 35.2969 15.8816 36.6976C17.2808 38.0983 18.9366 39.1721 20.8489 39.9191C22.7612 40.6662 24.8601 41.0397 27.1456 41.0397C29.571 41.0397 31.8098 40.5728 33.862 39.639C35.9142 38.6585 37.7799 37.1878 39.459 35.2269L46.7352 41.9501C44.4031 44.7981 41.5113 46.9692 38.0598 48.4632C34.6549 49.9573 30.807 50.7043 26.5159 50.7043ZM68.6128 50.4242C65.4878 50.4242 62.6893 49.8172 60.2173 48.6033C57.7919 47.3894 55.9029 45.5452 54.5503 43.0706C53.1977 40.5494 52.5214 37.3512 52.5214 33.476V12.1858H63.4356V31.8653C63.4356 34.9934 64.0886 37.3045 65.3945 38.7986C66.7472 40.246 68.6361 40.9696 71.0615 40.9696C72.7406 40.9696 74.2332 40.6195 75.5391 39.9191C76.8451 39.1721 77.8712 38.0516 78.6175 36.5575C79.3638 35.0168 79.7369 33.1025 79.7369 30.8148V12.1858H90.6511V49.8639H80.2966V39.4989L82.1856 42.5104C80.9263 45.125 79.0606 47.1092 76.5886 48.4632C74.1632 49.7705 71.5046 50.4242 68.6128 50.4242ZM123.011 50.4242C119.839 50.4242 117.064 49.7238 114.685 48.3232C112.306 46.9225 110.441 44.7981 109.088 41.9501C107.782 39.0554 107.129 35.4136 107.129 31.0249C107.129 26.5894 107.759 22.9477 109.018 20.0996C110.277 17.2516 112.096 15.1272 114.475 13.7266C116.854 12.3259 119.699 11.6256 123.011 11.6256C126.555 11.6256 129.727 12.4426 132.525 14.0767C135.371 15.6642 137.609 17.9052 139.242 20.8C140.921 23.6947 141.761 27.103 141.761 31.0249C141.761 34.9934 140.921 38.4251 139.242 41.3198C137.609 44.2145 135.371 46.4556 132.525 48.043C129.727 49.6304 126.555 50.4242 123.011 50.4242ZM100.762 63.4504V12.1858H111.187V19.8895L110.977 31.0949L111.677 42.2302V63.4504H100.762ZM121.122 41.4599C122.941 41.4599 124.55 41.0397 125.949 40.1993C127.395 39.3589 128.538 38.1683 129.377 36.6276C130.263 35.0401 130.706 33.1726 130.706 31.0249C130.706 28.8305 130.263 26.9629 129.377 25.4222C128.538 23.8814 127.395 22.6909 125.949 21.8505C124.55 21.0101 122.941 20.5899 121.122 20.5899C119.302 20.5899 117.67 21.0101 116.224 21.8505C114.778 22.6909 113.636 23.8814 112.796 25.4222C111.956 26.9629 111.537 28.8305 111.537 31.0249C111.537 33.1726 111.956 35.0401 112.796 36.6276C113.636 38.1683 114.778 39.3589 116.224 40.1993C117.67 41.0397 119.302 41.4599 121.122 41.4599ZM149.067 49.8639V12.1858H159.492V22.8309L158.023 19.7495C159.142 17.0882 160.938 15.0806 163.41 13.7266C165.882 12.3259 168.89 11.6256 172.435 11.6256V21.7104C171.969 21.6637 171.549 21.6404 171.176 21.6404C170.803 21.5937 170.406 21.5703 169.986 21.5703C167.001 21.5703 164.576 22.4341 162.71 24.1616C160.891 25.8424 159.982 28.4803 159.982 32.0754V49.8639H149.067ZM195.078 50.4242C191.953 50.4242 189.155 49.8172 186.683 48.6033C184.257 47.3894 182.368 45.5452 181.016 43.0706C179.663 40.5494 178.987 37.3512 178.987 33.476V12.1858H189.901V31.8653C189.901 34.9934 190.554 37.3045 191.86 38.7986C193.213 40.246 195.102 40.9696 197.527 40.9696C199.206 40.9696 200.699 40.6195 202.005 39.9191C203.311 39.1721 204.337 38.0516 205.083 36.5575C205.829 35.0168 206.202 33.1025 206.202 30.8148V12.1858H217.116V49.8639H206.762V39.4989L208.651 42.5104C207.392 45.125 205.526 47.1092 203.054 48.4632C200.629 49.7705 197.97 50.4242 195.078 50.4242ZM275.433 11.6256C278.419 11.6256 281.054 12.2325 283.339 13.4464C285.671 14.6137 287.49 16.4345 288.796 18.9091C290.149 21.3369 290.825 24.4651 290.825 28.2936V49.8639H279.911V29.9744C279.911 26.9396 279.281 24.6985 278.022 23.2511C276.763 21.8038 274.99 21.0801 272.705 21.0801C271.119 21.0801 269.696 21.4536 268.437 22.2006C267.178 22.901 266.198 23.9748 265.499 25.4222C264.799 26.8695 264.449 28.7138 264.449 30.9548V49.8639H253.535V29.9744C253.535 26.9396 252.905 24.6985 251.646 23.2511C250.433 21.8038 248.684 21.0801 246.399 21.0801C244.813 21.0801 243.39 21.4536 242.131 22.2006C240.872 22.901 239.892 23.9748 239.193 25.4222C238.493 26.8695 238.143 28.7138 238.143 30.9548V49.8639H227.229V12.1858H237.654V22.4808L235.695 19.4693C237.001 16.9014 238.843 14.9638 241.222 13.6565C243.647 12.3026 246.399 11.6256 249.477 11.6256C252.929 11.6256 255.937 12.5127 258.502 14.2868C261.114 16.0143 262.84 18.6756 263.68 22.2707L259.832 21.2202C261.091 18.2788 263.097 15.9443 265.849 14.2168C268.647 12.4893 271.842 11.6256 275.433 11.6256Z" fill="url(#paint1_linear_1047_20)"/>
<defs>
<linearGradient id="paint0_linear_1047_20" x1="341.87" y1="-14.8199" x2="341.87" y2="68.0207" gradientUnits="userSpaceOnUse">
<stop stop-color="#FFE600"/>
<stop offset="0.645833" stop-color="#FF3D00"/>
</linearGradient>
<linearGradient id="paint1_linear_1047_20" x1="148.858" y1="-18.7106" x2="148.858" y2="81.9626" gradientUnits="userSpaceOnUse">
<stop stop-color="#FFE600"/>
<stop offset="0.666667" stop-color="#FF3D00"/>
</linearGradient>
</defs>
</svg>
