<svg width="771" height="177" viewBox="0 0 771 177" fill="none" xmlns="http://www.w3.org/2000/svg">
<path d="M242.24 167.2C240.16 167.2 238.187 166.853 236.32 166.16C234.48 165.44 233.053 164.52 232.04 163.4L232.96 161.88C233.92 162.867 235.227 163.707 236.88 164.4C238.56 165.067 240.333 165.4 242.2 165.4C244.067 165.4 245.587 165.16 246.76 164.68C247.96 164.173 248.84 163.507 249.4 162.68C249.987 161.853 250.28 160.933 250.28 159.92C250.28 158.72 249.96 157.76 249.32 157.04C248.68 156.32 247.84 155.747 246.8 155.32C245.76 154.893 244.627 154.533 243.4 154.24C242.173 153.947 240.933 153.64 239.68 153.32C238.427 152.973 237.28 152.533 236.24 152C235.2 151.467 234.36 150.747 233.72 149.84C233.107 148.907 232.8 147.707 232.8 146.24C232.8 144.907 233.147 143.68 233.84 142.56C234.533 141.44 235.613 140.533 237.08 139.84C238.547 139.147 240.427 138.8 242.72 138.8C244.267 138.8 245.787 139.027 247.28 139.48C248.8 139.933 250.093 140.547 251.16 141.32L250.4 142.96C249.227 142.16 247.96 141.573 246.6 141.2C245.267 140.8 243.973 140.6 242.72 140.6C240.933 140.6 239.453 140.853 238.28 141.36C237.107 141.867 236.24 142.547 235.68 143.4C235.12 144.227 234.84 145.16 234.84 146.2C234.84 147.4 235.147 148.36 235.76 149.08C236.4 149.8 237.24 150.373 238.28 150.8C239.32 151.227 240.467 151.587 241.72 151.88C242.973 152.173 244.213 152.493 245.44 152.84C246.667 153.16 247.8 153.587 248.84 154.12C249.88 154.653 250.72 155.373 251.36 156.28C252 157.187 252.32 158.36 252.32 159.8C252.32 161.107 251.96 162.333 251.24 163.48C250.52 164.6 249.413 165.507 247.92 166.2C246.453 166.867 244.56 167.2 242.24 167.2ZM266.775 167.16C264.775 167.16 262.988 166.707 261.415 165.8C259.868 164.893 258.628 163.64 257.695 162.04C256.788 160.44 256.335 158.613 256.335 156.56C256.335 154.48 256.788 152.653 257.695 151.08C258.628 149.48 259.868 148.227 261.415 147.32C262.988 146.413 264.775 145.96 266.775 145.96C268.775 145.96 270.562 146.413 272.135 147.32C273.708 148.227 274.948 149.48 275.855 151.08C276.762 152.653 277.215 154.48 277.215 156.56C277.215 158.613 276.762 160.44 275.855 162.04C274.948 163.64 273.708 164.893 272.135 165.8C270.562 166.707 268.775 167.16 266.775 167.16ZM266.775 165.36C268.375 165.36 269.815 165 271.095 164.28C272.375 163.533 273.375 162.493 274.095 161.16C274.815 159.827 275.175 158.293 275.175 156.56C275.175 154.8 274.815 153.267 274.095 151.96C273.375 150.627 272.375 149.6 271.095 148.88C269.815 148.133 268.375 147.76 266.775 147.76C265.175 147.76 263.735 148.133 262.455 148.88C261.202 149.6 260.202 150.627 259.455 151.96C258.735 153.267 258.375 154.8 258.375 156.56C258.375 158.293 258.735 159.827 259.455 161.16C260.202 162.493 261.202 163.533 262.455 164.28C263.735 165 265.175 165.36 266.775 165.36ZM283.82 167V142.92C283.82 141.187 284.313 139.8 285.3 138.76C286.313 137.693 287.753 137.16 289.62 137.16C290.393 137.16 291.153 137.28 291.9 137.52C292.646 137.733 293.26 138.067 293.74 138.52L292.94 140.04C292.54 139.64 292.06 139.347 291.5 139.16C290.94 138.973 290.34 138.88 289.7 138.88C288.42 138.88 287.446 139.24 286.78 139.96C286.113 140.653 285.78 141.693 285.78 143.08V146.6L285.82 147.56V167H283.82ZM279.98 147.84V146.12H292.46V147.84H279.98ZM302.625 167.16C300.785 167.16 299.371 166.653 298.385 165.64C297.425 164.627 296.945 163.24 296.945 161.48V141.56H298.945V161.28C298.945 162.613 299.278 163.64 299.945 164.36C300.611 165.08 301.571 165.44 302.825 165.44C304.131 165.44 305.211 165.053 306.065 164.28L306.905 165.68C306.371 166.187 305.718 166.56 304.945 166.8C304.198 167.04 303.425 167.16 302.625 167.16ZM293.105 147.84V146.12H305.585V147.84H293.105ZM316.172 167L308.252 146.12H310.172L317.532 165.88H316.692L324.252 146.12H325.972L333.492 165.88H332.612L340.092 146.12H341.932L334.012 167H332.132L324.772 148.04H325.412L318.012 167H316.172ZM359.119 167V162.24L359.039 161.52V153.68C359.039 151.733 358.505 150.253 357.439 149.24C356.399 148.227 354.865 147.72 352.839 147.72C351.399 147.72 350.052 147.973 348.799 148.48C347.572 148.96 346.519 149.587 345.639 150.36L344.639 148.92C345.679 147.987 346.932 147.267 348.399 146.76C349.865 146.227 351.399 145.96 352.999 145.96C355.585 145.96 357.572 146.613 358.959 147.92C360.345 149.227 361.039 151.173 361.039 153.76V167H359.119ZM351.599 167.16C350.052 167.16 348.705 166.92 347.559 166.44C346.439 165.933 345.572 165.227 344.959 164.32C344.372 163.413 344.079 162.373 344.079 161.2C344.079 160.133 344.319 159.173 344.799 158.32C345.305 157.44 346.132 156.733 347.279 156.2C348.425 155.64 349.959 155.36 351.879 155.36H359.559V156.92H351.919C349.759 156.92 348.239 157.32 347.359 158.12C346.505 158.92 346.079 159.92 346.079 161.12C346.079 162.453 346.585 163.52 347.599 164.32C348.612 165.12 350.039 165.52 351.879 165.52C353.639 165.52 355.119 165.12 356.319 164.32C357.545 163.52 358.452 162.36 359.039 160.84L359.599 162.2C359.039 163.72 358.079 164.933 356.719 165.84C355.385 166.72 353.679 167.16 351.599 167.16ZM369.279 167V146.12H371.199V151.84L370.999 151.2C371.586 149.52 372.572 148.227 373.959 147.32C375.346 146.413 377.079 145.96 379.159 145.96V147.92C379.079 147.92 378.999 147.92 378.919 147.92C378.839 147.893 378.759 147.88 378.679 147.88C376.359 147.88 374.546 148.613 373.239 150.08C371.932 151.52 371.279 153.533 371.279 156.12V167H369.279ZM392.954 167.16C390.848 167.16 388.981 166.707 387.354 165.8C385.754 164.893 384.488 163.64 383.554 162.04C382.648 160.44 382.194 158.613 382.194 156.56C382.194 154.48 382.621 152.653 383.474 151.08C384.354 149.48 385.554 148.227 387.074 147.32C388.594 146.413 390.301 145.96 392.194 145.96C394.088 145.96 395.781 146.4 397.274 147.28C398.794 148.16 399.981 149.4 400.834 151C401.714 152.573 402.154 154.4 402.154 156.48C402.154 156.56 402.141 156.653 402.114 156.76C402.114 156.84 402.114 156.933 402.114 157.04H383.674V155.48H401.034L400.234 156.24C400.261 154.613 399.914 153.16 399.194 151.88C398.501 150.573 397.554 149.56 396.354 148.84C395.154 148.093 393.768 147.72 392.194 147.72C390.648 147.72 389.261 148.093 388.034 148.84C386.834 149.56 385.888 150.573 385.194 151.88C384.501 153.16 384.154 154.627 384.154 156.28V156.64C384.154 158.347 384.528 159.867 385.274 161.2C386.048 162.507 387.101 163.533 388.434 164.28C389.768 165 391.288 165.36 392.994 165.36C394.328 165.36 395.568 165.12 396.714 164.64C397.888 164.16 398.874 163.427 399.674 162.44L400.834 163.76C399.928 164.88 398.781 165.733 397.394 166.32C396.034 166.88 394.554 167.16 392.954 167.16ZM440.015 139H442.055V167H440.015V139ZM421.295 167H419.255V139H421.295V167ZM440.255 153.68H421.055V151.88H440.255V153.68ZM459.353 167.16C457.353 167.16 455.566 166.707 453.993 165.8C452.446 164.893 451.206 163.64 450.273 162.04C449.366 160.44 448.913 158.613 448.913 156.56C448.913 154.48 449.366 152.653 450.273 151.08C451.206 149.48 452.446 148.227 453.993 147.32C455.566 146.413 457.353 145.96 459.353 145.96C461.353 145.96 463.14 146.413 464.713 147.32C466.286 148.227 467.526 149.48 468.433 151.08C469.34 152.653 469.793 154.48 469.793 156.56C469.793 158.613 469.34 160.44 468.433 162.04C467.526 163.64 466.286 164.893 464.713 165.8C463.14 166.707 461.353 167.16 459.353 167.16ZM459.353 165.36C460.953 165.36 462.393 165 463.673 164.28C464.953 163.533 465.953 162.493 466.673 161.16C467.393 159.827 467.753 158.293 467.753 156.56C467.753 154.8 467.393 153.267 466.673 151.96C465.953 150.627 464.953 149.6 463.673 148.88C462.393 148.133 460.953 147.76 459.353 147.76C457.753 147.76 456.313 148.133 455.033 148.88C453.78 149.6 452.78 150.627 452.033 151.96C451.313 153.267 450.953 154.8 450.953 156.56C450.953 158.293 451.313 159.827 452.033 161.16C452.78 162.493 453.78 163.533 455.033 164.28C456.313 165 457.753 165.36 459.353 165.36ZM484.478 167.16C482.691 167.16 481.144 166.84 479.838 166.2C478.531 165.533 477.518 164.547 476.798 163.24C476.104 161.907 475.758 160.267 475.758 158.32V146.12H477.758V158.16C477.758 160.507 478.358 162.293 479.558 163.52C480.758 164.747 482.451 165.36 484.638 165.36C486.211 165.36 487.571 165.027 488.718 164.36C489.864 163.693 490.744 162.76 491.358 161.56C491.971 160.333 492.278 158.893 492.278 157.24V146.12H494.278V167H492.358V161.2L492.638 161.88C492.024 163.507 490.998 164.8 489.558 165.76C488.144 166.693 486.451 167.16 484.478 167.16ZM508.036 167.16C506.302 167.16 504.676 166.907 503.156 166.4C501.662 165.893 500.502 165.253 499.676 164.48L500.596 162.88C501.396 163.573 502.462 164.173 503.796 164.68C505.129 165.16 506.569 165.4 508.116 165.4C510.302 165.4 511.876 165.04 512.836 164.32C513.796 163.6 514.276 162.653 514.276 161.48C514.276 160.627 514.022 159.96 513.516 159.48C513.036 158.973 512.382 158.587 511.556 158.32C510.729 158.053 509.822 157.84 508.836 157.68C507.849 157.493 506.862 157.293 505.876 157.08C504.889 156.867 503.982 156.56 503.156 156.16C502.329 155.76 501.662 155.213 501.156 154.52C500.676 153.8 500.436 152.853 500.436 151.68C500.436 150.613 500.729 149.653 501.316 148.8C501.902 147.947 502.782 147.267 503.956 146.76C505.129 146.227 506.596 145.96 508.356 145.96C509.662 145.96 510.969 146.147 512.276 146.52C513.609 146.893 514.689 147.387 515.516 148L514.596 149.6C513.716 148.933 512.729 148.453 511.636 148.16C510.542 147.867 509.436 147.72 508.316 147.72C506.289 147.72 504.796 148.093 503.836 148.84C502.902 149.587 502.436 150.52 502.436 151.64C502.436 152.52 502.676 153.227 503.156 153.76C503.662 154.267 504.329 154.667 505.156 154.96C505.982 155.227 506.889 155.453 507.876 155.64C508.862 155.8 509.849 155.987 510.836 156.2C511.822 156.413 512.729 156.72 513.556 157.12C514.382 157.493 515.036 158.027 515.516 158.72C516.022 159.387 516.276 160.293 516.276 161.44C516.276 162.587 515.956 163.587 515.316 164.44C514.702 165.293 513.782 165.96 512.556 166.44C511.329 166.92 509.822 167.16 508.036 167.16ZM530.337 167.16C528.231 167.16 526.364 166.707 524.737 165.8C523.137 164.893 521.871 163.64 520.937 162.04C520.031 160.44 519.577 158.613 519.577 156.56C519.577 154.48 520.004 152.653 520.857 151.08C521.737 149.48 522.937 148.227 524.457 147.32C525.977 146.413 527.684 145.96 529.577 145.96C531.471 145.96 533.164 146.4 534.657 147.28C536.177 148.16 537.364 149.4 538.217 151C539.097 152.573 539.537 154.4 539.537 156.48C539.537 156.56 539.524 156.653 539.497 156.76C539.497 156.84 539.497 156.933 539.497 157.04H521.057V155.48H538.417L537.617 156.24C537.644 154.613 537.297 153.16 536.577 151.88C535.884 150.573 534.937 149.56 533.737 148.84C532.537 148.093 531.151 147.72 529.577 147.72C528.031 147.72 526.644 148.093 525.417 148.84C524.217 149.56 523.271 150.573 522.577 151.88C521.884 153.16 521.537 154.627 521.537 156.28V156.64C521.537 158.347 521.911 159.867 522.657 161.2C523.431 162.507 524.484 163.533 525.817 164.28C527.151 165 528.671 165.36 530.377 165.36C531.711 165.36 532.951 165.12 534.097 164.64C535.271 164.16 536.257 163.427 537.057 162.44L538.217 163.76C537.311 164.88 536.164 165.733 534.777 166.32C533.417 166.88 531.937 167.16 530.337 167.16Z" fill="white"/>
<path d="M31.435 119.499C40.6461 126.691 82.4043 138.826 111 107.948C87.7994 124.976 70.9502 120.931 60.3192 115.321C49.6882 109.71 50.4182 102.358 49.4876 92.5514C48.5571 82.7451 49.4876 76.6325 49.4876 76.6325C49.4876 66.0634 60.7873 54.7767 71.1509 58.4302V31.7598L17.5195 33.1952C17.5195 33.1952 0.0213762 63.3682 0.000204173 66.5359C-0.0209678 69.7035 1.47129 83.3706 4.61366 89.1746C7.75602 94.9786 22.2239 112.306 31.435 119.499Z" fill="url(#paint0_radial_1023_6)"/>
<path d="M122.493 91.3366C158.623 -6.14537 5.37249 -33.7428 0 66.9666C0 66.9666 6.37983 53.9905 19.5424 62.6848C32.7051 71.3792 21.49 53.9905 21.49 50.9607C21.49 47.9308 16.6008 34.9851 38.6819 55.6372C60.7631 76.2893 29.9516 28.5004 44.4574 42.7275C58.9631 56.9546 51.8446 42.7275 62.9048 42.7275C73.9651 42.7275 70.0905 74.2774 78.3041 74.2774C86.5176 74.2774 88.1233 55.4396 91.8696 74.2774C95.616 93.1152 100.734 89.9535 101.356 87.4505C101.977 84.9475 110.958 62.027 109.793 86.1991C108.628 110.371 120.218 95.9096 122.493 91.3366Z" fill="url(#paint1_radial_1023_6)"/>
<path d="M95.1865 38.3759C107.139 37.405 117.503 48.391 116.906 41.442C116.309 34.4931 106.135 29.6469 94.1818 30.6179C82.2289 31.5889 73.0233 38.0092 73.6206 44.9582C74.2179 51.9072 83.2335 39.3469 95.1865 38.3759Z" fill="white" fill-opacity="0.7"/>
<path d="M78.4199 24.0047C90.8092 18.5087 106.22 26.3821 102.839 19.1795C99.4579 11.9769 86.6735 10.5935 74.2843 16.0895C61.895 21.5856 54.5924 31.8799 57.9735 39.0825C61.3545 46.2851 66.0307 29.5008 78.4199 24.0047Z" fill="white" fill-opacity="0.7"/>
<path d="M35.6009 26.224C50.4608 16.9426 71.7413 24.2814 66.0316 15.6425C60.3219 7.00356 43.6469 7.52441 28.787 16.8058C13.9272 26.0873 6.5095 40.6146 12.2192 49.2535C17.9289 57.8924 20.7411 35.5054 35.6009 26.224Z" fill="white" fill-opacity="0.7"/>
<path d="M102.575 52.2159C109.612 53.128 114.171 60.7574 114.733 56.6661C115.294 52.5748 110.044 48.5187 103.006 47.6066C95.9687 46.6945 89.8088 49.2717 89.2477 53.363C88.6866 57.4543 95.5375 51.3038 102.575 52.2159Z" fill="white" fill-opacity="0.7"/>
<path d="M105.521 64.7341C111.007 65.4451 114.561 71.3925 114.998 68.2031C115.436 65.0138 111.343 61.852 105.857 61.1409C100.371 60.4299 95.5692 62.439 95.1318 65.6283C94.6944 68.8176 100.035 64.023 105.521 64.7341Z" fill="white" fill-opacity="0.7"/>
<path d="M50.0474 76.7385C35.2416 78.7533 38.4804 113.46 41.8513 105.401C45.2223 97.3416 46.1476 88.8274 50.0474 92.662C53.9471 96.4967 56.6571 94.8718 54.4098 92.662C52.1625 90.4522 50.7744 85.5127 58.0451 92.662C65.3158 99.8114 61.5483 88.9574 65.3158 92.662C69.0833 96.3667 71.0001 95.9767 71.0001 92.662C71.0001 89.3473 69.2816 84.9928 69.2816 84.9928C69.2816 84.9928 64.8531 74.7237 50.0474 76.7385Z" fill="url(#paint2_radial_1023_6)"/>
<path d="M4.56533 89.1913C8.50292 101.743 26.2519 118.941 31.1436 119.248C36.0353 119.556 34.318 94.0969 28.4725 103.569C22.6269 113.041 12.3248 96.0838 18.8562 96.0874C25.3876 96.0911 27.6711 87.4347 24.7328 90.2973C21.7945 93.1598 16.1397 92.1861 13.9145 87.4347C11.6893 82.6834 18.0715 83.4157 21.1267 84.5722C18.4555 77.3507 0.627733 76.6396 4.56533 89.1913Z" fill="url(#paint3_radial_1023_6)"/>
<path d="M46.8706 83.3491C48.9792 81.3893 52.6673 81.9278 51.4617 80.7019C50.2561 79.476 47.5694 80.0709 45.4607 82.0306C43.352 83.9904 42.6199 86.5729 43.8255 87.7988C45.0311 89.0247 44.7619 85.3088 46.8706 83.3491Z" fill="white" fill-opacity="0.7"/>
<path d="M13.4289 95.8105C13.7935 94.061 15.898 93.05 14.8218 92.8381C13.7455 92.6261 12.5774 93.8726 12.2128 95.6222C11.8483 97.3717 12.4252 98.9619 13.5015 99.1738C14.5778 99.3857 13.0643 97.5601 13.4289 95.8105Z" fill="white" fill-opacity="0.7"/>
<path d="M29.8176 112.396C30.1821 110.646 32.2867 109.635 31.2104 109.423C30.1341 109.211 28.9661 110.458 28.6015 112.207C28.2369 113.957 28.8139 115.547 29.8902 115.759C30.9665 115.971 29.453 114.145 29.8176 112.396Z" fill="white" fill-opacity="0.7"/>
<path d="M26.1896 110.176C26.5542 108.426 28.6588 107.415 27.5825 107.203C26.5062 106.991 25.3382 108.238 24.9736 109.987C24.609 111.737 25.186 113.327 26.2623 113.539C27.3386 113.751 25.8251 111.925 26.1896 110.176Z" fill="white" fill-opacity="0.7"/>
<path d="M9.80195 91.6318C10.1665 89.8823 12.2711 88.8713 11.1948 88.6594C10.1185 88.4474 8.95046 89.6939 8.58589 91.4435C8.22132 93.193 8.79828 94.7831 9.87457 94.9951C10.9509 95.207 9.43737 93.3814 9.80195 91.6318Z" fill="white" fill-opacity="0.7"/>
<path d="M7.92109 86.0176C8.28566 84.268 10.3902 83.2571 9.31394 83.0451C8.23765 82.8332 7.06961 84.0797 6.70503 85.8292C6.34046 87.5788 6.91743 89.1689 7.99371 89.3808C9.07 89.5928 7.55652 87.7671 7.92109 86.0176Z" fill="white" fill-opacity="0.7"/>
<path d="M50.2697 84.8964C51.691 83.5755 54.1767 83.9384 53.3641 83.1122C52.5516 82.2859 50.7407 82.6869 49.3195 84.0078C47.8982 85.3286 47.4048 87.0692 48.2174 87.8955C49.0299 88.7217 48.8485 86.2173 50.2697 84.8964Z" fill="white" fill-opacity="0.7"/>
<path d="M53.0055 86.9349C54.1216 85.8976 56.0738 86.1826 55.4356 85.5337C54.7975 84.8848 53.3754 85.1997 52.2592 86.237C51.1431 87.2743 50.7556 88.6413 51.3937 89.2901C52.0319 89.939 51.8893 87.9722 53.0055 86.9349Z" fill="white" fill-opacity="0.7"/>
<path d="M161.4 100V30H168.8V100H161.4ZM204.176 100.5C199.842 100.5 195.742 99.9 191.876 98.7C188.009 97.4333 184.976 95.8667 182.776 94L185.976 88.4C188.109 90 190.842 91.4 194.176 92.6C197.509 93.7333 201.009 94.3 204.676 94.3C209.676 94.3 213.276 93.5333 215.476 92C217.676 90.4 218.776 88.3 218.776 85.7C218.776 83.7667 218.142 82.2667 216.876 81.2C215.676 80.0667 214.076 79.2333 212.076 78.7C210.076 78.1 207.842 77.6 205.376 77.2C202.909 76.8 200.442 76.3333 197.976 75.8C195.576 75.2667 193.376 74.5 191.376 73.5C189.376 72.4333 187.742 71 186.476 69.2C185.276 67.4 184.676 65 184.676 62C184.676 59.1333 185.476 56.5667 187.076 54.3C188.676 52.0333 191.009 50.2667 194.076 49C197.209 47.6667 201.009 47 205.476 47C208.876 47 212.276 47.4667 215.676 48.4C219.076 49.2667 221.876 50.4333 224.076 51.9L220.976 57.6C218.642 56 216.142 54.8667 213.476 54.2C210.809 53.4667 208.142 53.1 205.476 53.1C200.742 53.1 197.242 53.9333 194.976 55.6C192.776 57.2 191.676 59.2667 191.676 61.8C191.676 63.8 192.276 65.3667 193.476 66.5C194.742 67.6333 196.376 68.5333 198.376 69.2C200.442 69.8 202.676 70.3 205.076 70.7C207.542 71.1 209.976 71.6 212.376 72.2C214.842 72.7333 217.076 73.5 219.076 74.5C221.142 75.4333 222.776 76.8 223.976 78.6C225.242 80.3333 225.876 82.6333 225.876 85.5C225.876 88.5667 225.009 91.2333 223.276 93.5C221.609 95.7 219.142 97.4333 215.876 98.7C212.676 99.9 208.776 100.5 204.176 100.5ZM238.904 100V25.8H246.004V100H238.904ZM298.659 100V88.4L298.359 86.5V67.1C298.359 62.6333 297.093 59.2 294.559 56.8C292.093 54.4 288.393 53.2 283.459 53.2C280.059 53.2 276.826 53.7667 273.759 54.9C270.693 56.0333 268.093 57.5333 265.959 59.4L262.759 54.1C265.426 51.8333 268.626 50.1 272.359 48.9C276.093 47.6333 280.026 47 284.159 47C290.959 47 296.193 48.7 299.859 52.1C303.593 55.4333 305.459 60.5333 305.459 67.4V100H298.659ZM280.559 100.5C276.626 100.5 273.193 99.8667 270.259 98.6C267.393 97.2667 265.193 95.4667 263.659 93.2C262.126 90.8667 261.359 88.2 261.359 85.2C261.359 82.4667 261.993 80 263.259 77.8C264.593 75.5333 266.726 73.7333 269.659 72.4C272.659 71 276.659 70.3 281.659 70.3H299.759V75.6H281.859C276.793 75.6 273.259 76.5 271.259 78.3C269.326 80.1 268.359 82.3333 268.359 85C268.359 88 269.526 90.4 271.859 92.2C274.193 94 277.459 94.9 281.659 94.9C285.659 94.9 289.093 94 291.959 92.2C294.893 90.3333 297.026 87.6667 298.359 84.2L299.959 89.1C298.626 92.5667 296.293 95.3333 292.959 97.4C289.693 99.4667 285.559 100.5 280.559 100.5ZM351.544 47C355.81 47 359.544 47.8333 362.744 49.5C366.01 51.1 368.544 53.5667 370.344 56.9C372.21 60.2333 373.144 64.4333 373.144 69.5V100H366.044V70.2C366.044 64.6667 364.644 60.5 361.844 57.7C359.11 54.8333 355.244 53.4 350.244 53.4C346.51 53.4 343.244 54.1667 340.444 55.7C337.71 57.1667 335.577 59.3333 334.044 62.2C332.577 65 331.844 68.4 331.844 72.4V100H324.744V47.5H331.544V61.9L330.444 59.2C332.11 55.4 334.777 52.4333 338.444 50.3C342.11 48.1 346.477 47 351.544 47ZM413.222 100.5C408.222 100.5 403.722 99.3667 399.722 97.1C395.789 94.8333 392.689 91.7 390.422 87.7C388.155 83.6333 387.022 78.9667 387.022 73.7C387.022 68.3667 388.155 63.7 390.422 59.7C392.689 55.7 395.789 52.6 399.722 50.4C403.722 48.1333 408.222 47 413.222 47C417.822 47 421.922 48.0333 425.522 50.1C429.189 52.1667 432.089 55.2 434.222 59.2C436.422 63.1333 437.522 67.9667 437.522 73.7C437.522 79.3667 436.455 84.2 434.322 88.2C432.189 92.2 429.289 95.2667 425.622 97.4C422.022 99.4667 417.889 100.5 413.222 100.5ZM413.722 94.2C417.455 94.2 420.789 93.3667 423.722 91.7C426.722 89.9667 429.055 87.5667 430.722 84.5C432.455 81.3667 433.322 77.7667 433.322 73.7C433.322 69.5667 432.455 65.9667 430.722 62.9C429.055 59.8333 426.722 57.4667 423.722 55.8C420.789 54.0667 417.455 53.2 413.722 53.2C410.055 53.2 406.755 54.0667 403.822 55.8C400.889 57.4667 398.555 59.8333 396.822 62.9C395.089 65.9667 394.222 69.5667 394.222 73.7C394.222 77.7667 395.089 81.3667 396.822 84.5C398.555 87.5667 400.889 89.9667 403.822 91.7C406.755 93.3667 410.055 94.2 413.722 94.2ZM433.522 100V84.2L434.222 73.6L433.222 63V25.8H440.322V100H433.522ZM512.795 30H520.095V100H512.795V30ZM468.995 100H461.595V30H468.995V100ZM513.495 67.7H468.195V61.2H513.495V67.7ZM562.843 100.5C557.776 100.5 553.21 99.3667 549.143 97.1C545.143 94.7667 541.976 91.6 539.643 87.6C537.31 83.5333 536.143 78.9 536.143 73.7C536.143 68.4333 537.31 63.8 539.643 59.8C541.976 55.8 545.143 52.6667 549.143 50.4C553.143 48.1333 557.71 47 562.843 47C568.043 47 572.643 48.1333 576.643 50.4C580.71 52.6667 583.876 55.8 586.143 59.8C588.476 63.8 589.643 68.4333 589.643 73.7C589.643 78.9 588.476 83.5333 586.143 87.6C583.876 91.6 580.71 94.7667 576.643 97.1C572.576 99.3667 567.976 100.5 562.843 100.5ZM562.843 94.2C566.643 94.2 570.01 93.3667 572.943 91.7C575.876 89.9667 578.176 87.5667 579.843 84.5C581.576 81.3667 582.443 77.7667 582.443 73.7C582.443 69.5667 581.576 65.9667 579.843 62.9C578.176 59.8333 575.876 57.4667 572.943 55.8C570.01 54.0667 566.676 53.2 562.943 53.2C559.21 53.2 555.876 54.0667 552.943 55.8C550.01 57.4667 547.676 59.8333 545.943 62.9C544.21 65.9667 543.343 69.5667 543.343 73.7C543.343 77.7667 544.21 81.3667 545.943 84.5C547.676 87.5667 550.01 89.9667 552.943 91.7C555.876 93.3667 559.176 94.2 562.843 94.2ZM625.838 100.5C621.372 100.5 617.472 99.6667 614.138 98C610.805 96.3333 608.205 93.8333 606.338 90.5C604.538 87.1667 603.638 83 603.638 78V47.5H610.738V77.2C610.738 82.8 612.105 87.0333 614.838 89.9C617.638 92.7 621.538 94.1 626.538 94.1C630.205 94.1 633.372 93.3667 636.038 91.9C638.772 90.3667 640.838 88.1667 642.238 85.3C643.705 82.4333 644.438 79 644.438 75V47.5H651.538V100H644.738V85.6L645.838 88.2C644.172 92.0667 641.572 95.1 638.038 97.3C634.572 99.4333 630.505 100.5 625.838 100.5ZM685.426 100.5C681.092 100.5 676.992 99.9 673.126 98.7C669.259 97.4333 666.226 95.8667 664.026 94L667.226 88.4C669.359 90 672.092 91.4 675.426 92.6C678.759 93.7333 682.259 94.3 685.926 94.3C690.926 94.3 694.526 93.5333 696.726 92C698.926 90.4 700.026 88.3 700.026 85.7C700.026 83.7667 699.392 82.2667 698.126 81.2C696.926 80.0667 695.326 79.2333 693.326 78.7C691.326 78.1 689.092 77.6 686.626 77.2C684.159 76.8 681.692 76.3333 679.226 75.8C676.826 75.2667 674.626 74.5 672.626 73.5C670.626 72.4333 668.992 71 667.726 69.2C666.526 67.4 665.926 65 665.926 62C665.926 59.1333 666.726 56.5667 668.326 54.3C669.926 52.0333 672.259 50.2667 675.326 49C678.459 47.6667 682.259 47 686.726 47C690.126 47 693.526 47.4667 696.926 48.4C700.326 49.2667 703.126 50.4333 705.326 51.9L702.226 57.6C699.892 56 697.392 54.8667 694.726 54.2C692.059 53.4667 689.392 53.1 686.726 53.1C681.992 53.1 678.492 53.9333 676.226 55.6C674.026 57.2 672.926 59.2667 672.926 61.8C672.926 63.8 673.526 65.3667 674.726 66.5C675.992 67.6333 677.626 68.5333 679.626 69.2C681.692 69.8 683.926 70.3 686.326 70.7C688.792 71.1 691.226 71.6 693.626 72.2C696.092 72.7333 698.326 73.5 700.326 74.5C702.392 75.4333 704.026 76.8 705.226 78.6C706.492 80.3333 707.126 82.6333 707.126 85.5C707.126 88.5667 706.259 91.2333 704.526 93.5C702.859 95.7 700.392 97.4333 697.126 98.7C693.926 99.9 690.026 100.5 685.426 100.5ZM742.454 100.5C736.987 100.5 732.187 99.3667 728.054 97.1C723.921 94.7667 720.687 91.6 718.354 87.6C716.021 83.5333 714.854 78.9 714.854 73.7C714.854 68.5 715.954 63.9 718.154 59.9C720.421 55.9 723.487 52.7667 727.354 50.5C731.287 48.1667 735.687 47 740.554 47C745.487 47 749.854 48.1333 753.654 50.4C757.521 52.6 760.554 55.7333 762.754 59.8C764.954 63.8 766.054 68.4333 766.054 73.7C766.054 74.0333 766.021 74.4 765.954 74.8C765.954 75.1333 765.954 75.5 765.954 75.9H720.254V70.6H762.154L759.354 72.7C759.354 68.9 758.521 65.5333 756.854 62.6C755.254 59.6 753.054 57.2667 750.254 55.6C747.454 53.9333 744.221 53.1 740.554 53.1C736.954 53.1 733.721 53.9333 730.854 55.6C727.987 57.2667 725.754 59.6 724.154 62.6C722.554 65.6 721.754 69.0333 721.754 72.9V74C721.754 78 722.621 81.5333 724.354 84.6C726.154 87.6 728.621 89.9667 731.754 91.7C734.954 93.3667 738.587 94.2 742.654 94.2C745.854 94.2 748.821 93.6333 751.554 92.5C754.354 91.3667 756.754 89.6333 758.754 87.3L762.754 91.9C760.421 94.7 757.487 96.8333 753.954 98.3C750.487 99.7667 746.654 100.5 742.454 100.5Z" fill="white"/>
<defs>
<radialGradient id="paint0_radial_1023_6" cx="0" cy="0" r="1" gradientUnits="userSpaceOnUse" gradientTransform="translate(51.4212 60.3382) rotate(86.5501) scale(67.7852 78.1673)">
<stop stop-color="#2C0DFF"/>
<stop offset="1" stop-color="#0066FF"/>
</radialGradient>
<radialGradient id="paint1_radial_1023_6" cx="0" cy="0" r="1" gradientUnits="userSpaceOnUse" gradientTransform="translate(64.0002 51.6887) rotate(90) scale(48.1204 64.0002)">
<stop stop-color="white"/>
<stop offset="1" stop-color="#00ECFF"/>
</radialGradient>
<radialGradient id="paint2_radial_1023_6" cx="0" cy="0" r="1" gradientUnits="userSpaceOnUse" gradientTransform="translate(55.0001 91.5446) rotate(90) scale(15.068 16.0001)">
<stop stop-color="white"/>
<stop offset="1" stop-color="#00ECFF"/>
</radialGradient>
<radialGradient id="paint3_radial_1023_6" cx="0" cy="0" r="1" gradientUnits="userSpaceOnUse" gradientTransform="translate(19.0001 99.3222) rotate(90) scale(19.9286 15.0001)">
<stop stop-color="white"/>
<stop offset="1" stop-color="#00ECFF"/>
</radialGradient>
</defs>
</svg>
