<svg width="128" height="128" viewBox="0 0 128 128" fill="none" xmlns="http://www.w3.org/2000/svg">
<path d="M31.435 119.499C40.6461 126.691 82.4043 138.826 111 107.948C87.7994 124.976 70.9502 120.931 60.3192 115.321C49.6882 109.71 50.4182 102.358 49.4876 92.5514C48.5571 82.7451 49.4876 76.6325 49.4876 76.6325C49.4876 66.0634 60.7873 54.7767 71.1509 58.4302V31.7598L17.5195 33.1952C17.5195 33.1952 0.0213762 63.3682 0.000204173 66.5359C-0.0209678 69.7035 1.47129 83.3706 4.61366 89.1746C7.75602 94.9786 22.2239 112.306 31.435 119.499Z" fill="url(#paint0_radial_951_19)"/>
<path d="M122.493 91.3366C158.623 -6.14537 5.37249 -33.7428 0 66.9666C0 66.9666 6.37983 53.9905 19.5424 62.6848C32.7051 71.3792 21.49 53.9905 21.49 50.9607C21.49 47.9308 16.6008 34.9851 38.6819 55.6372C60.7631 76.2893 29.9516 28.5004 44.4574 42.7275C58.9631 56.9546 51.8446 42.7275 62.9048 42.7275C73.9651 42.7275 70.0905 74.2774 78.3041 74.2774C86.5176 74.2774 88.1233 55.4396 91.8696 74.2774C95.616 93.1152 100.734 89.9535 101.356 87.4505C101.977 84.9475 110.958 62.027 109.793 86.1991C108.628 110.371 120.218 95.9096 122.493 91.3366Z" fill="url(#paint1_radial_951_19)"/>
<path d="M95.1865 38.3759C107.139 37.405 117.503 48.391 116.906 41.442C116.309 34.4931 106.135 29.6469 94.1818 30.6179C82.2289 31.5889 73.0233 38.0092 73.6206 44.9582C74.2179 51.9072 83.2335 39.3469 95.1865 38.3759Z" fill="white" fill-opacity="0.7"/>
<path d="M78.4199 24.0047C90.8092 18.5087 106.22 26.3821 102.839 19.1795C99.4579 11.9769 86.6735 10.5935 74.2843 16.0895C61.895 21.5856 54.5924 31.8799 57.9735 39.0825C61.3545 46.2851 66.0307 29.5008 78.4199 24.0047Z" fill="white" fill-opacity="0.7"/>
<path d="M35.6009 26.224C50.4608 16.9426 71.7413 24.2814 66.0316 15.6425C60.3219 7.00356 43.6469 7.52441 28.787 16.8058C13.9272 26.0873 6.5095 40.6146 12.2192 49.2535C17.9289 57.8924 20.7411 35.5054 35.6009 26.224Z" fill="white" fill-opacity="0.7"/>
<path d="M102.575 52.2159C109.612 53.128 114.171 60.7574 114.733 56.6661C115.294 52.5748 110.044 48.5187 103.006 47.6066C95.9687 46.6945 89.8088 49.2717 89.2477 53.363C88.6866 57.4543 95.5375 51.3038 102.575 52.2159Z" fill="white" fill-opacity="0.7"/>
<path d="M105.521 64.7341C111.007 65.4451 114.561 71.3925 114.998 68.2031C115.436 65.0138 111.343 61.852 105.857 61.1409C100.371 60.4299 95.5692 62.439 95.1318 65.6283C94.6944 68.8176 100.035 64.023 105.521 64.7341Z" fill="white" fill-opacity="0.7"/>
<path d="M50.0474 76.7385C35.2416 78.7533 38.4804 113.46 41.8513 105.401C45.2223 97.3416 46.1476 88.8274 50.0474 92.662C53.9471 96.4967 56.6571 94.8718 54.4098 92.662C52.1625 90.4522 50.7744 85.5127 58.0451 92.662C65.3158 99.8114 61.5483 88.9574 65.3158 92.662C69.0833 96.3667 71.0001 95.9767 71.0001 92.662C71.0001 89.3473 69.2816 84.9928 69.2816 84.9928C69.2816 84.9928 64.8531 74.7237 50.0474 76.7385Z" fill="url(#paint2_radial_951_19)"/>
<path d="M4.56533 89.1913C8.50292 101.743 26.2519 118.941 31.1436 119.248C36.0353 119.556 34.318 94.0969 28.4725 103.569C22.6269 113.041 12.3248 96.0838 18.8562 96.0874C25.3876 96.0911 27.6711 87.4347 24.7328 90.2973C21.7945 93.1598 16.1397 92.1861 13.9145 87.4347C11.6893 82.6834 18.0715 83.4157 21.1267 84.5722C18.4555 77.3507 0.627733 76.6396 4.56533 89.1913Z" fill="url(#paint3_radial_951_19)"/>
<path d="M46.8706 83.3491C48.9792 81.3893 52.6673 81.9278 51.4617 80.7019C50.2561 79.476 47.5694 80.0709 45.4607 82.0306C43.352 83.9904 42.6199 86.5729 43.8255 87.7988C45.0311 89.0247 44.7619 85.3088 46.8706 83.3491Z" fill="white" fill-opacity="0.7"/>
<path d="M13.4289 95.8105C13.7935 94.061 15.898 93.05 14.8218 92.8381C13.7455 92.6261 12.5774 93.8726 12.2128 95.6222C11.8483 97.3717 12.4252 98.9619 13.5015 99.1738C14.5778 99.3857 13.0643 97.5601 13.4289 95.8105Z" fill="white" fill-opacity="0.7"/>
<path d="M29.8176 112.396C30.1821 110.646 32.2867 109.635 31.2104 109.423C30.1341 109.211 28.9661 110.458 28.6015 112.207C28.2369 113.957 28.8139 115.547 29.8902 115.759C30.9665 115.971 29.453 114.145 29.8176 112.396Z" fill="white" fill-opacity="0.7"/>
<path d="M26.1896 110.176C26.5542 108.426 28.6588 107.415 27.5825 107.203C26.5062 106.991 25.3382 108.238 24.9736 109.987C24.609 111.737 25.186 113.327 26.2623 113.539C27.3386 113.751 25.8251 111.925 26.1896 110.176Z" fill="white" fill-opacity="0.7"/>
<path d="M9.80195 91.6318C10.1665 89.8823 12.2711 88.8713 11.1948 88.6594C10.1185 88.4474 8.95046 89.6939 8.58589 91.4435C8.22132 93.193 8.79828 94.7831 9.87457 94.9951C10.9509 95.207 9.43737 93.3814 9.80195 91.6318Z" fill="white" fill-opacity="0.7"/>
<path d="M7.92109 86.0176C8.28566 84.268 10.3902 83.2571 9.31394 83.0451C8.23765 82.8332 7.06961 84.0797 6.70503 85.8292C6.34046 87.5788 6.91743 89.1689 7.99371 89.3808C9.07 89.5928 7.55652 87.7671 7.92109 86.0176Z" fill="white" fill-opacity="0.7"/>
<path d="M50.2697 84.8964C51.691 83.5755 54.1767 83.9384 53.3641 83.1122C52.5516 82.2859 50.7407 82.6869 49.3195 84.0078C47.8982 85.3286 47.4048 87.0692 48.2174 87.8955C49.0299 88.7217 48.8485 86.2173 50.2697 84.8964Z" fill="white" fill-opacity="0.7"/>
<path d="M53.0055 86.9349C54.1216 85.8976 56.0738 86.1826 55.4356 85.5337C54.7975 84.8848 53.3754 85.1997 52.2592 86.237C51.1431 87.2743 50.7556 88.6413 51.3937 89.2901C52.0319 89.939 51.8893 87.9722 53.0055 86.9349Z" fill="white" fill-opacity="0.7"/>
<defs>
<radialGradient id="paint0_radial_951_19" cx="0" cy="0" r="1" gradientUnits="userSpaceOnUse" gradientTransform="translate(51.4212 60.3382) rotate(86.5501) scale(67.7852 78.1673)">
<stop stop-color="#2C0DFF"/>
<stop offset="1" stop-color="#0066FF"/>
</radialGradient>
<radialGradient id="paint1_radial_951_19" cx="0" cy="0" r="1" gradientUnits="userSpaceOnUse" gradientTransform="translate(64.0002 51.6887) rotate(90) scale(48.1204 64.0002)">
<stop stop-color="white"/>
<stop offset="1" stop-color="#00ECFF"/>
</radialGradient>
<radialGradient id="paint2_radial_951_19" cx="0" cy="0" r="1" gradientUnits="userSpaceOnUse" gradientTransform="translate(55.0001 91.5446) rotate(90) scale(15.068 16.0001)">
<stop stop-color="white"/>
<stop offset="1" stop-color="#00ECFF"/>
</radialGradient>
<radialGradient id="paint3_radial_951_19" cx="0" cy="0" r="1" gradientUnits="userSpaceOnUse" gradientTransform="translate(19.0001 99.3222) rotate(90) scale(19.9286 15.0001)">
<stop stop-color="white"/>
<stop offset="1" stop-color="#00ECFF"/>
</radialGradient>
</defs>
</svg>
