<?xml version="1.0" encoding="UTF-8" standalone="no"?>
<!-- Created with Inkscape (http://www.inkscape.org/) -->

<svg
   version="1.1"
   id="svg2"
   xml:space="preserve"
   width="666.66669"
   height="496.81332"
   viewBox="0 0 666.66669 496.81332"
   sodipodi:docname="4957136_Mobile login.eps"
   xmlns:inkscape="http://www.inkscape.org/namespaces/inkscape"
   xmlns:sodipodi="http://sodipodi.sourceforge.net/DTD/sodipodi-0.dtd"
   xmlns="http://www.w3.org/2000/svg"
   xmlns:svg="http://www.w3.org/2000/svg"><defs
     id="defs6" /><sodipodi:namedview
     id="namedview4"
     pagecolor="#ffffff"
     bordercolor="#666666"
     borderopacity="1.0"
     inkscape:pageshadow="2"
     inkscape:pageopacity="0.0"
     inkscape:pagecheckerboard="0" /><g
     id="g8"
     inkscape:groupmode="layer"
     inkscape:label="ink_ext_XXXXXX"
     transform="matrix(1.3333333,0,0,-1.3333333,0,496.81333)"><g
       id="g10"
       transform="scale(0.1)"><path
         d="m 0,449.129 h 5000 v 2.5 H 0 Z"
         style="fill:#e9e9e8;fill-opacity:1;fill-rule:nonzero;stroke:none"
         id="path12" /><path
         d="M 1248.27,297.84 H 917.047 v 2.5 h 331.223 v -2.5"
         style="fill:#e9e9e8;fill-opacity:1;fill-rule:nonzero;stroke:none"
         id="path14" /><path
         d="M 812.227,297.84 H 620.293 v 2.5 h 191.934 v -2.5"
         style="fill:#e9e9e8;fill-opacity:1;fill-rule:nonzero;stroke:none"
         id="path16" /><path
         d="m 2105.55,261.039 h -191.93 v 2.5 h 191.93 v -2.5"
         style="fill:#e9e9e8;fill-opacity:1;fill-rule:nonzero;stroke:none"
         id="path18" /><path
         d="m 3106.17,205.211 h -431.93 v 2.5 h 431.93 v -2.5"
         style="fill:#e9e9e8;fill-opacity:1;fill-rule:nonzero;stroke:none"
         id="path20" /><path
         d="m 2585.21,205.211 h -63.33 v 2.5 h 63.33 v -2.5"
         style="fill:#e9e9e8;fill-opacity:1;fill-rule:nonzero;stroke:none"
         id="path22" /><path
         d="m 4533.43,261.039 h -936.76 v 2.5 h 936.76 v -2.5"
         style="fill:#e9e9e8;fill-opacity:1;fill-rule:nonzero;stroke:none"
         id="path24" /><path
         d="m 439.152,3723.59 c -30.101,0 -54.582,-24.48 -54.582,-54.57 V 954.699 c 0,-30.097 24.481,-54.578 54.582,-54.578 H 2370.14 c 30.08,0 54.57,24.481 54.57,54.578 V 3669.02 c 0,30.09 -24.49,54.57 -54.57,54.57 H 439.152 M 2370.14,897.621 H 439.152 c -31.476,0 -57.082,25.598 -57.082,57.078 V 3669.02 c 0,31.46 25.606,57.07 57.082,57.07 H 2370.14 c 31.46,0 57.07,-25.61 57.07,-57.07 V 954.699 c 0,-31.48 -25.61,-57.078 -57.07,-57.078"
         style="fill:#e9e9e8;fill-opacity:1;fill-rule:nonzero;stroke:none"
         id="path26" /><path
         d="m 2602.12,3723.59 c -30.09,0 -54.57,-24.48 -54.57,-54.57 V 954.699 c 0,-30.097 24.48,-54.578 54.57,-54.578 h 1930.99 c 30.09,0 54.58,24.481 54.58,54.578 V 3669.02 c 0,30.09 -24.49,54.57 -54.58,54.57 H 2602.12 M 4533.11,897.621 H 2602.12 c -31.47,0 -57.07,25.598 -57.07,57.078 V 3669.02 c 0,31.46 25.6,57.07 57.07,57.07 h 1930.99 c 31.47,0 57.08,-25.61 57.08,-57.07 V 954.699 c 0,-31.48 -25.61,-57.078 -57.08,-57.078"
         style="fill:#e9e9e8;fill-opacity:1;fill-rule:nonzero;stroke:none"
         id="path28" /><path
         d="m 2454.1,433.5 h 219.887 v 872.34 H 2454.1 Z"
         style="fill:#e3e3e2;fill-opacity:1;fill-rule:nonzero;stroke:none"
         id="path30" /><path
         d="m 2632.23,433.5 h 41.76 v 118.801 h -85.55 L 2632.23,433.5"
         style="fill:#fcfdfd;fill-opacity:1;fill-rule:nonzero;stroke:none"
         id="path32" /><path
         d="m 1490.55,433.5 h 219.891 v 872.34 H 1490.55 Z"
         style="fill:#e3e3e2;fill-opacity:1;fill-rule:nonzero;stroke:none"
         id="path34" /><path
         d="m 1673.99,506.398 h 1000 v 799.441 h -1000 z"
         style="fill:#fcfdfd;fill-opacity:1;fill-rule:nonzero;stroke:none"
         id="path36" /><path
         d="m 2641.59,1270.41 h -935.2 v -219.24 h 935.2 v 219.24 m -3.86,-3.87 v -211.5 h -927.48 v 211.5 h 927.48"
         style="fill:#e3e3e2;fill-opacity:1;fill-rule:nonzero;stroke:none"
         id="path38" /><path
         d="m 1715.75,433.5 h -41.76 v 118.801 h 85.55 L 1715.75,433.5"
         style="fill:#fcfdfd;fill-opacity:1;fill-rule:nonzero;stroke:none"
         id="path40" /><path
         d="m 2151.87,1160.79 c 0,-12.21 9.91,-22.12 22.12,-22.12 12.22,0 22.12,9.91 22.12,22.12 0,12.22 -9.9,22.12 -22.12,22.12 -12.21,0 -22.12,-9.9 -22.12,-22.12"
         style="fill:#e9e9e8;fill-opacity:1;fill-rule:nonzero;stroke:none"
         id="path42" /><path
         d="m 2641.59,1015.74 h -935.2 V 796.512 h 935.2 v 219.228 m -3.86,-3.86 V 800.359 h -927.48 v 211.521 h 927.48"
         style="fill:#e3e3e2;fill-opacity:1;fill-rule:nonzero;stroke:none"
         id="path44" /><path
         d="m 2151.88,906.121 c 0,-12.211 9.9,-22.121 22.11,-22.121 12.22,0 22.12,9.91 22.12,22.121 0,12.219 -9.9,22.109 -22.12,22.109 -12.21,0 -22.11,-9.89 -22.11,-22.109"
         style="fill:#e9e9e8;fill-opacity:1;fill-rule:nonzero;stroke:none"
         id="path46" /><path
         d="m 2641.59,761.059 h -935.2 V 541.832 h 935.2 v 219.227 m -3.86,-3.848 v -211.52 h -927.48 v 211.52 h 927.48"
         style="fill:#e3e3e2;fill-opacity:1;fill-rule:nonzero;stroke:none"
         id="path48" /><path
         d="m 2151.88,651.449 c 0,-12.211 9.9,-22.109 22.11,-22.109 12.22,0 22.12,9.898 22.12,22.109 0,12.211 -9.9,22.121 -22.12,22.121 -12.21,0 -22.11,-9.91 -22.11,-22.121"
         style="fill:#e9e9e8;fill-opacity:1;fill-rule:nonzero;stroke:none"
         id="path50" /><path
         d="m 1356.21,433.5 h 219.891 V 1812.46 H 1356.21 Z"
         style="fill:#e3e3e2;fill-opacity:1;fill-rule:nonzero;stroke:none"
         id="path52" /><path
         d="m 1534.34,433.5 h 41.76 v 118.801 h -85.55 L 1534.34,433.5"
         style="fill:#fcfdfd;fill-opacity:1;fill-rule:nonzero;stroke:none"
         id="path54" /><path
         d="m 754.277,433.5 h -219.89 v 1378.96 h 219.89 V 433.5"
         style="fill:#e3e3e2;fill-opacity:1;fill-rule:nonzero;stroke:none"
         id="path56" /><path
         d="m 717.828,506.398 h 858.273 v 1306.06 H 717.828 Z"
         style="fill:#fcfdfd;fill-opacity:1;fill-rule:nonzero;stroke:none"
         id="path58" /><path
         d="M 1543.7,1780.03 H 750.227 V 1475.22 H 1543.7 v 304.81 m -4.55,-4.56 V 1479.78 H 754.785 v 295.69 h 784.365"
         style="fill:#e3e3e2;fill-opacity:1;fill-rule:nonzero;stroke:none"
         id="path60" /><path
         d="M 1543.7,1448.39 H 1160.98 V 654.91 h 382.72 v 793.48 m -4.55,-4.56 V 659.469 h -373.61 v 784.361 h 373.61"
         style="fill:#e3e3e2;fill-opacity:1;fill-rule:nonzero;stroke:none"
         id="path62" /><path
         d="M 1132.95,1448.39 H 750.227 V 654.91 h 382.723 z m -4.56,-4.56 V 659.469 H 754.785 v 784.361 h 373.605"
         style="fill:#e3e3e2;fill-opacity:1;fill-rule:nonzero;stroke:none"
         id="path64" /><path
         d="m 759.59,433.5 h -41.762 v 118.801 h 85.555 L 759.59,433.5"
         style="fill:#fcfdfd;fill-opacity:1;fill-rule:nonzero;stroke:none"
         id="path66" /><path
         d="m 1124.85,1627.63 c 0,-12.22 9.9,-22.12 22.11,-22.12 12.22,0 22.12,9.9 22.12,22.12 0,12.2 -9.9,22.11 -22.12,22.11 -12.21,0 -22.11,-9.91 -22.11,-22.11"
         style="fill:#e9e9e8;fill-opacity:1;fill-rule:nonzero;stroke:none"
         id="path68" /><path
         d="m 1204.03,1070.36 c 0,-12.21 9.91,-22.12 22.12,-22.12 12.21,0 22.12,9.91 22.12,22.12 0,12.22 -9.91,22.12 -22.12,22.12 -12.21,0 -22.12,-9.9 -22.12,-22.12"
         style="fill:#e9e9e8;fill-opacity:1;fill-rule:nonzero;stroke:none"
         id="path70" /><path
         d="m 1045.66,1070.36 c 0,-12.21 9.91,-22.12 22.12,-22.12 12.22,0 22.12,9.91 22.12,22.12 0,12.22 -9.9,22.12 -22.12,22.12 -12.21,0 -22.12,-9.9 -22.12,-22.12"
         style="fill:#e9e9e8;fill-opacity:1;fill-rule:nonzero;stroke:none"
         id="path72" /><path
         d="m 1020.75,2196.93 h -92.766 c 0,0 16.102,-85.75 16.102,-136.21 0,-50.46 -70.555,-248.26 30.277,-248.26 100.837,0 30.277,197.8 30.277,248.26 0,50.46 16.11,136.21 16.11,136.21"
         style="fill:#e3e3e2;fill-opacity:1;fill-rule:nonzero;stroke:none"
         id="path74" /><path
         d="m 668.031,1994.13 v -60.27 c 0,-66.77 54.637,-121.4 121.407,-121.4 h 60.269 c 66.773,0 121.406,54.63 121.406,121.4 v 60.27 H 668.031"
         style="fill:#f8f8f9;fill-opacity:1;fill-rule:nonzero;stroke:none"
         id="path76" /><path
         d="m 1956.67,1432.97 c 0,-69.92 78.3,-127.13 174.02,-127.13 h 86.39 c 95.72,0 174.03,57.21 174.03,127.13 h -434.44"
         style="fill:#e3e3e2;fill-opacity:1;fill-rule:nonzero;stroke:none"
         id="path78" /><path
         d="m 4246.06,1535.32 c -52.4,-42.77 -124.71,-121.09 -190.99,-231.28 -44.13,-73.37 -70.73,-150.26 -82.42,-251.85 0.25,114.99 0.61,238.54 1.01,355.15 13.31,30 43.71,99.15 65.52,153.79 72.76,182.32 99.87,227.15 165.32,384.4 87.29,209.73 176.74,458.61 151.14,438.72 -52.2,-40.52 -252.2,-415.04 -273.82,-468.65 -74.37,-184.4 -95.08,-318.8 -107.95,-448.52 0.41,109.51 0.84,210.08 1.25,287.67 1.33,253.08 5.64,334.76 7.74,359.95 8.1,12.8 17.66,27.72 23.21,35.76 46.99,67.93 65.11,125.8 109.37,227.12 62.73,143.57 116.76,398.47 100.96,385.61 -65.76,-53.53 -117.63,-168.61 -185.78,-315.26 -68.16,-146.65 -48.68,-230.99 -62.19,-356.23 -2.84,-24.59 -5.01,-117.33 -6.58,-245.88 -17.68,136.95 -50.84,227.2 -111.34,309.21 -74.43,100.87 -146.41,169.01 -199.24,204.6 -52.82,35.58 91.21,-212.2 160.1,-320.35 61.34,-96.31 117.84,-181.3 149.69,-265 -1.67,-174.22 -2.46,-394.84 -2.47,-600.2 -15.8,93.46 -41.6,194.09 -76.02,272.02 -41.36,93.64 -104.99,237.24 -155.64,285.95 -12.16,11.71 52.96,-267.6 94.76,-341.87 41.8,-74.27 72.48,-144.26 98.79,-186.36 6.13,-9.83 26.49,-47.7 38.12,-69.48 0.12,-250.711 1.39,-471.918 3.58,-547.219 h 10.83 c -0.74,19.418 -0.86,146.949 -0.64,315.738 26.09,91.653 85.74,196.231 134.96,291.651 53.73,104.13 191.14,383.59 138.73,340.81"
         style="fill:#e3e3e2;fill-opacity:1;fill-rule:nonzero;stroke:none"
         id="path80" /><path
         d="m 4124.4,433.5 h -313.43 l -23.66,307.23 h 360.76 L 4124.4,433.5"
         style="fill:#f4f4f4;fill-opacity:1;fill-rule:nonzero;stroke:none"
         id="path82" /><path
         d="m 4171.42,704.93 h -407.46 l -11.67,103.66 h 430.81 l -11.68,-103.66"
         style="fill:#f8f8f9;fill-opacity:1;fill-rule:nonzero;stroke:none"
         id="path84" /><path
         d="M 1242.59,2905.15 H 682.074 v 615.49 h 560.516 v -615.49"
         style="fill:#e3e3e2;fill-opacity:1;fill-rule:nonzero;stroke:none"
         id="path86" /><path
         d="M 1303.31,2905.15 H 724.332 v 615.49 h 578.978 v -615.49"
         style="fill:#f8f8f9;fill-opacity:1;fill-rule:nonzero;stroke:none"
         id="path88" /><path
         d="m 772.832,2953.65 v 518.49 H 1254.8 V 2953.65 H 772.832"
         style="fill:#ffffff;fill-opacity:1;fill-rule:nonzero;stroke:none"
         id="path90" /><path
         d="m 889.652,3079.33 v 267.13 H 1137.98 V 3079.33 H 889.652"
         style="fill:#f8f8f9;fill-opacity:1;fill-rule:nonzero;stroke:none"
         id="path92" /><path
         d="M 4100.51,2877.13 H 3579.8 v 571.76 h 520.71 v -571.76"
         style="fill:#e3e3e2;fill-opacity:1;fill-rule:nonzero;stroke:none"
         id="path94" /><path
         d="m 4156.9,2877.13 h -537.84 v 571.76 h 537.84 v -571.76"
         style="fill:#f8f8f9;fill-opacity:1;fill-rule:nonzero;stroke:none"
         id="path96" /><path
         d="m 3664.12,2922.18 v 481.66 h 447.73 v -481.66 h -447.73"
         style="fill:#ffffff;fill-opacity:1;fill-rule:nonzero;stroke:none"
         id="path98" /><path
         d="m 4027.67,3163.01 c 0,-77.14 -62.54,-139.68 -139.69,-139.68 -77.14,0 -139.68,62.54 -139.68,139.68 0,77.14 62.54,139.68 139.68,139.68 77.15,0 139.69,-62.54 139.69,-139.68"
         style="fill:#f8f8f9;fill-opacity:1;fill-rule:nonzero;stroke:none"
         id="path100" /><path
         d="m 1824.9,2697.07 h -415.81 v 456.58 h 415.81 v -456.58"
         style="fill:#e3e3e2;fill-opacity:1;fill-rule:nonzero;stroke:none"
         id="path102" /><path
         d="m 1869.94,2697.07 h -429.5 v 456.58 h 429.5 v -456.58"
         style="fill:#f8f8f9;fill-opacity:1;fill-rule:nonzero;stroke:none"
         id="path104" /><path
         d="m 1476.42,2733.04 v 384.63 h 357.54 v -384.63 h -357.54"
         style="fill:#ffffff;fill-opacity:1;fill-rule:nonzero;stroke:none"
         id="path106" /><path
         d="m 1655.19,3022.59 -97.78,-169.37 h 195.56 z"
         style="fill:#f8f8f9;fill-opacity:1;fill-rule:nonzero;stroke:none"
         id="path108" /><path
         d="M 4438.89,113.23 C 4438.89,50.6914 3570.82,0 2500,0 1429.18,0 561.113,50.6914 561.113,113.23 c 0,62.54 868.067,113.239 1938.887,113.239 1070.82,0 1938.89,-50.699 1938.89,-113.239"
         style="fill:#f8f8f9;fill-opacity:1;fill-rule:nonzero;stroke:none"
         id="path110" /><path
         d="m 3492.45,2641.3 -99.18,40.22 c 0,0 -130.9,-238.73 -168.4,-250.78 -51.01,-16.39 -156.52,-61.99 -219.22,-70.53 -8.45,-9.88 -22.39,-41.04 -21.06,-52.4 84.12,-28.05 268.92,9.2 308.48,38.58 90.17,66.98 199.38,294.91 199.38,294.91"
         style="fill:#f47372;fill-opacity:1;fill-rule:nonzero;stroke:none"
         id="path112" /><path
         d="m 3523,2695.46 c 18.45,-68.38 -81.74,-205.76 -81.74,-205.76 l -131.62,73.83 c 0,0 24.54,56.47 54.58,113.98 48.5,92.88 137.71,96.01 158.78,17.95"
         style="fill:#4870c0;fill-opacity:1;fill-rule:nonzero;stroke:none"
         id="path114" /><path
         d="m 3384.73,2521.41 -75.09,42.12 c 0,0 24.54,56.47 54.58,113.98 19.81,37.94 46.42,60.9 72.4,69.48 -0.12,-0.26 -15.72,-35.1 -31.14,-102.64 -20.88,-30.88 -35.85,-80.83 -43.36,-110.21 l 22.61,-12.68 c 0,-0.02 0,-0.04 0,-0.05 m 51.91,225.59 c 3.69,1.21 7.36,2.14 11.01,2.77 -6.72,-1.62 -10.68,-2.69 -11.01,-2.77"
         style="fill:#395eb4;fill-opacity:1;fill-rule:nonzero;stroke:none"
         id="path116" /><path
         d="m 3384.73,2521.46 -22.61,12.68 c 7.51,29.38 22.48,79.33 43.36,110.21 -7.58,-33.16 -15.11,-74.18 -20.75,-122.89"
         style="fill:#244ca5;fill-opacity:1;fill-rule:nonzero;stroke:none"
         id="path118" /><path
         d="m 3436.62,2746.99 c 0,0 -102.2,-227.36 -42.62,-650.77 121.34,0 343.67,0 402.71,0 6.4,61.82 -14.77,363.38 61.93,654.65 0,0 -68.21,13.85 -133.81,17.02 -51.31,2.48 -125.7,4.12 -171.18,-0.01 -59.96,-5.44 -117.03,-20.89 -117.03,-20.89"
         style="fill:#4870c0;fill-opacity:1;fill-rule:nonzero;stroke:none"
         id="path120" /><path
         d="m 3796.71,2096.22 c -59.04,0 -281.37,0 -402.71,0 -2.82,20.08 -5.29,39.74 -7.41,58.94 l 299.44,97.2 c 46.75,13.98 87.45,43.37 115.19,83.55 0.77,18.19 1.73,37 2.98,56.39 -9.23,-146.14 -3.82,-260.6 -7.49,-296.08 m -415.47,114.54 c -4.12,50.69 -5.89,97.95 -5.89,141.72 -0.02,258.16 61.27,394.51 61.27,394.51 0,0 57.07,15.45 117.03,20.89 20.05,1.82 45.71,2.52 72.54,2.52 34.03,0 69.95,-1.13 98.64,-2.51 58.5,-2.83 119.07,-14.15 131.5,-16.57 -3.98,0.72 -8.01,1.08 -12.08,1.08 -31.81,0 -65.25,-22.13 -87.18,-69.66 -39.8,-86.3 -60.73,-150.72 -60.73,-150.72 v 0 0 l 26.58,-10.85 c -25.91,-53.55 -52.59,-101.63 -67.69,-108.5 -49.02,-22.31 -173.17,-99.48 -225.92,-136.68 -1.62,-6.89 -1.64,-20.14 -0.2,-32.12 l -47.88,-33.12"
         style="fill:#395eb4;fill-opacity:1;fill-rule:nonzero;stroke:none"
         id="path122" /><path
         d="m 3684.25,84.7617 c -188.97,0 -341.65,8.6992 -341.02,19.4373 0.63,10.731 154.33,19.442 343.3,19.442 188.97,0 341.65,-8.711 341.02,-19.442 -0.64,-10.7381 -154.33,-19.4373 -343.3,-19.4373"
         style="fill:#e2e7ec;fill-opacity:1;fill-rule:nonzero;stroke:none"
         id="path124" /><path
         d="m 3683.21,214.641 -71.66,-27.621 -61.57,159.46 71.66,27.61 61.57,-159.449"
         style="fill:#f47372;fill-opacity:1;fill-rule:nonzero;stroke:none"
         id="path126" /><path
         d="m 3930.51,181.082 h -75.29 L 3827.6,355.43 h 75.29 l 27.62,-174.348"
         style="fill:#f47372;fill-opacity:1;fill-rule:nonzero;stroke:none"
         id="path128" /><path
         d="m 3850.38,189.801 h 84.59 c 3.08,0 5.62,-2.141 6.1,-5.153 l 10.95,-66.918 c 1.14,-6.949 -4.7,-13.511 -11.81,-13.39 -29.5,0.5 -43.74,2.23 -80.93,2.23 -22.89,0 -70.18,-2.371 -101.78,-2.371 -30.91,0 -33.9,31.25 -20.79,34.082 58.75,12.688 81.63,30.188 101.18,46.891 3.53,3 7.99,4.629 12.49,4.629"
         style="fill:#1d2a30;fill-opacity:1;fill-rule:nonzero;stroke:none"
         id="path130" /><path
         d="m 3599.73,216.148 80.21,23.321 c 3,0.871 6.09,-0.43 7.42,-3.11 l 29.72,-59.961 c 3.09,-6.207 -0.56,-14.019 -7.52,-15.918 -29.05,-7.921 -48.58,-12.89 -84.95,-23.46 -25.13,-7.301 -50.69,-19.211 -75.52,-27.122 -17.2,-5.476 -57.57,-5.699 -78.47,-5.699 -30.91,0 -37.8,32.59 -24.56,34.082 33.53,3.758 38.03,2.008 56.54,11.301 30.59,15.348 54.27,28.066 80.76,55.809 4.63,4.839 10.03,8.929 16.37,10.757"
         style="fill:#1d2a30;fill-opacity:1;fill-rule:nonzero;stroke:none"
         id="path132" /><path
         d="m 3018.33,2360.92 -82.85,34.86 -34.1,-91.78 c 0,0 47.81,-8.67 102.41,0 l 14.54,56.92"
         style="fill:#f47372;fill-opacity:1;fill-rule:nonzero;stroke:none"
         id="path134" /><path
         d="m 2873.91,2398.03 -2.19,-61.06 29.66,-32.97 34.1,91.78 -61.57,2.25"
         style="fill:#f47372;fill-opacity:1;fill-rule:nonzero;stroke:none"
         id="path136" /><path
         d="m 3550.01,346.441 31.73,-82.203 71.69,27.633 -31.73,82.188 -71.69,-27.618"
         style="fill:#eb5559;fill-opacity:1;fill-rule:nonzero;stroke:none"
         id="path138" /><path
         d="m 3902.91,355.379 h -75.31 l 14.27,-89.867 h 75.32 l -14.28,89.867"
         style="fill:#eb5559;fill-opacity:1;fill-rule:nonzero;stroke:none"
         id="path140" /><path
         d="m 3386.57,2155.15 c -2.15,19.01 -3.89,37.51 -5.34,55.6 v 0 c 1.48,-18.09 3.26,-36.62 5.36,-55.59 l -0.02,-0.01 m 417.63,237.15 c 1.09,17.19 2.37,34.82 3.9,52.81 0.01,0.02 0.02,0.03 0.03,0.05 -0.72,-8.49 -1.38,-16.89 -1.98,-25.19 -0.72,-9.35 -1.37,-18.57 -1.95,-27.67"
         style="fill:#cecdcc;fill-opacity:1;fill-rule:nonzero;stroke:none"
         id="path142" /><path
         d="m 3386.59,2155.16 c -2.1,18.97 -3.88,37.5 -5.35,55.6 l 47.87,33.11 c 1.15,-9.65 3.25,-18.48 6.21,-22.51 89.71,16.31 262.3,82.66 298.29,116.38 25.71,24.09 51.37,63.96 74.49,107.37 -1.53,-17.99 -2.81,-35.62 -3.9,-52.81 -1.25,-19.39 -2.21,-38.2 -2.98,-56.39 -27.74,-40.18 -68.44,-69.57 -115.19,-83.55 l -299.44,-97.2"
         style="fill:#244ca5;fill-opacity:1;fill-rule:nonzero;stroke:none"
         id="path144" /><path
         d="m 3478.99,2538.74 -10.19,1.21 c 5.95,49.9 43.19,89.34 82.55,88.41 l -0.31,-10.28 c -33.97,0.97 -66.7,-34.59 -72.05,-79.34"
         style="fill:#ffffff;fill-opacity:1;fill-rule:nonzero;stroke:none"
         id="path146" /><path
         d="m 3532.28,2446.4 -1.68,0.02 0.29,10.28 c 34.39,-1.26 66.7,34.58 72.05,79.33 l 10.19,-1.21 c -5.85,-49.19 -41.93,-88.42 -80.85,-88.42"
         style="fill:#ffffff;fill-opacity:1;fill-rule:nonzero;stroke:none"
         id="path148" /><path
         d="m 3719.18,2960.64 c -14.03,-55.08 -30.72,-156 5.65,-192.75 0,0 -25.41,-55.87 -127.75,-55.87 -93.53,0 -43.43,55.86 -43.43,55.86 62.29,14.67 63.37,60.24 55.18,103.04 l 110.35,89.72"
         style="fill:#f47372;fill-opacity:1;fill-rule:nonzero;stroke:none"
         id="path150" /><path
         d="m 3674.19,2924.04 -65.31,-53.08 c 1.97,-10.12 3.37,-20.39 3.49,-30.38 19.09,-19.01 57.42,29.15 61.34,53.72 1.96,12.25 2.14,24.03 0.48,29.74"
         style="fill:#eb5559;fill-opacity:1;fill-rule:nonzero;stroke:none"
         id="path152" /><path
         d="m 3496.64,2961.32 c 9.57,-17.14 26.46,-27.8 42.42,-31.36 24.02,-5.34 36.08,16.75 29.46,38.97 -5.96,20.01 -25.63,46.9 -49.76,42.29 -23.77,-4.54 -33.07,-30.29 -22.12,-49.9"
         style="fill:#eb5559;fill-opacity:1;fill-rule:nonzero;stroke:none"
         id="path154" /><path
         d="m 3536.26,3137.61 c -37.4,-17.13 -50.58,-165.71 -3.55,-187.67 47.01,-21.97 74.4,220.13 3.55,187.67"
         style="fill:#1d2a30;fill-opacity:1;fill-rule:nonzero;stroke:none"
         id="path156" /><path
         d="m 3730.59,3043.53 c -8.95,-74.58 -10.41,-118.47 -50.33,-156.74 -60.04,-57.58 -150.09,-23.43 -163.52,51.01 -12.09,67.02 4.58,177.72 79.32,207.41 73.64,29.24 143.48,-27.09 134.53,-101.68"
         style="fill:#f47372;fill-opacity:1;fill-rule:nonzero;stroke:none"
         id="path158" /><path
         d="m 3607.73,3098.96 c 55.33,14.16 96.04,23.79 81.51,-22.38 -19.36,-61.52 -42.57,-121.12 -11.43,-123.9 18.94,-1.68 102.95,33.96 92.29,70.01 -9.3,31.39 29.75,39.86 36.95,55.88 25.94,57.66 -48.16,50.16 -34.97,85.06 12.84,33.97 -59.69,91.38 -99.87,63.33 -65.06,-45.41 -176.86,-44.76 -118.08,29.72 42.09,53.35 -33.02,42.39 -33.02,42.39 0,0 45.37,-26.9 -30.98,-68.5 -80.94,-44.11 -6.85,-163.44 117.6,-131.61"
         style="fill:#1d2a30;fill-opacity:1;fill-rule:nonzero;stroke:none"
         id="path160" /><path
         d="m 3759.45,2961.32 c -11.58,-17.14 -29.71,-27.8 -46.1,-31.36 -24.63,-5.34 -34.11,16.75 -24.88,38.97 8.3,20.01 31.13,46.9 54.71,42.29 23.24,-4.54 29.53,-30.29 16.27,-49.9"
         style="fill:#f47372;fill-opacity:1;fill-rule:nonzero;stroke:none"
         id="path162" /><path
         d="m 3394,2096.22 c 0,0 -67.58,-604.97 -72.86,-834.57 -5.49,-238.82 229.08,-983.939 229.08,-983.939 l 120.11,50.437 c 0,0 -139.85,680.732 -120.43,915.272 21.18,255.69 108.82,852.8 108.82,852.8 H 3394"
         style="fill:#4870c0;fill-opacity:1;fill-rule:nonzero;stroke:none"
         id="path164" /><path
         d="m 3573.6,1466.24 c -27.64,124.09 -61.64,328.94 -19.41,445.24 9.27,-95.9 21.31,-216.39 33.78,-329.57 -5.01,-39.18 -9.86,-78.08 -14.37,-115.67"
         style="fill:#395eb4;fill-opacity:1;fill-rule:nonzero;stroke:none"
         id="path166" /><path
         d="m 3664.9,367.359 14.24,-38.277 -138.44,-58.133 -21.81,40.563 146.01,55.847"
         style="fill:#4870c0;fill-opacity:1;fill-rule:nonzero;stroke:none"
         id="path168" /><path
         d="m 3536.86,2096.22 c 0,0 51.71,-575.38 85.98,-790.95 37.53,-236.05 184.95,-1022.36 184.95,-1022.36 h 137.9 c 0,0 -82.62,767.26 -98.23,1000.97 -16.94,253.66 -50.75,812.34 -50.75,812.34 h -259.85"
         style="fill:#4870c0;fill-opacity:1;fill-rule:nonzero;stroke:none"
         id="path170" /><path
         d="m 3947.8,318.852 4.61,-38.543 h -151.57 l -10.82,44.25 157.78,-5.707"
         style="fill:#4870c0;fill-opacity:1;fill-rule:nonzero;stroke:none"
         id="path172" /><path
         d="m 3894.97,364.398 -1.27,1.141 c -0.75,6.973 -75.26,699.671 -89.29,909.651 -15.21,227.87 -45.8,733.12 -46.11,738.19 l 1.2,1.37 h 0.09 l 1.28,-1.21 c 0.3,-5.08 30.89,-510.33 46.11,-738.18 14.02,-209.93 88.52,-902.579 89.27,-909.551 l -1.13,-1.399 -0.15,-0.012"
         style="fill:#395eb4;fill-opacity:1;fill-rule:nonzero;stroke:none"
         id="path174" /><path
         d="m 3616.24,3022.69 c -0.35,-6.08 -3.87,-11 -7.83,-11 -3.97,0 -6.9,4.92 -6.54,11 0.35,6.07 3.86,10.99 7.83,10.99 3.97,0 6.9,-4.92 6.54,-10.99"
         style="fill:#1d2a30;fill-opacity:1;fill-rule:nonzero;stroke:none"
         id="path176" /><path
         d="m 3547.6,3022.69 c -0.35,-6.08 -3.86,-11 -7.83,-11 -3.97,0 -6.9,4.92 -6.55,11 0.36,6.07 3.87,10.99 7.83,10.99 3.98,0 6.91,-4.92 6.55,-10.99"
         style="fill:#1d2a30;fill-opacity:1;fill-rule:nonzero;stroke:none"
         id="path178" /><path
         d="m 3569.25,3019.66 c 0,0 -15.87,-35.03 -32.06,-51.93 10.15,-10.03 28.69,-5.45 28.69,-5.45 l 3.37,57.38"
         style="fill:#f03e4c;fill-opacity:1;fill-rule:nonzero;stroke:none"
         id="path180" /><path
         d="m 3570.99,2936.81 c -0.98,0 -1.74,0.8 -1.68,1.78 0.06,0.99 0.9,1.79 1.89,1.79 26.65,0 40.19,18.62 40.32,18.8 l 2.5,0.52 0.37,-2.47 c -0.59,-0.83 -14.83,-20.42 -43.4,-20.42"
         style="fill:#1d2a30;fill-opacity:1;fill-rule:nonzero;stroke:none"
         id="path182" /><path
         d="m 3628.45,3041.16 c -1.03,-0.4 -2.2,-0.34 -3.15,0.27 -13.12,8.25 -25.35,2.72 -25.48,2.65 -1.68,-0.86 -3.9,-0.1 -4.65,1.67 -0.76,1.78 0.12,3.91 1.95,4.77 0.64,0.31 15.97,7.26 32.24,-3 1.63,-1.02 2.03,-3.22 0.9,-4.89 l -1.81,-1.47"
         style="fill:#1d2a30;fill-opacity:1;fill-rule:nonzero;stroke:none"
         id="path184" /><path
         d="m 3521.06,3061.11 -1.36,0.76 c -1.39,1.31 -1.4,3.56 0,5.04 13.96,14.74 30.14,12.5 30.82,12.4 1.9,-0.22 3.17,-2.1 2.76,-4.06 -0.4,-1.95 -2.28,-3.28 -4.21,-3 -0.53,0.07 -13.17,1.69 -24.32,-10.09 -0.99,-1.05 -2.45,-1.41 -3.69,-1.05"
         style="fill:#1d2a30;fill-opacity:1;fill-rule:nonzero;stroke:none"
         id="path186" /><path
         d="m 3897.29,2652.45 -104.02,27.69 c 0,0 -102.01,-251.08 -138.04,-267.47 -49.02,-22.31 -173.17,-99.48 -225.92,-136.68 -2.92,-12.43 -0.63,-45.6 6.01,-54.63 89.71,16.31 262.3,82.66 298.29,116.38 82.06,76.89 163.68,314.71 163.68,314.71"
         style="fill:#f47372;fill-opacity:1;fill-rule:nonzero;stroke:none"
         id="path188" /><path
         d="m 3814.44,192.23 c -0.93,0 -1.73,-0.148 -2.34,-0.449 -0.5,-0.261 -1.08,-0.711 -1.24,-2.09 -0.35,-2.839 0.31,-4.961 2.03,-6.48 3.91,-3.473 13.72,-3.93 26.65,-1.352 -8.21,4.922 -19.33,10.371 -25.1,10.371 z m 10.27,-15.582 c -5.73,0 -11.03,0.981 -14.27,3.832 -2.57,2.27 -3.62,5.45 -3.14,9.43 0.37,2.969 2.03,4.379 3.35,5.039 8.5,4.27 31.99,-10.64 34.64,-12.347 l 0.71,-1.821 -1.43,-1.429 c -5.3,-1.262 -12.9,-2.704 -19.86,-2.704"
         style="fill:#4870c0;fill-opacity:1;fill-rule:nonzero;stroke:none"
         id="path190" /><path
         d="m 3830.74,209.82 -0.81,-0.05 c -2.33,-0.29 -2.6,-1.36 -2.7,-1.801 -1.24,-4.957 7.62,-17.43 15.03,-23.309 -0.51,6.352 -2.17,19.012 -7.51,23.59 -1.22,1.051 -2.53,1.57 -4.01,1.57 z m 13.41,-30.519 -0.84,0.199 c -7.55,4.242 -21.64,20.742 -19.55,29.129 0.37,1.519 1.65,4.152 5.95,4.672 2.81,0.347 5.3,-0.43 7.46,-2.281 8.33,-7.149 8.86,-28.879 8.87,-29.801 l -0.9,-1.629 -0.99,-0.289"
         style="fill:#4870c0;fill-opacity:1;fill-rule:nonzero;stroke:none"
         id="path192" /><path
         d="m 3542.91,200.969 c -1.36,-0.328 -2.44,-0.797 -3.15,-1.43 -0.63,-0.559 -0.86,-1.199 -0.77,-2.117 0.27,-2.383 1.3,-4.043 3.17,-5.063 5.31,-2.89 17.64,-0.597 33.51,6.039 -11.16,2.332 -25.74,4.282 -32.76,2.571 z m 16.26,-11.887 c -7.36,-1.773 -14.38,-2.301 -18.86,0.129 -2.85,1.539 -4.49,4.121 -4.86,7.641 -0.24,2.089 0.47,3.918 2.03,5.289 8.06,7.179 40.67,-0.532 44.38,-1.442 l 1.26,-1.551 -1.13,-1.808 c -6.05,-2.75 -14.65,-6.27 -22.82,-8.258"
         style="fill:#4870c0;fill-opacity:1;fill-rule:nonzero;stroke:none"
         id="path194" /><path
         d="m 3558.02,222.492 -1.05,-0.312 c -3.1,-1.09 -3.07,-2.348 -3.06,-2.77 0.11,-5.172 14.49,-14.66 24.63,-17.871 -2.02,5.52 -6.88,16.66 -14,20.172 -2.15,1.059 -4.3,1.328 -6.52,0.781 z m 23.64,-25.254 -0.75,-0.027 c -9.69,1.789 -30.38,13.301 -30.58,21.91 -0.05,2.008 0.9,4.77 5.64,6.41 3.43,1.289 6.98,1.028 10.3,-0.601 10.86,-5.36 16.54,-24.559 16.79,-25.379 l -0.44,-1.742 -0.96,-0.571"
         style="fill:#4870c0;fill-opacity:1;fill-rule:nonzero;stroke:none"
         id="path196" /><path
         d="m 3437.78,2281.89 -104.27,-48 -12.1,-29.43 38.53,-25.92 c 0,0 71.93,7.82 92.41,54.04 l -14.57,49.31"
         style="fill:#f47372;fill-opacity:1;fill-rule:nonzero;stroke:none"
         id="path198" /><path
         d="m 3442.22,2219.66 c -6.53,38.73 -19.26,56.41 -19.38,56.59 l 16.44,12.32 c 0.64,-0.84 15.76,-21.25 23.21,-65.5 l -20.27,-3.41"
         style="fill:#1d2a30;fill-opacity:1;fill-rule:nonzero;stroke:none"
         id="path200" /><path
         d="m 3459.98,2267.71 c 3.38,-8.37 -2.05,-18.45 -12.14,-22.53 -10.09,-4.08 -21,-0.6 -24.38,7.77 -3.38,8.36 2.05,18.45 12.14,22.52 10.08,4.08 21,0.61 24.38,-7.76"
         style="fill:#1d2a30;fill-opacity:1;fill-rule:nonzero;stroke:none"
         id="path202" /><path
         d="m 3263.04,2195.13 13.85,-14.03 93.57,40.02 -36.95,12.77 -70.47,-38.76"
         style="fill:#f47372;fill-opacity:1;fill-rule:nonzero;stroke:none"
         id="path204" /><path
         d="m 3540.7,270.949 -21.81,40.563 146.01,55.847 14.24,-38.277 -34.49,-14.48 -70.86,-29.762 h -0.01 l -33.08,-13.891"
         style="fill:#395eb4;fill-opacity:1;fill-rule:nonzero;stroke:none"
         id="path206" /><path
         d="m 3952.41,280.309 h -151.57 l -10.82,44.25 157.78,-5.707 4.61,-38.543"
         style="fill:#395eb4;fill-opacity:1;fill-rule:nonzero;stroke:none"
         id="path208" /><path
         d="m 3924.41,2681.22 c 27.52,-88.67 -79.6,-209.8 -79.6,-209.8 l -148.47,60.6 c 0,0 20.93,64.42 60.73,150.72 45.25,98.1 139.57,87.97 167.34,-1.52"
         style="fill:#4870c0;fill-opacity:1;fill-rule:nonzero;stroke:none"
         id="path210" /><path
         d="m 3844.81,2471.42 -19.31,7.88 -102.58,41.87 -26.58,10.85 c 0,0 20.93,64.42 60.73,150.72 21.93,47.53 55.37,69.66 87.18,69.66 33.85,0 65.85,-25.04 80.16,-71.18 3.15,-10.13 4.54,-20.68 4.52,-31.43 -0.08,-83.34 -84.12,-178.37 -84.12,-178.37"
         style="fill:#395eb4;fill-opacity:1;fill-rule:nonzero;stroke:none"
         id="path212" /><path
         d="m 2448.75,3559.64 h -63.88 v 10.28 h 63.88 v -10.28"
         style="fill:#4870c0;fill-opacity:1;fill-rule:nonzero;stroke:none"
         id="path214" /><path
         d="m 3278.56,2990.22 -10.25,0.46 7.67,171.6 10.25,-0.47 -7.67,-171.59"
         style="fill:#4870c0;fill-opacity:1;fill-rule:nonzero;stroke:none"
         id="path216" /><path
         d="M 3256.12,3523.68 H 2076.14 L 1966.29,1066.49 h 1179.99 l 109.84,2457.19"
         style="fill:#4870c0;fill-opacity:1;fill-rule:nonzero;stroke:none"
         id="path218" /><path
         d="m 3111.05,1032.76 h -33.71 l 1.5,33.73 h 33.72 l -1.51,-33.73 M 2073.12,3456.24 h -33.71 l 1.5,33.72 h 33.72 l -1.51,-33.72"
         style="fill:#feffff;fill-opacity:1;fill-rule:nonzero;stroke:none"
         id="path220" /><path
         d="m 3112.56,1066.49 h -33.72 l 106.83,2389.75 H 2073.12 l 1.51,33.72 H 3220.9 L 3112.56,1066.49"
         style="fill:#a9c2e9;fill-opacity:1;fill-rule:nonzero;stroke:none"
         id="path222" /><path
         d="m 3075.83,999.051 h -401.84 v 33.709 h 403.35 l -1.51,-33.709"
         style="fill:#f5f8fd;fill-opacity:1;fill-rule:nonzero;stroke:none"
         id="path224" /><path
         d="m 2673.99,999.051 h -32.4 v 16.689 H 1912.9 c 5,11.98 9.55,23.83 13.56,35.43 h 5.43 l -0.82,-18.41 h 742.92 v -33.709 m -36.26,0 h -732.05 c 1.92,4.289 3.78,8.569 5.59,12.829 h 726.46 v -12.829 m -705.67,55.989 h -4.28 c 1.77,5.27 3.44,10.52 4.99,15.7 l -0.71,-15.7"
         style="fill:#f0f5fc;fill-opacity:1;fill-rule:nonzero;stroke:none"
         id="path226" /><path
         d="m 1931.89,1051.17 h -5.43 c 0.45,1.3 0.88,2.57 1.32,3.87 h 4.28 l -0.17,-3.87"
         style="fill:#d7dce6;fill-opacity:1;fill-rule:nonzero;stroke:none"
         id="path228" /><path
         d="m 2641.59,999.051 h -3.86 v 12.829 h -726.46 c 0.55,1.3 1.09,2.57 1.63,3.86 h 728.69 v -16.689"
         style="fill:#d7dce6;fill-opacity:1;fill-rule:nonzero;stroke:none"
         id="path230" /><path
         d="m 1943.28,1305.84 h -29.19 c -1.31,3.74 -2.65,7.47 -4.03,11.22 l 95.63,2139.18 h 33.72 l -96.13,-2150.4"
         style="fill:#f5f8fd;fill-opacity:1;fill-rule:nonzero;stroke:none"
         id="path232" /><path
         d="m 1939.24,1215.51 c -3.21,16.59 -7.42,33.64 -12.49,51.03 h 14.77 l -2.28,-51.03 m 2.45,54.9 h -16.07 c -3.48,11.68 -7.34,23.51 -11.53,35.43 h 29.19 l -1.59,-35.43"
         style="fill:#f0f5fc;fill-opacity:1;fill-rule:nonzero;stroke:none"
         id="path234" /><path
         d="m 1941.52,1266.54 h -14.77 c -0.37,1.29 -0.75,2.58 -1.13,3.87 h 16.07 l -0.17,-3.87"
         style="fill:#d7dce6;fill-opacity:1;fill-rule:nonzero;stroke:none"
         id="path236" /><path
         d="m 3077.34,1032.76 h -403.35 v 33.73 h 404.85 l -1.5,-33.73 m -1100.35,273.08 h -33.71 l 96.13,2150.4 h 33.71 l -90.44,-2023.27 h -26.01 c 0,-22.96 8.45,-44.56 23.18,-63.21 l -2.86,-63.92"
         style="fill:#f2f6fc;fill-opacity:1;fill-rule:nonzero;stroke:none"
         id="path238" /><path
         d="m 2673.99,1032.76 h -742.92 l 0.82,18.41 h 709.7 v 15.32 h 32.4 v -33.73 m -36.26,22.28 h -705.67 l 0.71,15.7 c 8.62,28.9 13.52,56.18 13.5,80.82 0,2.1 -0.04,4.17 -0.11,6.22 -0.66,18.38 -3.06,37.72 -6.92,57.73 l 2.28,51.03 h 33.72 l -8.95,-200.05 h 671.44 v -11.45 m -662.32,215.37 h -33.72 l 1.59,35.43 h 33.71 l -1.58,-35.43"
         style="fill:#f0f5fc;fill-opacity:1;fill-rule:nonzero;stroke:none"
         id="path240" /><path
         d="m 2641.59,1051.17 h -709.7 l 0.17,3.87 h 705.67 v 11.45 h 3.86 v -15.32 m -666.35,215.37 h -33.72 l 0.17,3.87 h 33.72 l -0.17,-3.87"
         style="fill:#e5eaf4;fill-opacity:1;fill-rule:nonzero;stroke:none"
         id="path242" /><path
         d="m 1979.85,1369.76 c -14.73,18.65 -23.18,40.25 -23.18,63.21 h 26.01 l -2.83,-63.21"
         style="fill:#e5eaf4;fill-opacity:1;fill-rule:nonzero;stroke:none"
         id="path244" /><path
         d="M 3078.84,1066.49 H 1966.29 l 8.95,200.05 0.17,3.87 1.58,35.43 2.86,63.92 2.83,63.21 90.44,2023.27 H 3185.67 L 3078.84,1066.49 m -912.15,368.76 -10.07,-225.39 h 677.29 l 10.07,225.39 h -677.29 m 194.29,1406.04 v 0 c 43.68,-64.03 117.25,-105.65 202.44,-105.65 85.18,0 162.58,41.62 211.99,105.65 v 0 0 0 0 c 32.71,42.23 53.13,94.23 55.64,150.54 6.33,141.5 -103.23,256.18 -244.73,256.18 -141.4,0 -261.2,-114.68 -267.53,-256.18 -2.52,-56.31 13.25,-108.31 42.19,-150.54 v 0 0 0"
         style="fill:#a2bce6;fill-opacity:1;fill-rule:nonzero;stroke:none"
         id="path246" /><path
         d="M 3051.36,2384.56 H 2044.18 l -8.4,-188.07 h 1007.18 l 8.4,188.07"
         style="fill:#ffffff;fill-opacity:1;fill-rule:nonzero;stroke:none"
         id="path248" /><path
         d="m 2598.14,2521.71 h -547.82 l -3.76,-84.14 h 547.82 l 3.76,84.14"
         style="fill:#4870c0;fill-opacity:1;fill-rule:nonzero;stroke:none"
         id="path250" /><path
         d="M 3028.68,1877.12 H 2021.5 l -8.4,-188.06 h 1007.17 l 8.41,188.06"
         style="fill:#ffffff;fill-opacity:1;fill-rule:nonzero;stroke:none"
         id="path252" /><path
         d="m 2833.91,1209.86 h -677.29 l 10.07,225.39 h 677.29 l -10.07,-225.39"
         style="fill:#7195d5;fill-opacity:1;fill-rule:nonzero;stroke:none"
         id="path254" /><path
         d="m 2122.64,1177.33 h 674.9 l 9.97,223.01 H 2132.6 Z m 676.04,-2.38 H 2121.4 l -0.87,0.37 -0.32,0.87 10.08,225.4 1.18,1.15 h 677.28 l 0.87,-0.38 0.31,-0.87 -10.07,-225.4 -1.18,-1.14"
         style="fill:#ffffff;fill-opacity:1;fill-rule:nonzero;stroke:none"
         id="path256" /><path
         d="m 2479.78,2014.28 h -452.15 l -3.76,-84.14 h 452.15 l 3.76,84.14"
         style="fill:#4870c0;fill-opacity:1;fill-rule:nonzero;stroke:none"
         id="path258" /><path
         d="m 2831.05,2991.83 c -2.51,-56.31 -22.93,-108.31 -55.64,-150.54 -49.41,-64.03 -126.81,-105.65 -211.99,-105.65 -85.19,0 -158.76,41.62 -202.44,105.65 -28.94,42.23 -44.71,94.23 -42.19,150.54 6.33,141.5 126.13,256.18 267.53,256.18 141.5,0 251.06,-114.68 244.73,-256.18"
         style="fill:#ffffff;fill-opacity:1;fill-rule:nonzero;stroke:none"
         id="path260" /><path
         d="m 2855.16,3194.39 c -0.68,-14.96 -6.1,-28.78 -14.8,-40 -13.12,-17.01 -33.69,-28.08 -56.33,-28.08 -22.63,0 -42.17,11.07 -53.79,28.08 -7.68,11.22 -11.87,25.04 -11.21,40 1.68,37.6 33.52,68.07 71.1,68.07 37.59,0 66.71,-30.47 65.03,-68.07"
         style="fill:#4870c0;fill-opacity:1;fill-rule:nonzero;stroke:none"
         id="path262" /><path
         d="m 2152.65,2290.53 c -0.74,-16.65 -14.84,-30.14 -31.48,-30.14 -16.64,0 -29.53,13.49 -28.79,30.14 0.75,16.64 14.84,30.13 31.49,30.13 16.64,0 29.52,-13.49 28.78,-30.13"
         style="fill:#1d2a30;fill-opacity:1;fill-rule:nonzero;stroke:none"
         id="path264" /><path
         d="m 2287.52,2290.53 c -0.74,-16.65 -14.83,-30.14 -31.48,-30.14 -16.64,0 -29.53,13.49 -28.78,30.14 0.74,16.64 14.83,30.13 31.48,30.13 16.64,0 29.53,-13.49 28.78,-30.13"
         style="fill:#1d2a30;fill-opacity:1;fill-rule:nonzero;stroke:none"
         id="path266" /><path
         d="m 2422.4,2290.53 c -0.74,-16.65 -14.84,-30.14 -31.48,-30.14 -16.65,0 -29.53,13.49 -28.79,30.14 0.74,16.64 14.84,30.13 31.48,30.13 16.64,0 29.53,-13.49 28.79,-30.13"
         style="fill:#1d2a30;fill-opacity:1;fill-rule:nonzero;stroke:none"
         id="path268" /><path
         d="m 2129.97,1783.09 c -0.75,-16.64 -14.84,-30.13 -31.48,-30.13 -16.64,0 -29.53,13.49 -28.79,30.13 0.74,16.65 14.84,30.14 31.48,30.14 16.64,0 29.53,-13.49 28.79,-30.14"
         style="fill:#1d2a30;fill-opacity:1;fill-rule:nonzero;stroke:none"
         id="path270" /><path
         d="m 2264.84,1783.09 c -0.74,-16.64 -14.84,-30.13 -31.48,-30.13 -16.65,0 -29.53,13.49 -28.79,30.13 0.75,16.65 14.84,30.14 31.48,30.14 16.65,0 29.54,-13.49 28.79,-30.14"
         style="fill:#1d2a30;fill-opacity:1;fill-rule:nonzero;stroke:none"
         id="path272" /><path
         d="m 2399.71,1783.09 c -0.74,-16.64 -14.84,-30.13 -31.48,-30.13 -16.64,0 -29.53,13.49 -28.79,30.13 0.75,16.65 14.84,30.14 31.49,30.14 16.64,0 29.53,-13.49 28.78,-30.14"
         style="fill:#1d2a30;fill-opacity:1;fill-rule:nonzero;stroke:none"
         id="path274" /><path
         d="m 2534.59,1783.09 c -0.75,-16.64 -14.84,-30.13 -31.48,-30.13 -16.65,0 -29.54,13.49 -28.79,30.13 0.74,16.65 14.84,30.14 31.48,30.14 16.64,0 29.53,-13.49 28.79,-30.14"
         style="fill:#1d2a30;fill-opacity:1;fill-rule:nonzero;stroke:none"
         id="path276" /><path
         d="m 2669.45,1783.09 c -0.74,-16.64 -14.83,-30.13 -31.47,-30.13 -16.64,0 -29.53,13.49 -28.79,30.13 0.74,16.65 14.83,30.14 31.48,30.14 16.64,0 29.54,-13.49 28.78,-30.14"
         style="fill:#1d2a30;fill-opacity:1;fill-rule:nonzero;stroke:none"
         id="path278" /><path
         d="m 2682.36,3077.46 c -2.56,-57.23 -51.02,-103.62 -108.24,-103.62 -57.23,0 -101.54,46.39 -98.98,103.62 2.56,57.22 51.01,103.61 108.24,103.61 57.23,0 101.54,-46.39 98.98,-103.61"
         style="fill:#4870c0;fill-opacity:1;fill-rule:nonzero;stroke:none"
         id="path280" /><path
         d="m 2775.41,2841.29 c -49.41,-64.03 -126.81,-105.65 -211.99,-105.65 -85.19,0 -158.76,41.62 -202.44,105.65 48.6,48.39 125.54,79.84 210.73,79.84 85.29,0 159.41,-31.45 203.7,-79.84"
         style="fill:#4870c0;fill-opacity:1;fill-rule:nonzero;stroke:none"
         id="path282" /><path
         d="m 2574.12,2973.84 c -55.66,0 -99.11,43.89 -99.09,98.95 0,1.55 0.04,3.1 0.11,4.67 2.56,57.22 51.01,103.61 108.24,103.61 55.66,0 99.11,-43.89 99.09,-98.94 0,-1.55 -0.04,-3.11 -0.11,-4.67 -2.56,-57.23 -51.02,-103.62 -108.24,-103.62"
         style="fill:#537bc6;fill-opacity:1;fill-rule:nonzero;stroke:none"
         id="path284" /><path
         d="m 2563.42,2735.64 c -85.19,0 -158.76,41.62 -202.44,105.65 48.6,48.39 125.54,79.84 210.73,79.84 85.29,0 159.41,-31.45 203.7,-79.84 -49.41,-64.03 -126.81,-105.65 -211.99,-105.65"
         style="fill:#537bc6;fill-opacity:1;fill-rule:nonzero;stroke:none"
         id="path286" /><path
         d="m 1304.08,2151.19 c -9.48,-20.77 -19.44,-43.63 -28.2,-65.92 -8.82,-22.5 -17.62,-45.02 -25.28,-67.85 -14.91,-45.68 -28.88,-91.78 -35.75,-138 l -2.28,-14.73 c -0.18,-1.77 -0.05,-4.29 0.73,-7.45 1.47,-6.36 5.43,-14.85 10.99,-23.2 11.26,-16.86 27.22,-33.95 44.43,-49.81 17.17,-16.11 35.82,-31.51 55.2,-46.15 19.19,-14.76 39.43,-29.21 59.23,-42.75 l -18.63,-35.08 c -47.58,20.79 -91.89,45.67 -134.81,76.87 -21.1,16.08 -41.94,33.4 -60.4,56.79 -9.1,11.8 -18.04,25.13 -23.91,42.73 -2.84,8.78 -4.81,18.71 -4.82,29.44 0.06,2.48 0.2,5.94 0.37,7.61 l 0.5,4.96 0.99,9.94 c 5.44,53.01 17.18,103.96 32.65,153.38 7.8,24.68 16.13,49.1 25.63,73.08 9.7,24.14 19.27,47.3 31.39,71.58 l 71.97,-35.44"
         style="fill:#f47372;fill-opacity:1;fill-rule:nonzero;stroke:none"
         id="path288" /><path
         d="m 1369.14,1701.29 70.66,35.85 -18.26,-77.67 c 0,0 -48.52,-13.54 -71.08,10 l 18.68,31.82"
         style="fill:#f47372;fill-opacity:1;fill-rule:nonzero;stroke:none"
         id="path290" /><path
         d="m 1504.51,1724.4 -18.8,-64.2 -64.17,-0.73 18.26,77.67 64.71,-12.74"
         style="fill:#f47372;fill-opacity:1;fill-rule:nonzero;stroke:none"
         id="path292" /><path
         d="m 1604.33,2525.6 c 0,0 6.13,-22.54 15.85,-39.53 -8.36,-7.8 -15.85,-5.09 -15.85,-5.09 v 44.62"
         style="fill:#f03e4c;fill-opacity:1;fill-rule:nonzero;stroke:none"
         id="path294" /><path
         d="m 1594.74,2536.48 c 0,-6.33 3.36,-11.46 7.49,-11.46 4.14,0 7.49,5.13 7.49,11.46 0,6.32 -3.35,11.46 -7.49,11.46 -4.13,0 -7.49,-5.14 -7.49,-11.46"
         style="fill:#1d2a30;fill-opacity:1;fill-rule:nonzero;stroke:none"
         id="path296" /><path
         d="m 1600.41,2547.58 15.2,4.38 c 0,0 -7.81,-11.87 -15.2,-4.38"
         style="fill:#1d2a30;fill-opacity:1;fill-rule:nonzero;stroke:none"
         id="path298" /><path
         d="m 1408.97,2452.26 c 9.13,-46.56 18.23,-131.85 -14.34,-162.92 0,0 12.73,-47.22 99.23,-47.22 95.12,0 45.46,47.22 45.46,47.22 -51.91,12.39 -50.57,50.91 -41.53,87.08 l -88.82,75.84"
         style="fill:#f47372;fill-opacity:1;fill-rule:nonzero;stroke:none"
         id="path300" /><path
         d="m 1383.73,2558.2 c 4.77,-77.72 5.13,-110.71 44.38,-150.6 59.04,-60.01 153.45,-37.15 172,40.43 16.69,69.82 6.08,185.18 -69.99,216.12 -74.95,30.47 -151.16,-28.24 -146.39,-105.95"
         style="fill:#f47372;fill-opacity:1;fill-rule:nonzero;stroke:none"
         id="path302" /><path
         d="m 1391.39,2646.13 c -38.97,-14.21 -90.97,-3.63 -70.56,-123.92 21.6,-127.37 -11.65,-169.27 -11.65,-169.27 0,0 147.91,-31.51 298.92,1.89 0,0 -46.1,80.62 -33.17,139.44 16.5,75.04 3.42,102.77 3.42,102.77 0,0 -132.15,69.07 -186.96,49.09"
         style="fill:#1d2a30;fill-opacity:1;fill-rule:nonzero;stroke:none"
         id="path304" /><path
         d="m 1556.4,2517.69 c -0.16,-15.4 5.24,-30.91 12.24,-41.68 10.54,-16.21 23.03,-9.61 26.16,7.21 2.82,15.15 0.73,41.82 -12.76,52.17 -13.29,10.19 -25.45,-0.09 -25.64,-17.7"
         style="fill:#f47372;fill-opacity:1;fill-rule:nonzero;stroke:none"
         id="path306" /><path
         d="m 1357.54,2632.53 c -11.25,31.45 42.19,79.82 155.17,59.7 112.97,-20.11 117.93,-114.08 117.93,-114.08 l -22.86,27.13 1.02,-28.57 -116.1,-22.31 -135.16,78.13"
         style="fill:#1d2a30;fill-opacity:1;fill-rule:nonzero;stroke:none"
         id="path308" /><path
         d="m 1367.11,2284.06 c -1.55,9.6 4.9,18.66 14.51,20.24 35.18,5.81 115.14,17.58 155.39,12 29.89,-4.15 37.8,-21.61 39.07,-35.88 0.93,-10.59 -7.82,-19.52 -18.44,-19.04 l -173.89,7.86 c -8.35,0.37 -15.3,6.56 -16.64,14.82"
         style="fill:#4870c0;fill-opacity:1;fill-rule:nonzero;stroke:none"
         id="path310" /><path
         d="m 1575.39,2285.28 c -11.96,1.56 -24.17,2.97 -36.07,4.06 -20.77,1.89 -40.92,2.62 -61.54,2.62 -26.19,0 -53.15,-1.17 -83.15,-2.62 -9.33,-0.45 -18.64,-1.11 -27.74,-1.91 0.24,8.27 6.26,15.47 14.73,16.87 28.73,4.74 87.31,13.46 129.75,13.46 9.54,0 18.25,-0.44 25.64,-1.46 26.57,-3.69 35.77,-17.89 38.38,-31.02"
         style="fill:#223263;fill-opacity:1;fill-rule:nonzero;stroke:none"
         id="path312" /><path
         d="m 1467.6,537 64.45,-44.738 107.92,146.258 -64.45,44.73 L 1467.6,537"
         style="fill:#f47372;fill-opacity:1;fill-rule:nonzero;stroke:none"
         id="path314" /><path
         d="m 1317.15,539.949 68.18,-38.82 95.51,154.68 -68.17,38.832 -95.52,-154.692"
         style="fill:#f47372;fill-opacity:1;fill-rule:nonzero;stroke:none"
         id="path316" /><path
         d="m 1639.92,638.48 -55.61,-75.39 -64.47,44.75 55.61,75.398 64.47,-44.758"
         style="fill:#eb5559;fill-opacity:1;fill-rule:nonzero;stroke:none"
         id="path318" /><path
         d="m 1412.63,694.602 68.2,-38.84 -49.27,-79.703 -68.2,38.832 49.27,79.711"
         style="fill:#eb5559;fill-opacity:1;fill-rule:nonzero;stroke:none"
         id="path320" /><path
         d="m 1521.98,1795.73 c 0,0 251.8,-317.35 204.56,-620.82 -38.15,-245.109 -259.12,-577.031 -259.12,-577.031 l -103.9,51.641 c 0,0 112.89,220.582 187.01,454.42 31.09,98.05 17.83,206.09 -40.28,290.97 -127.55,186.3 -331.9,75.45 -194.44,400.82 h 206.17"
         style="fill:#4870c0;fill-opacity:1;fill-rule:nonzero;stroke:none"
         id="path322" /><path
         d="m 1467.42,597.879 -17.11,8.5 -66.19,32.902 v 52.11 c 36.01,74.879 111.75,240.109 166.41,412.549 10.87,34.28 16.32,69.78 16.32,105.08 0.01,39.51 -6.79,78.76 -20.44,115.79 22.25,5.81 38.79,26.14 38.79,50.14 v 105.72 c 0,6.08 -1.06,11.92 -3,17.35 21.4,-29.7 42.39,-60.16 62.09,-90.69 20.83,-128.96 45.07,-278.56 55.46,-342.68 4.59,14.39 8.77,28.71 12.5,42.87 -0.65,-2.48 -1.32,-4.99 -2,-7.48 -1.25,-4.57 -2.53,-9.13 -3.86,-13.72 -9.07,-31.27 -20.1,-63.08 -32.4,-94.718 -38.27,-98.473 -88.8,-195.211 -130.29,-268.141 -1.53,-2.699 -3.05,-5.352 -4.55,-7.981 -12.05,-21.011 -23.23,-39.859 -33.02,-56.011 -0.94,-1.539 -1.87,-3.071 -2.77,-4.559 -21.78,-35.75 -35.94,-57.031 -35.94,-57.031 m 97.49,923.841 c -8.74,6.74 -19.68,10.76 -31.51,10.76 h -203.44 c -35.49,21.29 -59.86,45.78 -59.86,96.69 0,35.38 11.78,83.55 39.78,152.27 h 42.61 c 33.09,-36.75 124.19,-140.08 212.42,-259.72"
         style="fill:#223263;fill-opacity:1;fill-rule:nonzero;stroke:none"
         id="path324" /><path
         d="m 1712.25,1107.52 c 6.03,22.96 10.89,45.52 14.29,67.39 3.77,24.17 5.63,48.45 5.88,72.63 0.01,-0.02 0.01,-0.03 0.02,-0.05 -0.25,-24.17 -2.11,-48.42 -5.87,-72.58 -3.43,-21.86 -8.28,-44.43 -14.32,-67.39"
         style="fill:#939493;fill-opacity:1;fill-rule:nonzero;stroke:none"
         id="path326" /><path
         d="m 1699.75,1064.65 c -10.39,64.12 -34.63,213.72 -55.46,342.68 35.19,-54.51 66.25,-109.17 88.13,-159.79 -0.25,-24.18 -2.11,-48.46 -5.88,-72.63 -3.4,-21.87 -8.26,-44.43 -14.29,-67.39 -3.73,-14.16 -7.91,-28.48 -12.5,-42.87"
         style="fill:#131d35;fill-opacity:1;fill-rule:nonzero;stroke:none"
         id="path328" /><path
         d="m 1634.44,1795.73 c 0,0 303.19,-398.8 311.72,-637.95 C 1953.3,957.398 1615.9,570.332 1615.9,570.332 l -97.95,63.367 c 0,0 197.29,275.18 246.96,500.111 -18.94,222.65 -425.42,661.92 -425.42,661.92 h 294.95"
         style="fill:#4870c0;fill-opacity:1;fill-rule:nonzero;stroke:none"
         id="path330" /><path
         d="m 1615.9,570.332 -17.77,11.5 -65.99,42.688 -14.19,9.179 c 0,0 197.29,275.18 246.96,500.111 v 0 0 c -2.87,33.7 -14.62,72.38 -32.49,113.73 -21.88,50.62 -52.94,105.28 -88.13,159.79 -19.7,30.53 -40.69,60.99 -62.09,90.69 -3.39,9.46 -9.46,17.67 -17.29,23.7 -88.23,119.64 -179.33,222.97 -212.42,259.72 h 283.53 c 2.87,0 5.25,1.41 5.43,3.21 l 0.15,1.49 c 45.86,-62.05 296.81,-411.09 304.56,-628.36 0.07,-2.05 0.11,-4.12 0.11,-6.22 0.02,-24.64 -4.88,-51.92 -13.5,-80.82 -1.55,-5.18 -3.22,-10.43 -4.99,-15.7 -0.44,-1.3 -0.87,-2.57 -1.32,-3.87 -4.01,-11.6 -8.56,-23.45 -13.56,-35.43 -0.54,-1.29 -1.08,-2.56 -1.63,-3.86 -1.81,-4.26 -3.67,-8.54 -5.59,-12.829 -29.38,-65.75 -71.31,-135.242 -114.18,-198.692 -0.88,-1.289 -1.74,-2.57 -2.61,-3.847 -8.19,-12.063 -16.42,-23.91 -24.57,-35.453 -0.91,-1.289 -1.82,-2.571 -2.73,-3.848 -17.69,-24.91 -35.08,-48.41 -51.34,-69.77 -1.3,-1.703 -2.58,-3.39 -3.86,-5.062 -11.52,-15.059 -22.41,-28.988 -32.4,-41.559 -34.53,-43.461 -58.09,-70.488 -58.09,-70.488"
         style="fill:#223263;fill-opacity:1;fill-rule:nonzero;stroke:none"
         id="path332" /><path
         d="m 1259.33,2271.51 c -32.47,-7.66 -63.5,-125.53 -63.5,-125.53 l 126.63,-84.53 c 0,0 42.19,93.16 27.46,133.98 -15.34,42.5 -49.59,85.76 -90.59,76.08"
         style="fill:#4870c0;fill-opacity:1;fill-rule:nonzero;stroke:none"
         id="path334" /><path
         d="m 1299.75,2076.6 -4.18,2.8 4.18,-2.79 v -0.01"
         style="fill:#cecdcc;fill-opacity:1;fill-rule:nonzero;stroke:none"
         id="path336" /><path
         d="m 1299.75,2076.61 -4.18,2.79 -20.31,13.59 6.63,76.91 c 7.24,-34.64 13.11,-65.41 17.86,-93.29"
         style="fill:#395eb4;fill-opacity:1;fill-rule:nonzero;stroke:none"
         id="path338" /><path
         d="m 1671.93,2269.24 c 0,0 37.38,-13.16 -37.49,-473.51 -126.44,0 -257.11,0 -318.63,0 5.35,129.69 5.5,209.65 -56.48,475.78 0,0 66.76,14.53 135.3,17.83 53.62,2.58 97.55,4.3 144.69,0 62.14,-5.68 132.61,-20.1 132.61,-20.1"
         style="fill:#4870c0;fill-opacity:1;fill-rule:nonzero;stroke:none"
         id="path340" /><path
         d="m 1704.29,2196.14 c 7.22,-19.95 14.86,-41.52 22.8,-62.25 7.63,-21.04 15.56,-42.02 23.73,-62.93 l 24.52,-62.81 6.2,-15.7 3.11,-7.84 1.56,-3.93 0.12,-0.56 c -0.43,0.18 -0.8,2.17 -7,6.23 -3.04,1.89 -8.13,3.71 -13.06,3.82 -4.95,0.17 -8.88,-1.03 -11.12,-2.01 -4.51,-2.16 -4.58,-3.08 -4.48,-2.93 0.29,0.15 1.22,1.04 2.25,2.27 4.37,5.24 9.64,14.3 14.28,23.3 4.73,9.17 9.2,18.97 13.65,28.9 8.85,19.94 16.9,40.73 25.09,61.57 8.1,20.89 15.73,42.09 23.29,63.35 l 22.77,63.82 38.53,-9.71 c -7.62,-45.65 -17.48,-90.36 -29.23,-135.24 -5.74,-22.47 -12.38,-44.77 -19.97,-67.27 -3.78,-11.27 -8.01,-22.51 -12.87,-33.97 -5.06,-11.56 -10.06,-22.94 -19.01,-36.17 -2.34,-3.35 -5.01,-6.89 -8.72,-10.79 -3.92,-3.83 -8.45,-8.48 -18.22,-12.87 -4.85,-2.09 -11.62,-3.94 -19.41,-3.63 -7.77,0.22 -15.65,2.97 -21.1,6.36 -11.09,7.07 -14.92,13.82 -18.19,18.88 -1.52,2.54 -2.82,5.16 -3.72,7.05 l -1.9,3.88 -3.79,7.76 -7.56,15.53 c -9.88,20.8 -19.56,41.73 -28.74,62.88 -9.08,21.2 -17.93,42.52 -26.51,64 -8.22,21.81 -16.34,42.94 -23.56,66.14 l 76.26,24.87"
         style="fill:#f47372;fill-opacity:1;fill-rule:nonzero;stroke:none"
         id="path342" /><path
         d="m 1671.93,2269.24 c 38.3,-9.12 81.34,-122.28 81.34,-122.28 l -113.83,-96.98 c 0,0 -73.76,123.39 -58.84,164.13 15.54,42.43 41.3,67.05 91.33,55.13"
         style="fill:#4870c0;fill-opacity:1;fill-rule:nonzero;stroke:none"
         id="path344" /><path
         d="m 1869.76,2263.72 39.94,33.41 27.79,-43.29 -20.47,-36.15 c 0,0 -32.6,-29.83 -61.47,-14.66 -9.3,21.14 -3.51,45.88 14.21,60.69"
         style="fill:#f47372;fill-opacity:1;fill-rule:nonzero;stroke:none"
         id="path346" /><path
         d="m 1982.22,2297.03 -3,-10.88 -63.28,-10.63 -6.24,21.61 72.52,-0.1"
         style="fill:#f47372;fill-opacity:1;fill-rule:nonzero;stroke:none"
         id="path348" /><path
         d="m 1624.02,565.078 -114.19,73.871 20.45,35.551 128.33,-78.879 -34.59,-30.543"
         style="fill:#4870c0;fill-opacity:1;fill-rule:nonzero;stroke:none"
         id="path350" /><path
         d="m 1407.34,517.27 c 12.43,-6.321 22.42,-8.661 27.23,-6.258 2.05,1.019 3.23,2.929 3.63,5.84 0.21,1.558 -0.34,2.25 -0.85,2.668 -4.02,3.402 -19.05,0.75 -30.01,-2.25 z m 22.49,-10.911 c -9.08,0 -21.03,5.762 -28.27,9.782 l -0.94,1.82 1.28,1.578 c 3.09,0.981 30.17,9.281 37.85,2.832 1.2,-1.019 2.55,-2.902 2.13,-6.019 -0.57,-4.161 -2.46,-7.082 -5.64,-8.661 -1.85,-0.929 -4.03,-1.332 -6.41,-1.332"
         style="fill:#1d2a30;fill-opacity:1;fill-rule:nonzero;stroke:none"
         id="path352" /><path
         d="m 1421.86,543.18 c -0.93,0 -1.85,-0.219 -2.8,-0.668 -6.12,-2.953 -11.26,-14.68 -13.71,-21.801 8.8,3.699 20.81,13.519 21.24,19 0.07,0.891 -0.13,2.051 -2.34,2.969 z m -19.39,-27.27 -1.34,0.57 -0.45,1.79 c 0.26,0.921 6.5,22.64 16.77,27.589 2.74,1.313 5.52,1.391 8.24,0.25 4.32,-1.808 4.74,-4.98 4.6,-6.699 -0.7,-8.988 -19.03,-21.398 -27.38,-23.441 l -0.44,-0.059"
         style="fill:#1d2a30;fill-opacity:1;fill-rule:nonzero;stroke:none"
         id="path354" /><path
         d="m 1543.71,485.172 c 12.64,-12.293 23.69,-19.09 30.03,-18.242 2.22,0.281 3.9,1.48 5.15,3.679 l 0.13,2.34 c -2.67,5.352 -21.24,9.961 -35.31,12.223 z m 28.98,-22.024 c -11.26,0 -26.97,14.473 -35.56,23.364 l -0.33,2.117 1.9,1.019 c 3.95,-0.507 38.73,-5.207 43.65,-15.027 0.94,-1.891 0.86,-3.93 -0.23,-5.851 -1.84,-3.239 -4.51,-5.098 -7.92,-5.54 l -1.51,-0.082"
         style="fill:#1d2a30;fill-opacity:1;fill-rule:nonzero;stroke:none"
         id="path356" /><path
         d="m 1542.23,489.23 c 11.17,-0.628 29.03,3.09 31.36,7.961 0.2,0.411 0.79,1.637 -1.8,3.868 -2.16,1.839 -4.66,2.613 -7.54,2.351 -8.41,-0.738 -17.77,-9.648 -22.02,-14.18 z m 2.57,-3.75 c -2.56,0 -4.86,0.161 -6.67,0.5 l -1.41,1.18 0.31,1.832 c 0.57,0.688 14.1,16.996 26.89,18.117 4,0.313 7.38,-0.75 10.28,-3.23 3.93,-3.367 3.66,-6.367 2.74,-8.277 -3.17,-6.672 -20.45,-10.122 -32.14,-10.122"
         style="fill:#1d2a30;fill-opacity:1;fill-rule:nonzero;stroke:none"
         id="path358" /><path
         d="m 1405.21,526.441 -84.81,23.969 c -3.09,0.879 -6.2,-0.57 -7.48,-3.449 l -28.64,-64.371 c -2.97,-6.68 1.15,-14.961 8.31,-16.86 29.71,-7.839 44.46,-10.128 81.76,-20.679 22.94,-6.481 55.79,-18.34 87.48,-27.309 30.99,-8.75 42.23,21.906 29.84,28.469 -55.57,29.449 -59.95,49.641 -75.15,72.008 -2.74,4.051 -6.79,6.941 -11.31,8.222"
         style="fill:#4870c0;fill-opacity:1;fill-rule:nonzero;stroke:none"
         id="path360" /><path
         d="m 1539.44,498.18 -72.4,50.281 c -2.64,1.82 -6.04,1.469 -8.2,-0.84 l -48.02,-51.551 c -4.98,-5.359 -3.77,-14.531 2.38,-18.64 25.54,-17.09 38.73,-24.051 70.57,-46.16 19.59,-13.59 58.7,-43.758 85.74,-62.54 26.46,-18.371 47.06,6.961 37.48,17.211 -42.96,45.93 -52.44,74.707 -59.53,100.809 -1.28,4.711 -4.16,8.762 -8.02,11.43"
         style="fill:#4870c0;fill-opacity:1;fill-rule:nonzero;stroke:none"
         id="path362" /><path
         d="m 1480.75,591.262 -130.56,64.886 13.51,35.332 139.36,-68.32 -22.31,-31.898"
         style="fill:#4870c0;fill-opacity:1;fill-rule:nonzero;stroke:none"
         id="path364" /><path
         d="M 1311.04,1814.43 1300,1785.91 c -1.12,-2.21 1.5,-4.47 5.18,-4.47 h 330.84 c 2.87,0 5.25,1.41 5.43,3.21 l 2.88,28.52 c 0.19,1.98 -2.3,3.66 -5.44,3.66 h -322.66 c -2.37,0 -4.47,-0.97 -5.19,-2.4"
         style="fill:#4870c0;fill-opacity:1;fill-rule:nonzero;stroke:none"
         id="path366" /><path
         d="m 1636.02,1781.44 h -330.84 c -3.09,0 -5.44,1.59 -5.45,3.41 0,0.35 0.09,0.71 0.27,1.06 l 11.04,28.52 c 0.72,1.43 2.82,2.4 5.19,2.4 h 322.66 c 3.02,0 5.44,-1.55 5.45,-3.43 0,-0.07 -0.01,-0.15 -0.01,-0.23 l -2.88,-28.52 c -0.18,-1.8 -2.56,-3.21 -5.43,-3.21"
         style="fill:#8daee0;fill-opacity:1;fill-rule:nonzero;stroke:none"
         id="path368" /><path
         d="m 1363.08,1778.36 h -8.65 c -1.72,0 -3.03,0.88 -2.91,1.97 l 4.05,37.05 c 0.12,1.08 1.63,1.97 3.35,1.97 h 8.64 c 1.72,0 3.03,-0.89 2.91,-1.97 l -4.05,-37.05 c -0.12,-1.09 -1.63,-1.97 -3.34,-1.97"
         style="fill:#4870c0;fill-opacity:1;fill-rule:nonzero;stroke:none"
         id="path370" /><path
         d="m 1567.14,1778.36 h -8.64 c -1.72,0 -3.03,0.88 -2.91,1.97 l 4.05,37.05 c 0.12,1.08 1.62,1.97 3.34,1.97 h 8.65 c 1.71,0 3.03,-0.89 2.91,-1.97 l -4.06,-37.05 c -0.11,-1.09 -1.62,-1.97 -3.34,-1.97"
         style="fill:#4870c0;fill-opacity:1;fill-rule:nonzero;stroke:none"
         id="path372" /><path
         d="m 1354.83,84.75 c -0.08,0 -0.17,0 -0.26,0 -147.96,0.0117 -267.51,8.7188 -267.02,19.449 0.27,5.93 37.03,11.231 94.79,14.801 -0.32,-7.281 4.72,-14.801 14,-14.801 h 159.24 159.22 c 9.31,0 14.35,7.563 14.01,14.852 58.09,-3.571 94.84,-8.91 94.56,-14.879 C 1622.89,93.4414 1502.68,84.75 1354.83,84.75"
         style="fill:#eeeeee;fill-opacity:1;fill-rule:nonzero;stroke:none"
         id="path374" /><path
         d="m 1518.73,131.609 c -47.4,13.762 -99.57,31.5 -131.85,50.352 -0.9,0.519 -1.85,0.898 -2.76,1.379 v 214.281 h 95.34 c 15.76,0 28.54,12.777 28.54,28.539 0,15.77 -12.78,28.551 -28.54,28.551 h -95.34 v 978.229 h -57.09 V 454.711 h -95.34 c -15.77,0 -28.55,-12.781 -28.55,-28.551 0,-15.762 12.78,-28.539 28.55,-28.539 h 95.34 V 183.34 c -0.92,-0.481 -1.86,-0.86 -2.76,-1.379 -32.28,-18.852 -84.45,-36.59 -131.85,-50.352 -15.55,-4.507 -12.27,-27.41 3.92,-27.41 h 159.24 159.22 c 16.2,0 19.48,22.903 3.93,27.41"
         style="fill:#e3e3e2;fill-opacity:1;fill-rule:nonzero;stroke:none"
         id="path376" /><path
         d="m 1533.4,1323.15 h -355.65 c -28.49,0 -51.8,23.31 -51.8,51.8 v 105.72 c 0,28.5 23.31,51.81 51.8,51.81 h 355.65 c 28.49,0 51.8,-23.31 51.8,-51.81 v -105.72 c 0,-28.49 -23.31,-51.8 -51.8,-51.8"
         style="fill:#4870c0;fill-opacity:1;fill-rule:nonzero;stroke:none"
         id="path378" /><path
         d="m 1174.48,1323.15 v -18.2 c 0,-15.01 16.33,-27.27 36.28,-27.27 h 289.63 c 19.95,0 36.28,12.26 36.28,27.27 v 18.2 h -362.19"
         style="fill:#4870c0;fill-opacity:1;fill-rule:nonzero;stroke:none"
         id="path380" /><path
         d="m 1500.39,1277.68 h -289.63 c -19.95,0 -36.28,12.26 -36.28,27.27 v 18.2 h 362.19 v -18.2 c 0,-15.01 -16.33,-27.27 -36.28,-27.27"
         style="fill:#799bd7;fill-opacity:1;fill-rule:nonzero;stroke:none"
         id="path382" /></g></g></svg>
