<svg width="391" height="64" viewBox="0 0 391 64" fill="none" xmlns="http://www.w3.org/2000/svg">
<path d="M15.7174 59.749C20.323 63.3454 41.202 69.4126 55.5 53.974C43.8995 62.4879 35.475 60.4654 30.1595 57.6601C24.844 54.8547 25.209 51.1786 24.7437 46.2755C24.2785 41.3724 24.7437 38.3161 24.7437 38.3161C24.7437 33.0316 30.3935 27.3882 35.5753 29.215V15.8798L8.75972 16.5975C8.75972 16.5975 0.0106881 31.684 0.000102086 33.2678C-0.0104839 34.8516 0.735645 41.6852 2.30682 44.5871C3.878 47.4891 11.1119 56.1527 15.7174 59.749Z" fill="url(#paint0_radial_844_6)"/>
<path d="M61.2462 45.668C79.3111 -3.07285 2.68624 -16.8715 0 33.483C0 33.483 3.18991 26.995 9.77118 31.3421C16.3525 35.6893 10.7449 26.995 10.7449 25.4801C10.7449 23.9651 8.30038 17.4923 19.3409 27.8183C30.3814 38.1443 14.9758 14.2499 22.2286 21.3635C29.4814 28.477 25.9222 21.3635 31.4523 21.3635C36.9824 21.3635 35.0451 37.1384 39.1519 37.1384C43.2586 37.1384 44.0615 27.7195 45.9346 37.1384C47.8078 46.5572 50.3669 44.9764 50.6777 43.7249C50.9884 42.4734 55.4787 31.0132 54.8963 43.0992C54.314 55.1852 60.1089 47.9544 61.2462 45.668Z" fill="url(#paint1_radial_844_6)"/>
<path d="M47.5932 19.1878C53.5697 18.7024 58.7517 24.1954 58.453 20.7209C58.1543 17.2464 53.0673 14.8233 47.0909 15.3088C41.1144 15.7943 36.5116 19.0045 36.8103 22.479C37.109 25.9534 41.6167 19.6733 47.5932 19.1878Z" fill="white" fill-opacity="0.7"/>
<path d="M39.2099 12.0022C45.4045 9.25414 53.1099 13.1908 51.4194 9.58955C49.7289 5.98826 43.3367 5.29655 37.1421 8.04456C30.9475 10.7926 27.2962 15.9397 28.9867 19.541C30.6773 23.1423 33.0153 14.7502 39.2099 12.0022Z" fill="white" fill-opacity="0.7"/>
<path d="M17.8004 13.1118C25.2303 8.47111 35.8705 12.1405 33.0157 7.82107C30.1608 3.50162 21.8234 3.76204 14.3935 8.40273C6.96356 13.0434 3.25474 20.3071 6.10959 24.6265C8.96444 28.9459 10.3705 17.7525 17.8004 13.1118Z" fill="white" fill-opacity="0.7"/>
<path d="M51.2875 26.1077C54.8062 26.5638 57.0857 30.3785 57.3662 28.3328C57.6468 26.2872 55.0217 24.2592 51.503 23.8031C47.9843 23.3471 44.9044 24.6357 44.6238 26.6813C44.3433 28.7269 47.7687 25.6517 51.2875 26.1077Z" fill="white" fill-opacity="0.7"/>
<path d="M52.7605 32.3672C55.5034 32.7227 57.2804 35.6964 57.4991 34.1017C57.7178 32.5071 55.6715 30.9262 52.9285 30.5707C50.1855 30.2151 47.7846 31.2197 47.5659 32.8143C47.3472 34.409 50.0175 32.0117 52.7605 32.3672Z" fill="white" fill-opacity="0.7"/>
<path d="M25.0237 38.3697C17.6208 39.3771 19.2402 56.7304 20.9257 52.7008C22.6111 48.6712 23.0738 44.4141 25.0237 46.3314C26.9735 48.2487 28.3285 47.4363 27.2049 46.3314C26.0812 45.2265 25.3872 42.7568 29.0225 46.3314C32.6578 49.9061 30.7741 44.4791 32.6578 46.3314C34.5416 48.1837 35.5 47.9887 35.5 46.3314C35.5 44.6741 34.6407 42.4968 34.6407 42.4968C34.6407 42.4968 32.4265 37.3623 25.0237 38.3697Z" fill="url(#paint2_radial_844_6)"/>
<path d="M2.28266 44.5958C4.25145 50.8716 13.1259 59.4704 15.5718 59.6241C18.0176 59.7779 17.159 47.0486 14.2362 51.7847C11.3134 56.5207 6.16238 48.042 9.42807 48.0438C12.6938 48.0457 13.8355 43.7175 12.3664 45.1488C10.8972 46.58 8.06982 46.0932 6.95723 43.7175C5.84464 41.3418 9.03574 41.708 10.5633 42.2862C9.22774 38.6755 0.313873 38.3199 2.28266 44.5958Z" fill="url(#paint3_radial_844_6)"/>
<path d="M23.4353 41.6745C24.4896 40.6946 26.3336 40.9639 25.7308 40.3509C25.128 39.738 23.7847 40.0354 22.7303 41.0153C21.676 41.9952 21.31 43.2864 21.9128 43.8994C22.5155 44.5123 22.3809 42.6544 23.4353 41.6745Z" fill="white" fill-opacity="0.7"/>
<path d="M6.71445 47.9056C6.89673 47.0308 7.94901 46.5253 7.41087 46.4193C6.87273 46.3134 6.28871 46.9366 6.10642 47.8114C5.92414 48.6861 6.21262 49.4812 6.75076 49.5872C7.2889 49.6931 6.53216 48.7803 6.71445 47.9056Z" fill="white" fill-opacity="0.7"/>
<path d="M14.9088 56.1977C15.0911 55.3229 16.1433 54.8175 15.6052 54.7115C15.0671 54.6055 14.483 55.2287 14.3008 56.1035C14.1185 56.9783 14.407 57.7733 14.9451 57.8793C15.4832 57.9853 14.7265 57.0725 14.9088 56.1977Z" fill="white" fill-opacity="0.7"/>
<path d="M13.0943 55.0877C13.2766 54.213 14.3289 53.7075 13.7908 53.6015C13.2526 53.4956 12.6686 54.1188 12.4863 54.9936C12.304 55.8683 12.5925 56.6634 13.1306 56.7694C13.6688 56.8753 12.912 55.9625 13.0943 55.0877Z" fill="white" fill-opacity="0.7"/>
<path d="M4.90097 45.8161C5.08325 44.9413 6.13554 44.4359 5.59739 44.3299C5.05925 44.2239 4.47523 44.8472 4.29295 45.7219C4.11066 46.5967 4.39914 47.3918 4.93728 47.4977C5.47542 47.6037 4.71868 46.6909 4.90097 45.8161Z" fill="white" fill-opacity="0.7"/>
<path d="M3.96054 43.0086C4.14282 42.1338 5.19511 41.6283 4.65696 41.5224C4.11882 41.4164 3.5348 42.0396 3.35252 42.9144C3.17023 43.7892 3.45871 44.5842 3.99685 44.6902C4.535 44.7962 3.77825 43.8834 3.96054 43.0086Z" fill="white" fill-opacity="0.7"/>
<path d="M25.1349 42.4482C25.8455 41.7878 27.0883 41.9693 26.6821 41.5561C26.2758 41.143 25.3704 41.3435 24.6597 42.0039C23.9491 42.6644 23.7024 43.5346 24.1087 43.9478C24.515 44.3609 24.4242 43.1087 25.1349 42.4482Z" fill="white" fill-opacity="0.7"/>
<path d="M26.5027 43.4673C27.0608 42.9486 28.0369 43.0911 27.7178 42.7667C27.3987 42.4423 26.6877 42.5997 26.1296 43.1184C25.5715 43.637 25.3778 44.3205 25.6969 44.6449C26.0159 44.9693 25.9447 43.9859 26.5027 43.4673Z" fill="white" fill-opacity="0.7"/>
<path d="M85.7 50V15H89.4V50H85.7ZM107.088 50.25C104.921 50.25 102.871 49.95 100.938 49.35C99.0046 48.7167 97.4879 47.9333 96.3879 47L97.9879 44.2C99.0546 45 100.421 45.7 102.088 46.3C103.755 46.8667 105.505 47.15 107.338 47.15C109.838 47.15 111.638 46.7667 112.738 46C113.838 45.2 114.388 44.15 114.388 42.85C114.388 41.8833 114.071 41.1333 113.438 40.6C112.838 40.0333 112.038 39.6167 111.038 39.35C110.038 39.05 108.921 38.8 107.688 38.6C106.455 38.4 105.221 38.1667 103.988 37.9C102.788 37.6333 101.688 37.25 100.688 36.75C99.6879 36.2167 98.8712 35.5 98.2379 34.6C97.6379 33.7 97.3379 32.5 97.3379 31C97.3379 29.5667 97.7379 28.2833 98.5379 27.15C99.3379 26.0167 100.505 25.1333 102.038 24.5C103.605 23.8333 105.505 23.5 107.738 23.5C109.438 23.5 111.138 23.7333 112.838 24.2C114.538 24.6333 115.938 25.2167 117.038 25.95L115.488 28.8C114.321 28 113.071 27.4333 111.738 27.1C110.405 26.7333 109.071 26.55 107.738 26.55C105.371 26.55 103.621 26.9667 102.488 27.8C101.388 28.6 100.838 29.6333 100.838 30.9C100.838 31.9 101.138 32.6833 101.738 33.25C102.371 33.8167 103.188 34.2667 104.188 34.6C105.221 34.9 106.338 35.15 107.538 35.35C108.771 35.55 109.988 35.8 111.188 36.1C112.421 36.3667 113.538 36.75 114.538 37.25C115.571 37.7167 116.388 38.4 116.988 39.3C117.621 40.1667 117.938 41.3167 117.938 42.75C117.938 44.2833 117.505 45.6167 116.638 46.75C115.805 47.85 114.571 48.7167 112.938 49.35C111.338 49.95 109.388 50.25 107.088 50.25ZM124.452 50V12.9H128.002V50H124.452ZM154.33 50V44.2L154.18 43.25V33.55C154.18 31.3167 153.546 29.6 152.28 28.4C151.046 27.2 149.196 26.6 146.73 26.6C145.03 26.6 143.413 26.8833 141.88 27.45C140.346 28.0167 139.046 28.7667 137.98 29.7L136.38 27.05C137.713 25.9167 139.313 25.05 141.18 24.45C143.046 23.8167 145.013 23.5 147.08 23.5C150.48 23.5 153.096 24.35 154.93 26.05C156.796 27.7167 157.73 30.2667 157.73 33.7V50H154.33ZM145.28 50.25C143.313 50.25 141.596 49.9333 140.13 49.3C138.696 48.6333 137.596 47.7333 136.83 46.6C136.063 45.4333 135.68 44.1 135.68 42.6C135.68 41.2333 135.996 40 136.63 38.9C137.296 37.7667 138.363 36.8667 139.83 36.2C141.33 35.5 143.33 35.15 145.83 35.15H154.88V37.8H145.93C143.396 37.8 141.63 38.25 140.63 39.15C139.663 40.05 139.18 41.1667 139.18 42.5C139.18 44 139.763 45.2 140.93 46.1C142.096 47 143.73 47.45 145.83 47.45C147.83 47.45 149.546 47 150.98 46.1C152.446 45.1667 153.513 43.8333 154.18 42.1L154.98 44.55C154.313 46.2833 153.146 47.6667 151.48 48.7C149.846 49.7333 147.78 50.25 145.28 50.25ZM180.772 23.5C182.905 23.5 184.772 23.9167 186.372 24.75C188.005 25.55 189.272 26.7833 190.172 28.45C191.105 30.1167 191.572 32.2167 191.572 34.75V50H188.022V35.1C188.022 32.3333 187.322 30.25 185.922 28.85C184.555 27.4167 182.622 26.7 180.122 26.7C178.255 26.7 176.622 27.0833 175.222 27.85C173.855 28.5833 172.789 29.6667 172.022 31.1C171.289 32.5 170.922 34.2 170.922 36.2V50H167.372V23.75H170.772V30.95L170.222 29.6C171.055 27.7 172.389 26.2167 174.222 25.15C176.055 24.05 178.239 23.5 180.772 23.5ZM211.611 50.25C209.111 50.25 206.861 49.6833 204.861 48.55C202.894 47.4167 201.344 45.85 200.211 43.85C199.078 41.8167 198.511 39.4833 198.511 36.85C198.511 34.1833 199.078 31.85 200.211 29.85C201.344 27.85 202.894 26.3 204.861 25.2C206.861 24.0667 209.111 23.5 211.611 23.5C213.911 23.5 215.961 24.0167 217.761 25.05C219.594 26.0833 221.044 27.6 222.111 29.6C223.211 31.5667 223.761 33.9833 223.761 36.85C223.761 39.6833 223.228 42.1 222.161 44.1C221.094 46.1 219.644 47.6333 217.811 48.7C216.011 49.7333 213.944 50.25 211.611 50.25ZM211.861 47.1C213.728 47.1 215.394 46.6833 216.861 45.85C218.361 44.9833 219.528 43.7833 220.361 42.25C221.228 40.6833 221.661 38.8833 221.661 36.85C221.661 34.7833 221.228 32.9833 220.361 31.45C219.528 29.9167 218.361 28.7333 216.861 27.9C215.394 27.0333 213.728 26.6 211.861 26.6C210.028 26.6 208.378 27.0333 206.911 27.9C205.444 28.7333 204.278 29.9167 203.411 31.45C202.544 32.9833 202.111 34.7833 202.111 36.85C202.111 38.8833 202.544 40.6833 203.411 42.25C204.278 43.7833 205.444 44.9833 206.911 45.85C208.378 46.6833 210.028 47.1 211.861 47.1ZM221.761 50V42.1L222.111 36.8L221.611 31.5V12.9H225.161V50H221.761ZM261.398 15H265.048V50H261.398V15ZM239.498 50H235.798V15H239.498V50ZM261.748 33.85H239.098V30.6H261.748V33.85ZM286.421 50.25C283.888 50.25 281.605 49.6833 279.571 48.55C277.571 47.3833 275.988 45.8 274.821 43.8C273.655 41.7667 273.071 39.45 273.071 36.85C273.071 34.2167 273.655 31.9 274.821 29.9C275.988 27.9 277.571 26.3333 279.571 25.2C281.571 24.0667 283.855 23.5 286.421 23.5C289.021 23.5 291.321 24.0667 293.321 25.2C295.355 26.3333 296.938 27.9 298.071 29.9C299.238 31.9 299.821 34.2167 299.821 36.85C299.821 39.45 299.238 41.7667 298.071 43.8C296.938 45.8 295.355 47.3833 293.321 48.55C291.288 49.6833 288.988 50.25 286.421 50.25ZM286.421 47.1C288.321 47.1 290.005 46.6833 291.471 45.85C292.938 44.9833 294.088 43.7833 294.921 42.25C295.788 40.6833 296.221 38.8833 296.221 36.85C296.221 34.7833 295.788 32.9833 294.921 31.45C294.088 29.9167 292.938 28.7333 291.471 27.9C290.005 27.0333 288.338 26.6 286.471 26.6C284.605 26.6 282.938 27.0333 281.471 27.9C280.005 28.7333 278.838 29.9167 277.971 31.45C277.105 32.9833 276.671 34.7833 276.671 36.85C276.671 38.8833 277.105 40.6833 277.971 42.25C278.838 43.7833 280.005 44.9833 281.471 45.85C282.938 46.6833 284.588 47.1 286.421 47.1ZM317.919 50.25C315.686 50.25 313.736 49.8333 312.069 49C310.402 48.1667 309.102 46.9167 308.169 45.25C307.269 43.5833 306.819 41.5 306.819 39V23.75H310.369V38.6C310.369 41.4 311.052 43.5167 312.419 44.95C313.819 46.35 315.769 47.05 318.269 47.05C320.102 47.05 321.686 46.6833 323.019 45.95C324.386 45.1833 325.419 44.0833 326.119 42.65C326.852 41.2167 327.219 39.5 327.219 37.5V23.75H330.769V50H327.369V42.8L327.919 44.1C327.086 46.0333 325.786 47.55 324.019 48.65C322.286 49.7167 320.252 50.25 317.919 50.25ZM347.713 50.25C345.546 50.25 343.496 49.95 341.563 49.35C339.63 48.7167 338.113 47.9333 337.013 47L338.613 44.2C339.68 45 341.046 45.7 342.713 46.3C344.38 46.8667 346.13 47.15 347.963 47.15C350.463 47.15 352.263 46.7667 353.363 46C354.463 45.2 355.013 44.15 355.013 42.85C355.013 41.8833 354.696 41.1333 354.063 40.6C353.463 40.0333 352.663 39.6167 351.663 39.35C350.663 39.05 349.546 38.8 348.313 38.6C347.08 38.4 345.846 38.1667 344.613 37.9C343.413 37.6333 342.313 37.25 341.313 36.75C340.313 36.2167 339.496 35.5 338.863 34.6C338.263 33.7 337.963 32.5 337.963 31C337.963 29.5667 338.363 28.2833 339.163 27.15C339.963 26.0167 341.13 25.1333 342.663 24.5C344.23 23.8333 346.13 23.5 348.363 23.5C350.063 23.5 351.763 23.7333 353.463 24.2C355.163 24.6333 356.563 25.2167 357.663 25.95L356.113 28.8C354.946 28 353.696 27.4333 352.363 27.1C351.03 26.7333 349.696 26.55 348.363 26.55C345.996 26.55 344.246 26.9667 343.113 27.8C342.013 28.6 341.463 29.6333 341.463 30.9C341.463 31.9 341.763 32.6833 342.363 33.25C342.996 33.8167 343.813 34.2667 344.813 34.6C345.846 34.9 346.963 35.15 348.163 35.35C349.396 35.55 350.613 35.8 351.813 36.1C353.046 36.3667 354.163 36.75 355.163 37.25C356.196 37.7167 357.013 38.4 357.613 39.3C358.246 40.1667 358.563 41.3167 358.563 42.75C358.563 44.2833 358.13 45.6167 357.263 46.75C356.43 47.85 355.196 48.7167 353.563 49.35C351.963 49.95 350.013 50.25 347.713 50.25ZM376.227 50.25C373.494 50.25 371.094 49.6833 369.027 48.55C366.96 47.3833 365.344 45.8 364.177 43.8C363.01 41.7667 362.427 39.45 362.427 36.85C362.427 34.25 362.977 31.95 364.077 29.95C365.21 27.95 366.744 26.3833 368.677 25.25C370.644 24.0833 372.844 23.5 375.277 23.5C377.744 23.5 379.927 24.0667 381.827 25.2C383.76 26.3 385.277 27.8667 386.377 29.9C387.477 31.9 388.027 34.2167 388.027 36.85C388.027 37.0167 388.01 37.2 387.977 37.4C387.977 37.5667 387.977 37.75 387.977 37.95H365.127V35.3H386.077L384.677 36.35C384.677 34.45 384.26 32.7667 383.427 31.3C382.627 29.8 381.527 28.6333 380.127 27.8C378.727 26.9667 377.11 26.55 375.277 26.55C373.477 26.55 371.86 26.9667 370.427 27.8C368.994 28.6333 367.877 29.8 367.077 31.3C366.277 32.8 365.877 34.5167 365.877 36.45V37C365.877 39 366.31 40.7667 367.177 42.3C368.077 43.8 369.31 44.9833 370.877 45.85C372.477 46.6833 374.294 47.1 376.327 47.1C377.927 47.1 379.41 46.8167 380.777 46.25C382.177 45.6833 383.377 44.8167 384.377 43.65L386.377 45.95C385.21 47.35 383.744 48.4167 381.977 49.15C380.244 49.8833 378.327 50.25 376.227 50.25Z" fill="white"/>
<defs>
<radialGradient id="paint0_radial_844_6" cx="0" cy="0" r="1" gradientUnits="userSpaceOnUse" gradientTransform="translate(25.7105 30.169) rotate(86.5501) scale(33.8924 39.0835)">
<stop stop-color="#2C0DFF"/>
<stop offset="1" stop-color="#0066FF"/>
</radialGradient>
<radialGradient id="paint1_radial_844_6" cx="0" cy="0" r="1" gradientUnits="userSpaceOnUse" gradientTransform="translate(32 25.8441) rotate(90) scale(24.0601 32)">
<stop stop-color="white"/>
<stop offset="1" stop-color="#00ECFF"/>
</radialGradient>
<radialGradient id="paint2_radial_844_6" cx="0" cy="0" r="1" gradientUnits="userSpaceOnUse" gradientTransform="translate(27.5 45.7727) rotate(90) scale(7.53397 8)">
<stop stop-color="white"/>
<stop offset="1" stop-color="#00ECFF"/>
</radialGradient>
<radialGradient id="paint3_radial_844_6" cx="0" cy="0" r="1" gradientUnits="userSpaceOnUse" gradientTransform="translate(9.5 49.6612) rotate(90) scale(9.96428 7.5)">
<stop stop-color="white"/>
<stop offset="1" stop-color="#00ECFF"/>
</radialGradient>
</defs>
</svg>
