<svg width="792" height="353" viewBox="0 0 792 353" fill="none" xmlns="http://www.w3.org/2000/svg">
<path d="M560.749 184.293C548.568 180.343 471.203 184.293 471.203 184.293C511.53 257.137 501.174 306.237 442.562 337.378C442.562 337.378 546.593 343.962 560.749 337.378C574.906 330.794 572.93 188.244 560.749 184.293Z" fill="#FFB82A"/>
<path d="M183.205 184.077C195.416 180.121 272.384 184.078 272.384 184.078C234.105 256.764 246.047 308.079 303.33 336.391C303.33 336.391 197.396 344.005 183.205 337.411C169.014 330.816 170.994 188.034 183.205 184.077Z" fill="#FFB82A"/>
<path d="M729.783 337.726H710.911C708.169 337.726 705.945 335.502 705.945 332.76V329.179C705.945 326.436 708.169 324.213 710.911 324.213H729.783C732.526 324.213 734.749 326.436 734.749 329.179V332.76C734.749 335.502 732.526 337.726 729.783 337.726Z" fill="#FFB82A" stroke="black" stroke-width="0.82766"/>
<path d="M250.726 240.248C274.812 91.5026 467.093 93.1417 494.445 240.248C521.797 387.354 226.64 388.993 250.726 240.248Z" fill="#FFB625" stroke="black" stroke-width="3"/>
<path d="M290.249 242.577C304.749 142.174 434.489 141.011 454.672 239.704C474.855 338.396 275.748 342.979 290.249 242.577Z" fill="#B7F9FF"/>
<path d="M414.21 197.565C426.483 208.275 429.319 224.756 433.323 219.964C437.328 215.173 430.624 202.607 418.351 191.896C406.078 181.186 392.883 176.387 388.879 181.178C384.875 185.97 401.937 186.854 414.21 197.565Z" fill="white" fill-opacity="0.6"/>
<path d="M353.401 274.753C359.086 279.192 384.859 286.681 402.508 267.624C388.189 278.133 377.789 275.637 371.228 272.174C364.667 268.711 365.117 264.174 364.543 258.121C363.969 252.069 364.543 248.296 364.543 248.296C364.543 241.773 371.517 234.807 377.913 237.062V220.602L344.813 221.487C344.813 221.487 334.013 240.11 334 242.065C333.987 244.02 334.908 252.455 336.847 256.037C338.787 259.619 347.716 270.313 353.401 274.753Z" fill="url(#paint0_radial_966_331)"/>
<path d="M409.601 257.371C431.9 197.207 337.316 180.174 334 242.331C334 242.331 337.938 234.322 346.061 239.688C354.185 245.054 347.263 234.322 347.263 232.452C347.263 230.582 344.246 222.592 357.874 235.338C371.502 248.084 352.486 218.59 361.438 227.371C370.391 236.151 365.998 227.371 372.824 227.371C379.65 227.371 377.259 246.843 382.328 246.843C387.397 246.843 388.388 235.216 390.701 246.843C393.013 258.469 396.172 256.518 396.555 254.973C396.939 253.428 402.482 239.282 401.763 254.201C401.044 269.119 408.197 260.194 409.601 257.371Z" fill="url(#paint1_radial_966_331)"/>
<path d="M392.748 224.685C400.125 224.086 406.522 230.866 406.153 226.577C405.785 222.289 399.505 219.298 392.128 219.897C384.751 220.496 379.069 224.459 379.438 228.748C379.807 233.036 385.371 225.284 392.748 224.685Z" fill="white" fill-opacity="0.7"/>
<path d="M382.4 215.815C390.046 212.423 399.557 217.282 397.471 212.837C395.384 208.392 387.494 207.538 379.847 210.93C372.201 214.322 367.694 220.675 369.78 225.121C371.867 229.566 374.753 219.207 382.4 215.815Z" fill="white" fill-opacity="0.7"/>
<path d="M355.973 217.185C365.144 211.456 378.278 215.986 374.754 210.654C371.23 205.322 360.939 205.644 351.767 211.372C342.596 217.1 338.018 226.066 341.542 231.398C345.066 236.73 346.801 222.913 355.973 217.185Z" fill="white" fill-opacity="0.7"/>
<path d="M397.308 233.227C401.652 233.79 404.465 238.499 404.812 235.973C405.158 233.448 401.918 230.945 397.574 230.382C393.231 229.819 389.429 231.41 389.083 233.935C388.737 236.46 392.965 232.664 397.308 233.227Z" fill="white" fill-opacity="0.7"/>
<path d="M399.126 240.953C402.512 241.391 404.706 245.062 404.976 243.094C405.246 241.125 402.72 239.174 399.334 238.735C395.948 238.296 392.984 239.536 392.714 241.505C392.444 243.473 395.74 240.514 399.126 240.953Z" fill="white" fill-opacity="0.7"/>
<path d="M364.889 248.362C355.751 249.606 357.75 271.026 359.83 266.052C361.911 261.078 362.482 255.823 364.889 258.19C367.295 260.557 368.968 259.554 367.581 258.19C366.194 256.826 365.337 253.778 369.825 258.19C374.312 262.603 371.987 255.904 374.312 258.19C376.637 260.477 377.82 260.236 377.82 258.19C377.82 256.144 376.76 253.457 376.76 253.457C376.76 253.457 374.026 247.119 364.889 248.362Z" fill="url(#paint2_radial_966_331)"/>
<path d="M336.818 256.048C339.248 263.794 350.202 274.408 353.221 274.598C356.24 274.788 355.181 259.075 351.573 264.921C347.965 270.767 341.607 260.301 345.638 260.304C349.669 260.306 351.078 254.963 349.265 256.73C347.451 258.497 343.961 257.896 342.588 254.963C341.214 252.031 345.153 252.483 347.039 253.197C345.39 248.74 334.387 248.301 336.818 256.048Z" fill="url(#paint3_radial_966_331)"/>
<path d="M362.928 252.442C364.229 251.232 366.505 251.564 365.761 250.808C365.017 250.051 363.359 250.418 362.058 251.628C360.756 252.837 360.304 254.431 361.048 255.188C361.793 255.944 361.626 253.651 362.928 252.442Z" fill="white" fill-opacity="0.7"/>
<path d="M342.288 260.133C342.513 259.053 343.812 258.43 343.147 258.299C342.483 258.168 341.762 258.937 341.537 260.017C341.312 261.097 341.668 262.078 342.333 262.209C342.997 262.34 342.063 261.213 342.288 260.133Z" fill="white" fill-opacity="0.7"/>
<path d="M352.403 270.369C352.628 269.289 353.927 268.665 353.263 268.534C352.598 268.403 351.878 269.173 351.653 270.252C351.428 271.332 351.784 272.314 352.448 272.444C353.112 272.575 352.178 271.448 352.403 270.369Z" fill="white" fill-opacity="0.7"/>
<path d="M350.164 268.999C350.389 267.919 351.688 267.295 351.023 267.164C350.359 267.034 349.638 267.803 349.413 268.883C349.188 269.963 349.544 270.944 350.209 271.075C350.873 271.206 349.939 270.079 350.164 268.999Z" fill="white" fill-opacity="0.7"/>
<path d="M340.05 257.554C340.275 256.474 341.573 255.85 340.909 255.719C340.245 255.588 339.524 256.358 339.299 257.437C339.074 258.517 339.43 259.499 340.094 259.629C340.759 259.76 339.825 258.633 340.05 257.554Z" fill="white" fill-opacity="0.7"/>
<path d="M338.888 254.089C339.113 253.009 340.412 252.385 339.748 252.254C339.084 252.123 338.363 252.893 338.138 253.973C337.913 255.052 338.269 256.034 338.933 256.165C339.598 256.295 338.663 255.169 338.888 254.089Z" fill="white" fill-opacity="0.7"/>
<path d="M365.026 253.397C365.903 252.581 367.438 252.805 366.936 252.295C366.435 251.785 365.317 252.033 364.44 252.848C363.563 253.663 363.258 254.738 363.76 255.248C364.261 255.758 364.149 254.212 365.026 253.397Z" fill="white" fill-opacity="0.7"/>
<path d="M366.715 254.655C367.404 254.015 368.608 254.19 368.215 253.79C367.821 253.39 366.943 253.584 366.254 254.224C365.565 254.864 365.326 255.708 365.72 256.108C366.114 256.509 366.026 255.295 366.715 254.655Z" fill="white" fill-opacity="0.7"/>
<path d="M308.808 145.753C308.45 146.169 308.255 146.297 308.255 146.081C308.439 145.971 308.624 145.862 308.808 145.753C312.816 141.096 337.226 100.32 337.226 100.32H415.579L437.307 147.727C390.018 120.765 349.616 121.683 308.808 145.753Z" fill="#FFB82A"/>
<path d="M364.222 71.0073V98.6613H380.682V71.0073H364.222Z" fill="#D9D9D9" stroke="black" stroke-width="0.766249"/>
<path d="M367.843 79.2377C367.843 73.9702 377.061 73.9703 377.061 79.2377C377.061 84.5051 367.843 84.5051 367.843 79.2377Z" fill="#D9D9D9" stroke="black" stroke-width="0.766249"/>
<path d="M312.535 329.149C312.535 323.881 321.753 323.881 321.753 329.149C321.753 334.416 312.535 334.416 312.535 329.149Z" fill="#CCCCCC" stroke="black" stroke-width="0.766249"/>
<path d="M336.897 337.05C336.897 331.782 346.115 331.782 346.115 337.05C346.115 342.317 336.897 342.317 336.897 337.05Z" fill="#CCCCCC" stroke="black" stroke-width="0.766249"/>
<path d="M363.233 341C363.233 335.733 372.451 335.733 372.451 341C372.451 346.268 363.233 346.268 363.233 341Z" fill="#CCCCCC" stroke="black" stroke-width="0.766249"/>
<path d="M392.863 337.05C392.863 331.782 402.081 331.782 402.081 337.05C402.081 342.317 392.863 342.317 392.863 337.05Z" fill="#CCCCCC" stroke="black" stroke-width="0.766249"/>
<path d="M418.543 329.149C418.543 323.881 427.761 323.881 427.761 329.149C427.761 334.416 418.543 334.416 418.543 329.149Z" fill="#CCCCCC" stroke="black" stroke-width="0.766249"/>
<path d="M439.611 313.347C439.611 308.079 448.829 308.079 448.829 313.347C448.829 318.614 439.611 318.614 439.611 313.347Z" fill="#CCCCCC" stroke="black" stroke-width="0.766249"/>
<path d="M294.1 313.347C294.1 308.079 303.318 308.079 303.318 313.347C303.318 318.614 294.1 318.614 294.1 313.347Z" fill="#CCCCCC" stroke="black" stroke-width="0.766249"/>
<path d="M457.39 298.861C457.39 293.593 466.608 293.593 466.608 298.861C466.608 304.128 457.39 304.128 457.39 298.861Z" fill="#CCCCCC" stroke="black" stroke-width="0.766249"/>
<path d="M278.955 298.861C278.955 293.593 288.173 293.593 288.173 298.861C288.173 304.128 278.955 304.128 278.955 298.861Z" fill="#CCCCCC" stroke="black" stroke-width="0.766249"/>
<path d="M681.913 299.849H570.639C569.588 311.128 568.784 317.299 566.688 327.832H681.913V299.849Z" fill="#FFB82A" stroke="black" stroke-width="0.766249"/>
<path d="M62.9901 302.812L173.277 303.799C174.334 314.946 175.142 321.044 177.25 331.453L62.9901 330.466V302.812Z" fill="#FFB82A" stroke="black" stroke-width="0.766249"/>
<path d="M596.975 248.162C596.975 217.435 650.966 217.435 650.966 248.162C650.966 278.888 596.975 278.889 596.975 248.162Z" fill="white" stroke="black" stroke-width="0.766249"/>
<path d="M604.354 247.676C604.536 224.619 644.132 224.931 643.951 247.988C643.77 271.045 604.173 270.733 604.354 247.676Z" fill="#001431" stroke="black" stroke-width="0.766249"/>
<path d="M616.128 248.277C616.205 238.466 631.891 238.59 631.814 248.4C631.737 258.21 616.051 258.087 616.128 248.277Z" fill="white" stroke="black" stroke-width="0.766249"/>
<path d="M620.707 248.343C620.743 243.711 627.932 243.768 627.895 248.4C627.859 253.032 620.671 252.975 620.707 248.343Z" fill="white" stroke="black" stroke-width="0.766249"/>
<path d="M619.363 242.236L613.108 233.018C611.559 233.947 608.801 236.476 607.841 237.627L616.73 245.199C617.79 243.617 618.359 243.07 619.363 242.236Z" fill="white" stroke="black" stroke-width="0.766249"/>
<path d="M631.543 251.124C630.734 252.824 629.429 254.08 628.577 255.032L631.543 258.696L634.836 262.647C636.811 261.659 638.457 260.644 639.226 259.383L631.543 251.124Z" fill="white" stroke="black" stroke-width="0.766249"/>
<path d="M631.302 245.331L641.285 238.926C640.245 237.391 637.753 234.946 636.481 234.005L628.25 241.906C629.995 242.941 630.376 244.34 631.302 245.331Z" fill="white" stroke="black" stroke-width="0.766249"/>
<path d="M616.729 251.783L609.861 259.453C609.861 260.342 613.386 262.692 614.754 263.305L619.692 254.746C618.375 254.087 617.387 253.1 616.729 251.783Z" fill="white" stroke="black" stroke-width="0.766249"/>
<path d="M622.655 220.837L620.351 225.117C620.351 225.117 625.713 224.884 629.898 225.446L627.923 220.837H622.655Z" fill="white" stroke="black" stroke-width="0.766249"/>
<path d="M642.658 225.401L637.14 227.421C637.14 227.421 642.751 230.034 645.37 233.346L646.687 228.408L642.658 225.401Z" fill="white" stroke="black" stroke-width="0.766249"/>
<path d="M653.428 239.16L648.646 238.289C648.646 238.289 650.966 242.894 650.966 248.162L655.053 244.171L653.428 239.16Z" fill="white" stroke="black" stroke-width="0.766249"/>
<path d="M603.546 226.94L603.828 231.792C603.828 231.792 608.272 228.782 612.13 227.066L608.031 224.178L603.546 226.94Z" fill="white" stroke="black" stroke-width="0.766249"/>
<path d="M593.277 241.648L596.976 246.187C596.976 246.187 598.1 239.604 600.268 235.981L595.356 236.808L593.277 241.648Z" fill="white" stroke="black" stroke-width="0.766249"/>
<path d="M596.036 260.691L600.596 260.691C600.596 260.691 598.621 257.379 597.304 252.441L593.367 256.15L596.036 260.691Z" fill="white" stroke="black" stroke-width="0.766249"/>
<path d="M654.62 257.064L650.638 252.112C650.638 252.112 649.589 257.701 647.017 261.05L651.998 261.632L654.62 257.064Z" fill="white" stroke="black" stroke-width="0.766249"/>
<path d="M608.828 272.853L613.107 269.56C613.107 269.56 608.457 267.914 604.358 264.622L604.358 270.624L608.828 272.853Z" fill="white" stroke="black" stroke-width="0.766249"/>
<path d="M645.041 269.728L643.843 264.623C643.843 264.623 639.603 267.511 634.835 269.728L639.886 273.205L645.041 269.728Z" fill="white" stroke="black" stroke-width="0.766249"/>
<path d="M626.09 275.887L628.252 270.878C628.252 270.878 622.247 271.306 618.046 270.878L620.826 276.054L626.09 275.887Z" fill="white" stroke="black" stroke-width="0.766249"/>
<path d="M650.873 227.563C650.873 205.615 689.438 205.616 689.438 227.563C689.438 249.511 650.873 249.511 650.873 227.563Z" fill="white" stroke="black" stroke-width="0.547321"/>
<path d="M656.145 227.216C656.275 210.746 684.558 210.969 684.428 227.438C684.299 243.907 656.015 243.685 656.145 227.216Z" fill="#001431" stroke="black" stroke-width="0.547321"/>
<path d="M664.553 227.645C664.609 220.637 675.813 220.726 675.758 227.733C675.703 234.74 664.498 234.652 664.553 227.645Z" fill="white" stroke="black" stroke-width="0.547321"/>
<path d="M667.824 227.692C667.85 224.384 672.985 224.424 672.959 227.733C672.933 231.041 667.798 231.001 667.824 227.692Z" fill="white" stroke="black" stroke-width="0.547321"/>
<path d="M666.863 223.329L662.395 216.745C661.288 217.409 659.318 219.215 658.633 220.037L664.982 225.446C665.74 224.316 666.146 223.925 666.863 223.329Z" fill="white" stroke="black" stroke-width="0.547321"/>
<path d="M675.563 229.679C674.985 230.894 674.053 231.791 673.444 232.471L675.563 235.088L677.915 237.91C679.326 237.204 680.502 236.479 681.051 235.579L675.563 229.679Z" fill="white" stroke="black" stroke-width="0.547321"/>
<path d="M675.393 225.541L682.523 220.966C681.781 219.87 680 218.123 679.092 217.451L673.213 223.095C674.459 223.834 674.731 224.834 675.393 225.541Z" fill="white" stroke="black" stroke-width="0.547321"/>
<path d="M664.983 230.149L660.077 235.628C660.077 236.263 662.595 237.942 663.572 238.38L667.099 232.266C666.158 231.796 665.453 231.09 664.983 230.149Z" fill="white" stroke="black" stroke-width="0.547321"/>
<path d="M669.214 208.045L667.568 211.102C667.568 211.102 671.398 210.935 674.388 211.337L672.977 208.045H669.214Z" fill="white" stroke="black" stroke-width="0.547321"/>
<path d="M683.505 211.305L679.563 212.748C679.563 212.748 683.571 214.615 685.442 216.981L686.382 213.454L683.505 211.305Z" fill="white" stroke="black" stroke-width="0.547321"/>
<path d="M691.196 221.133L687.781 220.51C687.781 220.51 689.438 223.8 689.438 227.563L692.357 224.712L691.196 221.133Z" fill="white" stroke="black" stroke-width="0.547321"/>
<path d="M655.567 212.403L655.768 215.87C655.768 215.87 658.942 213.719 661.698 212.494L658.77 210.431L655.567 212.403Z" fill="white" stroke="black" stroke-width="0.547321"/>
<path d="M648.231 222.909L650.873 226.151C650.873 226.151 651.676 221.45 653.225 218.862L649.716 219.452L648.231 222.909Z" fill="white" stroke="black" stroke-width="0.547321"/>
<path d="M650.204 236.513L653.461 236.513C653.461 236.513 652.05 234.147 651.109 230.62L648.297 233.269L650.204 236.513Z" fill="white" stroke="black" stroke-width="0.547321"/>
<path d="M692.048 233.922L689.204 230.385C689.204 230.385 688.454 234.377 686.617 236.769L690.174 237.185L692.048 233.922Z" fill="white" stroke="black" stroke-width="0.547321"/>
<path d="M659.339 245.199L662.396 242.847C662.396 242.847 659.075 241.672 656.146 239.32L656.146 243.607L659.339 245.199Z" fill="white" stroke="black" stroke-width="0.547321"/>
<path d="M685.205 242.967L684.349 239.32C684.349 239.32 681.32 241.383 677.915 242.967L681.523 245.45L685.205 242.967Z" fill="white" stroke="black" stroke-width="0.547321"/>
<path d="M671.668 247.367L673.212 243.789C673.212 243.789 668.923 244.095 665.922 243.789L667.907 247.486L671.668 247.367Z" fill="white" stroke="black" stroke-width="0.547321"/>
<path d="M46.4375 242.048C46.4375 220.1 85.0026 220.101 85.0026 242.048C85.0026 263.996 46.4375 263.996 46.4375 242.048Z" fill="white" stroke="black" stroke-width="0.547321"/>
<path d="M51.7085 241.702C51.8381 225.233 80.1215 225.455 79.992 241.924C79.8624 258.393 51.579 258.171 51.7085 241.702Z" fill="#000D20" stroke="black" stroke-width="0.547321"/>
<path d="M60.1169 242.13C60.172 235.123 71.3767 235.211 71.3215 242.218C71.2664 249.225 60.0617 249.137 60.1169 242.13Z" fill="white" stroke="black" stroke-width="0.547321"/>
<path d="M63.3887 242.178C63.4147 238.869 68.549 238.91 68.523 242.218C68.497 245.527 63.3627 245.486 63.3887 242.178Z" fill="white" stroke="black" stroke-width="0.547321"/>
<path d="M62.4296 237.815L57.9617 231.23C56.8548 231.894 54.8848 233.701 54.1992 234.523L60.5483 239.931C61.3059 238.802 61.7124 238.411 62.4296 237.815Z" fill="white" stroke="black" stroke-width="0.547321"/>
<path d="M71.1278 244.165C70.5494 245.379 69.6176 246.276 69.0089 246.956L71.1278 249.573L73.4794 252.395C74.8903 251.69 76.066 250.964 76.6153 250.064L71.1278 244.165Z" fill="white" stroke="black" stroke-width="0.547321"/>
<path d="M70.9574 240.027L78.0875 235.452C77.3452 234.356 75.5649 232.609 74.6562 231.937L68.7774 237.58C70.0233 238.319 70.2954 239.319 70.9574 240.027Z" fill="white" stroke="black" stroke-width="0.547321"/>
<path d="M60.5471 244.635L55.6416 250.114C55.6416 250.749 58.1593 252.427 59.1361 252.865L62.6635 246.751C61.7229 246.281 61.0174 245.575 60.5471 244.635Z" fill="white" stroke="black" stroke-width="0.547321"/>
<path d="M64.7808 222.53L63.1348 225.587C63.1348 225.587 66.9649 225.421 69.9542 225.822L68.5433 222.53H64.7808Z" fill="white" stroke="black" stroke-width="0.547321"/>
<path d="M79.0682 225.791L75.1266 227.234C75.1266 227.234 79.1346 229.101 81.0054 231.466L81.946 227.939L79.0682 225.791Z" fill="white" stroke="black" stroke-width="0.547321"/>
<path d="M86.7607 235.619L83.345 234.996C83.345 234.996 85.0026 238.285 85.0026 242.048L87.9214 239.197L86.7607 235.619Z" fill="white" stroke="black" stroke-width="0.547321"/>
<path d="M51.1331 226.889L51.3344 230.355C51.3344 230.355 54.5085 228.205 57.2644 226.979L54.3368 224.916L51.1331 226.889Z" fill="white" stroke="black" stroke-width="0.547321"/>
<path d="M43.7953 237.395L46.4377 240.637C46.4377 240.637 47.2404 235.935 48.7892 233.347L45.2803 233.938L43.7953 237.395Z" fill="white" stroke="black" stroke-width="0.547321"/>
<path d="M45.7671 250.998L49.0244 250.998C49.0244 250.998 47.6135 248.632 46.6729 245.105L43.8605 247.754L45.7671 250.998Z" fill="white" stroke="black" stroke-width="0.547321"/>
<path d="M87.6124 248.407L84.7681 244.87C84.7681 244.87 84.0182 248.862 82.1814 251.255L85.7389 251.67L87.6124 248.407Z" fill="white" stroke="black" stroke-width="0.547321"/>
<path d="M54.9038 259.684L57.9608 257.333C57.9608 257.333 54.6392 256.157 51.7109 253.806L51.7109 258.092L54.9038 259.684Z" fill="white" stroke="black" stroke-width="0.547321"/>
<path d="M80.7712 257.452L79.9158 253.805C79.9158 253.805 76.8868 255.868 73.4814 257.452L77.0895 259.936L80.7712 257.452Z" fill="white" stroke="black" stroke-width="0.547321"/>
<path d="M67.2325 261.852L68.7765 258.274C68.7765 258.274 64.4873 258.58 61.4867 258.274L63.4719 261.972L67.2325 261.852Z" fill="white" stroke="black" stroke-width="0.547321"/>
<path d="M90.7676 249.325C90.7676 218.598 144.759 218.598 144.759 249.325C144.759 280.051 90.7676 280.052 90.7676 249.325Z" fill="white" stroke="black" stroke-width="0.766249"/>
<path d="M98.1472 248.839C98.3285 225.783 137.925 226.094 137.744 249.151C137.563 272.208 97.9658 271.896 98.1472 248.839Z" fill="#000D20" stroke="black" stroke-width="0.766249"/>
<path d="M109.921 249.44C109.998 239.629 125.684 239.753 125.607 249.563C125.53 259.373 109.843 259.25 109.921 249.44Z" fill="white" stroke="black" stroke-width="0.766249"/>
<path d="M114.5 249.506C114.536 244.874 121.724 244.931 121.688 249.563C121.652 254.195 114.464 254.138 114.5 249.506Z" fill="white" stroke="black" stroke-width="0.766249"/>
<path d="M113.156 243.399L106.901 234.181C105.352 235.11 102.594 237.639 101.634 238.79L110.523 246.362C111.583 244.78 112.152 244.233 113.156 243.399Z" fill="white" stroke="black" stroke-width="0.766249"/>
<path d="M125.336 252.287C124.527 253.987 123.222 255.243 122.37 256.195L125.336 259.859L128.629 263.81C130.604 262.822 132.25 261.807 133.019 260.546L125.336 252.287Z" fill="white" stroke="black" stroke-width="0.766249"/>
<path d="M125.095 246.494L135.078 240.089C134.038 238.554 131.546 236.109 130.274 235.168L122.043 243.069C123.788 244.104 124.169 245.503 125.095 246.494Z" fill="white" stroke="black" stroke-width="0.766249"/>
<path d="M110.522 252.946L103.654 260.616C103.654 261.505 107.179 263.855 108.547 264.468L113.485 255.909C112.168 255.25 111.18 254.263 110.522 252.946Z" fill="white" stroke="black" stroke-width="0.766249"/>
<path d="M116.448 222L114.144 226.28C114.144 226.28 119.506 226.047 123.691 226.609L121.715 222H116.448Z" fill="white" stroke="black" stroke-width="0.766249"/>
<path d="M136.451 226.564L130.933 228.584C130.933 228.584 136.544 231.197 139.163 234.51L140.48 229.571L136.451 226.564Z" fill="white" stroke="black" stroke-width="0.766249"/>
<path d="M147.221 240.323L142.439 239.452C142.439 239.452 144.759 244.057 144.759 249.325L148.846 245.334L147.221 240.323Z" fill="white" stroke="black" stroke-width="0.766249"/>
<path d="M97.3392 228.103L97.6211 232.955C97.6211 232.955 102.065 229.945 105.923 228.229L101.824 225.341L97.3392 228.103Z" fill="white" stroke="black" stroke-width="0.766249"/>
<path d="M87.0696 242.811L90.769 247.35C90.769 247.35 91.8928 240.768 94.0612 237.144L89.1486 237.971L87.0696 242.811Z" fill="white" stroke="black" stroke-width="0.766249"/>
<path d="M89.829 261.854L94.3892 261.854C94.3892 261.854 92.414 258.542 91.0971 253.604L87.1598 257.313L89.829 261.854Z" fill="white" stroke="black" stroke-width="0.766249"/>
<path d="M148.413 258.227L144.431 253.275C144.431 253.275 143.381 258.864 140.81 262.213L145.791 262.795L148.413 258.227Z" fill="white" stroke="black" stroke-width="0.766249"/>
<path d="M102.621 274.016L106.9 270.723C106.9 270.723 102.25 269.077 98.1505 265.785L98.1505 271.787L102.621 274.016Z" fill="white" stroke="black" stroke-width="0.766249"/>
<path d="M138.834 270.891L137.636 265.786C137.636 265.786 133.396 268.674 128.628 270.891L133.679 274.368L138.834 270.891Z" fill="white" stroke="black" stroke-width="0.766249"/>
<path d="M119.883 277.05L122.045 272.041C122.045 272.041 116.04 272.47 111.839 272.041L114.619 277.217L119.883 277.05Z" fill="white" stroke="black" stroke-width="0.766249"/>
<path d="M571.298 245.857L596.977 246.186C597.306 248.82 596.674 250.028 597.306 252.441L571.627 252.77C571.87 250.532 571.488 248.689 571.298 245.857Z" fill="#D9D9D9" stroke="black" stroke-width="0.766249"/>
<path d="M569.508 335.075H680.926C682.926 335.075 684.547 333.453 684.547 331.453C684.547 329.453 682.926 327.832 680.926 327.832H569.508C567.948 327.832 566.563 328.831 566.071 330.311C565.292 332.655 567.037 335.075 569.508 335.075Z" fill="#FFB82A" stroke="black" stroke-width="0.766249"/>
<path d="M175.446 331.955L64.0311 331.151C62.0312 331.136 60.3982 332.746 60.3837 334.746C60.3693 336.746 61.9789 338.379 63.9789 338.393L175.394 339.197C176.954 339.208 178.345 338.22 178.848 336.743C179.644 334.404 177.917 331.972 175.446 331.955Z" fill="#FFB82A" stroke="black" stroke-width="0.766249"/>
<path d="M172.641 250.137L144.987 250.419C144.637 252.676 145.309 253.712 144.637 255.78L172.291 256.063C172.032 254.144 172.438 252.564 172.641 250.137Z" fill="#D9D9D9" stroke="black" stroke-width="0.766249"/>
<path d="M555.658 275.487H547.098C545.189 275.487 543.642 273.939 543.642 272.03C543.642 270.121 545.189 268.573 547.098 268.573H555.658C557.567 268.573 559.115 270.121 559.115 272.03C559.115 273.939 557.567 275.487 555.658 275.487Z" fill="#008000"/>
<path d="M196.816 278.779H188.257C186.347 278.779 184.8 277.232 184.8 275.322C184.8 273.413 186.347 271.866 188.257 271.866H196.816C198.725 271.866 200.273 273.413 200.273 275.322C200.273 277.232 198.725 278.779 196.816 278.779Z" fill="#008000"/>
<path d="M688.496 315.321V307.42C688.496 305.602 687.022 304.128 685.204 304.128C683.386 304.128 681.912 305.602 681.912 307.42V315.321C681.912 317.139 683.386 318.613 685.204 318.613C687.022 318.613 688.496 317.139 688.496 315.321Z" fill="#D9D9D9" stroke="black" stroke-width="0.766249"/>
<path d="M62.9905 319.272V311.371C62.9905 309.553 61.5166 308.079 59.6984 308.079C57.8802 308.079 56.4062 309.553 56.4062 311.371V319.272C56.4062 321.09 57.8802 322.564 59.6984 322.564C61.5166 322.564 62.9905 321.09 62.9905 319.272Z" fill="#D9D9D9" stroke="black" stroke-width="0.766249"/>
<path d="M706.394 299.809L706.589 298.634C706.782 297.466 706.028 296.347 704.875 296.08C703.657 295.798 702.451 296.568 702.185 297.79L701.931 298.954C701.766 299.716 702.068 300.575 702.624 301.122C703.936 302.414 706.093 301.626 706.394 299.809Z" fill="#D9D9D9" stroke="black" stroke-width="0.766249"/>
<path d="M706.299 307.768L706.441 307.006C706.692 305.657 705.819 304.355 704.475 304.078C703.148 303.805 701.842 304.63 701.519 305.945L701.335 306.698C701.109 307.619 701.488 308.652 702.201 309.277C703.682 310.572 705.938 309.702 706.299 307.768Z" fill="#D9D9D9" stroke="black" stroke-width="0.766249"/>
<path d="M706.299 316.302L706.441 315.54C706.692 314.191 705.819 312.889 704.475 312.613C703.148 312.34 701.842 313.164 701.519 314.48L701.335 315.233C701.109 316.154 701.488 317.187 702.201 317.811C703.682 319.107 705.938 318.237 706.299 316.302Z" fill="#D9D9D9" stroke="black" stroke-width="0.766249"/>
<path d="M688.825 308.079C694.267 305.751 697.162 303.642 701.994 298.202V300.177C696.825 305.429 693.948 307.324 688.825 310.054V308.079Z" fill="#D9D9D9" stroke="black" stroke-width="0.766249"/>
<path d="M688.497 310.713C694.388 310.146 694.72 309.566 700.975 305.848L700.975 307.5C694.456 310.936 694.206 311.312 688.497 312.359L688.497 310.713Z" fill="#D9D9D9" stroke="black" stroke-width="0.766249"/>
<path d="M688.826 313.675C693.975 316.596 694.423 313.126 701.679 313.675L700.967 315.651C693.658 314.719 693.435 317.626 688.826 315.651L688.826 313.675Z" fill="#D9D9D9" stroke="black" stroke-width="0.766249"/>
<path d="M706.656 190.495V319.247C706.656 321.99 708.88 324.213 711.622 324.213H728.716C731.458 324.213 733.682 321.99 733.682 319.247V190.495C733.682 187.753 731.458 185.529 728.716 185.529H711.622C708.88 185.529 706.656 187.753 706.656 190.495Z" fill="#FFB82A"/>
<path d="M729.783 185.529H710.911C708.169 185.529 705.945 183.306 705.945 180.563V176.982C705.945 174.239 708.169 172.016 710.911 172.016H729.783C732.526 172.016 734.749 174.239 734.749 176.982V180.563C734.749 183.306 732.526 185.529 729.783 185.529Z" fill="#FFB82A" stroke="black" stroke-width="0.82766"/>
<path d="M723.726 287.942C723.726 284.149 730.838 284.149 730.838 287.942C730.838 291.735 723.726 291.735 723.726 287.942Z" fill="#008000" stroke="black" stroke-width="0.766249"/>
<path d="M723.726 297.188C723.726 293.394 730.838 293.395 730.838 297.188C730.838 300.981 723.726 300.981 723.726 297.188Z" fill="#008000" stroke="black" stroke-width="0.766249"/>
<path d="M714.125 149.258V171.661H726.215V149.258H714.125Z" fill="#FFB82A" stroke="black" stroke-width="0.82766"/>
<path d="M27.8932 338.989H9.02163C6.279 338.989 4.05566 336.766 4.05566 334.023V330.442C4.05566 327.699 6.279 325.476 9.02163 325.476H27.8932C30.6359 325.476 32.8592 327.699 32.8592 330.442V334.023C32.8592 336.766 30.6359 338.989 27.8932 338.989Z" fill="#FFB82A" stroke="black" stroke-width="0.82766"/>
<path d="M4.85742 191.991V320.743C4.85742 323.485 7.08076 325.709 9.82338 325.709H26.917C29.6596 325.709 31.883 323.485 31.883 320.743V191.991C31.883 189.248 29.6596 187.025 26.917 187.025H9.82338C7.08075 187.025 4.85742 189.248 4.85742 191.991Z" fill="#FFB82A"/>
<path d="M27.8376 186.789H8.96596C6.22334 186.789 4 184.566 4 181.823V178.242C4 175.5 6.22334 173.276 8.96596 173.276H27.8376C30.5802 173.276 32.8035 175.5 32.8035 178.242V181.823C32.8035 184.566 30.5802 186.789 27.8376 186.789Z" fill="#FFB82A" stroke="black" stroke-width="0.82766"/>
<path d="M12.5928 150.934V173.337H24.6831V150.934H12.5928Z" fill="#FFB82A" stroke="black" stroke-width="0.82766"/>
<path d="M9.15527 287.828C9.15527 284.035 16.2673 284.035 16.2673 287.828C16.2673 291.621 9.15527 291.621 9.15527 287.828Z" stroke="black" stroke-width="0.766249"/>
<path d="M9.15527 298.14C9.15527 294.347 16.2673 294.347 16.2673 298.14C16.2673 301.933 9.15527 301.933 9.15527 298.14Z" stroke="black" stroke-width="0.766249"/>
<path d="M31.8127 298.492L32.0553 297.351C32.2963 296.218 33.383 295.468 34.5288 295.637C35.7394 295.815 36.5637 296.947 36.3695 298.155L36.1844 299.307C36.0633 300.061 35.4807 300.735 34.7788 301.035C33.1216 301.743 31.4378 300.254 31.8127 298.492Z" fill="#D9D9D9" stroke="black" stroke-width="0.75"/>
<path d="M36.8272 308.068L36.9692 307.306C37.2206 305.957 36.3474 304.655 35.0033 304.378C33.6767 304.105 32.3698 304.93 32.0477 306.245L31.8633 306.998C31.6377 307.92 32.0159 308.952 32.7296 309.577C34.2104 310.873 36.4668 310.002 36.8272 308.068Z" fill="#D9D9D9" stroke="black" stroke-width="0.766249"/>
<path d="M36.8272 316.661L36.9692 315.899C37.2206 314.55 36.3474 313.248 35.0033 312.971C33.6767 312.698 32.3698 313.523 32.0477 314.838L31.8633 315.591C31.6377 316.512 32.0159 317.545 32.7296 318.17C34.2104 319.465 36.4668 318.595 36.8272 316.661Z" fill="#D9D9D9" stroke="black" stroke-width="0.766249"/>
<path d="M56.4164 317.31C53.2561 316.267 44.1849 317.89 36.5233 317.31L37.2743 315.224C44.9931 316.208 51.5492 313.138 56.4164 315.224L56.4164 317.31Z" fill="#D9D9D9" stroke="black" stroke-width="0.809169"/>
<path d="M784.999 71.0718H655.999C653.238 71.0718 650.999 73.3104 650.999 76.0718V142.965C650.999 145.727 653.238 147.965 655.999 147.965H784.999C787.76 147.965 789.999 145.727 789.999 142.965V76.0718C789.999 73.3104 787.76 71.0718 784.999 71.0718Z" fill="url(#paint4_linear_966_331)" stroke="#0F0F0F" stroke-width="4"/>
<rect x="660.444" y="81.5171" width="36.432" height="3.37334" rx="1.68667" fill="url(#paint5_linear_966_331)"/>
<rect x="660.444" y="88.9385" width="53.9734" height="3.37334" rx="1.68667" fill="url(#paint6_linear_966_331)"/>
<rect x="660.444" y="96.3594" width="36.432" height="3.37334" rx="1.68667" fill="url(#paint7_linear_966_331)"/>
<path d="M711.908 125.382C714.336 127.332 725.341 130.622 732.877 122.251C726.763 126.867 722.322 125.771 719.521 124.25C716.719 122.729 716.911 120.736 716.666 118.077C716.421 115.419 716.666 113.762 716.666 113.762C716.666 110.896 719.644 107.837 722.375 108.827V101.597L708.241 101.986C708.241 101.986 703.63 110.166 703.624 111.024C703.618 111.883 704.012 115.588 704.84 117.162C705.668 118.735 709.481 123.433 711.908 125.382Z" fill="url(#paint8_radial_966_331)" fill-opacity="0.1"/>
<path d="M735.906 117.748C745.428 91.3207 705.04 83.8391 703.624 111.141C703.624 111.141 705.305 107.623 708.774 109.98C712.243 112.337 709.288 107.623 709.288 106.802C709.288 105.981 707.999 102.471 713.818 108.07C719.638 113.669 711.518 100.713 715.34 104.57C719.163 108.427 717.287 104.57 720.202 104.57C723.117 104.57 722.096 113.123 724.26 113.123C726.425 113.123 726.848 108.016 727.835 113.123C728.823 118.23 730.172 117.373 730.335 116.694C730.499 116.016 732.866 109.802 732.559 116.355C732.252 122.908 735.306 118.988 735.906 117.748Z" fill="url(#paint9_radial_966_331)" fill-opacity="0.1"/>
<path d="M728.71 103.391C731.86 103.128 734.591 106.106 734.434 104.222C734.276 102.338 731.595 101.024 728.445 101.288C725.295 101.551 722.869 103.291 723.026 105.175C723.184 107.059 725.56 103.654 728.71 103.391Z" fill="white" fill-opacity="0.1"/>
<path d="M724.291 99.4944C727.556 98.0044 731.617 100.139 730.726 98.1862C729.835 96.2336 726.466 95.8586 723.201 97.3486C719.936 98.8385 718.011 101.629 718.902 103.582C719.793 105.535 721.026 100.984 724.291 99.4944Z" fill="white" fill-opacity="0.1"/>
<path d="M713.006 100.096C716.922 97.5798 722.53 99.5693 721.025 97.2273C719.521 94.8853 715.126 95.0265 711.21 97.5427C707.294 100.059 705.339 103.997 706.844 106.339C708.348 108.681 709.09 102.612 713.006 100.096Z" fill="white" fill-opacity="0.1"/>
<path d="M730.657 107.143C732.511 107.39 733.713 109.458 733.861 108.349C734.009 107.24 732.625 106.14 730.77 105.893C728.916 105.646 727.292 106.344 727.144 107.454C726.996 108.563 728.802 106.895 730.657 107.143Z" fill="white" fill-opacity="0.1"/>
<path d="M731.434 110.536C732.879 110.729 733.816 112.342 733.931 111.477C734.046 110.612 732.968 109.755 731.522 109.562C730.076 109.37 728.811 109.914 728.696 110.779C728.58 111.644 729.988 110.344 731.434 110.536Z" fill="white" fill-opacity="0.1"/>
<path d="M716.814 113.791C712.912 114.337 713.765 123.746 714.654 121.561C715.542 119.376 715.786 117.068 716.814 118.108C717.842 119.147 718.556 118.707 717.963 118.108C717.371 117.509 717.005 116.169 718.922 118.108C720.838 120.046 719.845 117.103 720.838 118.108C721.831 119.112 722.336 119.006 722.336 118.108C722.336 117.209 721.883 116.028 721.883 116.028C721.883 116.028 720.716 113.245 716.814 113.791Z" fill="url(#paint10_radial_966_331)" fill-opacity="0.1"/>
<path d="M704.828 117.167C705.865 120.57 710.543 125.232 711.832 125.315C713.121 125.399 712.669 118.497 711.128 121.065C709.588 123.633 706.873 119.035 708.594 119.036C710.315 119.037 710.917 116.691 710.143 117.467C709.368 118.243 707.878 117.979 707.292 116.691C706.705 115.403 708.387 115.601 709.192 115.915C708.488 113.957 703.79 113.764 704.828 117.167Z" fill="url(#paint11_radial_966_331)" fill-opacity="0.1"/>
<path d="M715.976 115.582C716.532 115.051 717.504 115.197 717.186 114.865C716.869 114.532 716.161 114.694 715.605 115.225C715.049 115.756 714.856 116.456 715.174 116.789C715.492 117.121 715.421 116.114 715.976 115.582Z" fill="white" fill-opacity="0.1"/>
<path d="M707.163 118.961C707.259 118.487 707.814 118.213 707.53 118.155C707.247 118.098 706.939 118.436 706.843 118.91C706.747 119.385 706.899 119.816 707.183 119.873C707.466 119.931 707.067 119.436 707.163 118.961Z" fill="white" fill-opacity="0.1"/>
<path d="M711.482 123.457C711.578 122.983 712.132 122.709 711.849 122.651C711.565 122.594 711.257 122.932 711.161 123.406C711.065 123.88 711.217 124.311 711.501 124.369C711.785 124.426 711.386 123.931 711.482 123.457Z" fill="white" fill-opacity="0.1"/>
<path d="M710.526 122.855C710.622 122.381 711.176 122.107 710.893 122.05C710.609 121.992 710.301 122.33 710.205 122.804C710.109 123.279 710.261 123.71 710.545 123.767C710.828 123.825 710.43 123.33 710.526 122.855Z" fill="white" fill-opacity="0.1"/>
<path d="M706.207 117.828C706.303 117.354 706.858 117.08 706.574 117.022C706.291 116.965 705.983 117.303 705.887 117.777C705.791 118.251 705.943 118.682 706.226 118.74C706.51 118.797 706.111 118.302 706.207 117.828Z" fill="white" fill-opacity="0.1"/>
<path d="M705.712 116.306C705.808 115.832 706.363 115.558 706.079 115.5C705.796 115.443 705.488 115.781 705.392 116.255C705.296 116.729 705.448 117.16 705.731 117.218C706.015 117.275 705.616 116.78 705.712 116.306Z" fill="white" fill-opacity="0.1"/>
<path d="M716.872 116.002C717.247 115.644 717.902 115.743 717.687 115.519C717.473 115.295 716.996 115.403 716.622 115.761C716.247 116.119 716.117 116.591 716.331 116.815C716.545 117.039 716.497 116.36 716.872 116.002Z" fill="white" fill-opacity="0.1"/>
<path d="M717.594 116.555C717.888 116.274 718.402 116.351 718.234 116.175C718.066 115.999 717.691 116.085 717.397 116.366C717.103 116.647 717.001 117.018 717.169 117.194C717.337 117.369 717.299 116.836 717.594 116.555Z" fill="white" fill-opacity="0.1"/>
<circle cx="20.3093" cy="12.1853" r="12.1853" fill="white" fill-opacity="0.1"/>
<circle cx="54.4275" cy="79.6106" r="12.1853" fill="white" fill-opacity="0.1"/>
<circle cx="12.1853" cy="117.791" r="12.1853" fill="white" fill-opacity="0.1"/>
<path d="M20.2325 19.0444C17.0967 18.9392 14.7491 15.6871 14.6861 17.5623C14.6232 19.4376 17.1142 21.0431 20.25 21.1483C23.3857 21.2536 25.9787 19.8187 26.0417 17.9434C26.1046 16.0681 23.3682 19.1497 20.2325 19.0444Z" fill="white"/>
<path d="M56.3471 86.1198C53.3154 86.9277 50.1261 84.4953 50.6093 86.3084C51.0924 88.1214 53.9418 88.9363 56.9735 88.1284C60.0052 87.3205 62.0712 85.1958 61.5881 83.3827C61.1049 81.5697 59.3788 85.3119 56.3471 86.1198Z" fill="white"/>
<path d="M13.6612 124.414C10.727 125.525 7.30754 123.428 7.97204 125.183C8.63655 126.938 11.5539 127.46 14.488 126.348C17.4222 125.237 19.2621 122.914 18.5976 121.159C17.9331 119.405 16.5954 123.302 13.6612 124.414Z" fill="white"/>
<defs>
<radialGradient id="paint0_radial_966_331" cx="0" cy="0" r="1" gradientUnits="userSpaceOnUse" gradientTransform="translate(365.736 238.24) rotate(86.5501) scale(41.836 48.2437)">
<stop stop-color="#2C0DFF"/>
<stop offset="1" stop-color="#0066FF"/>
</radialGradient>
<radialGradient id="paint1_radial_966_331" cx="0" cy="0" r="1" gradientUnits="userSpaceOnUse" gradientTransform="translate(373.5 232.901) rotate(90) scale(29.6992 39.5)">
<stop stop-color="white"/>
<stop offset="1" stop-color="#00ECFF"/>
</radialGradient>
<radialGradient id="paint2_radial_966_331" cx="0" cy="0" r="1" gradientUnits="userSpaceOnUse" gradientTransform="translate(367.945 257.5) rotate(90) scale(9.29975 9.875)">
<stop stop-color="white"/>
<stop offset="1" stop-color="#00ECFF"/>
</radialGradient>
<radialGradient id="paint3_radial_966_331" cx="0" cy="0" r="1" gradientUnits="userSpaceOnUse" gradientTransform="translate(345.727 262.3) rotate(90) scale(12.2997 9.25781)">
<stop stop-color="white"/>
<stop offset="1" stop-color="#00ECFF"/>
</radialGradient>
<linearGradient id="paint4_linear_966_331" x1="650.999" y1="71.0718" x2="789.981" y2="152.369" gradientUnits="userSpaceOnUse">
<stop stop-color="#01204D"/>
<stop offset="1" stop-color="#0066FF"/>
</linearGradient>
<linearGradient id="paint5_linear_966_331" x1="660.444" y1="83.4447" x2="696.876" y2="83.4447" gradientUnits="userSpaceOnUse">
<stop stop-color="#0F70FF"/>
<stop offset="1" stop-color="#5AE1FF"/>
</linearGradient>
<linearGradient id="paint6_linear_966_331" x1="660.444" y1="90.8661" x2="714.418" y2="90.8661" gradientUnits="userSpaceOnUse">
<stop stop-color="#0F70FF"/>
<stop offset="1" stop-color="#5AE1FF"/>
</linearGradient>
<linearGradient id="paint7_linear_966_331" x1="660.444" y1="98.287" x2="696.876" y2="98.287" gradientUnits="userSpaceOnUse">
<stop stop-color="#0F70FF"/>
<stop offset="1" stop-color="#5AE1FF"/>
</linearGradient>
<radialGradient id="paint8_radial_966_331" cx="0" cy="0" r="1" gradientUnits="userSpaceOnUse" gradientTransform="translate(717.176 109.344) rotate(86.646) scale(18.3746 20.6023)">
<stop stop-color="#2C0DFF"/>
<stop offset="1" stop-color="#0066FF"/>
</radialGradient>
<radialGradient id="paint9_radial_966_331" cx="0" cy="0" r="1" gradientUnits="userSpaceOnUse" gradientTransform="translate(720.491 106.999) rotate(90) scale(13.0453 16.8667)">
<stop stop-color="white"/>
<stop offset="1" stop-color="#00ECFF"/>
</radialGradient>
<radialGradient id="paint10_radial_966_331" cx="0" cy="0" r="1" gradientUnits="userSpaceOnUse" gradientTransform="translate(718.119 117.805) rotate(90) scale(4.0849 4.21667)">
<stop stop-color="white"/>
<stop offset="1" stop-color="#00ECFF"/>
</radialGradient>
<radialGradient id="paint11_radial_966_331" cx="0" cy="0" r="1" gradientUnits="userSpaceOnUse" gradientTransform="translate(708.632 119.913) rotate(90) scale(5.40261 3.95313)">
<stop stop-color="white"/>
<stop offset="1" stop-color="#00ECFF"/>
</radialGradient>
</defs>
</svg>
