<svg width="484" height="278" viewBox="0 0 484 278" fill="none" xmlns="http://www.w3.org/2000/svg">
<path d="M0 15C0 6.71574 6.71573 0 15 0H468.19C476.474 0 483.19 6.71573 483.19 15V262.39C483.19 270.674 476.474 277.39 468.19 277.39H15C6.71571 277.39 0 270.674 0 262.39V15Z" fill="url(#paint0_linear_951_38)"/>
<ellipse rx="4.34747" ry="4.35365" transform="matrix(1 0 0 -1 25.4637 18.0365)" fill="#FF5E5E"/>
<ellipse rx="4.34747" ry="4.35365" transform="matrix(1 0 0 -1 55.2752 18.0365)" fill="#A7FF50"/>
<ellipse rx="4.34747" ry="4.35365" transform="matrix(1 0 0 -1 41.6121 18.0362)" fill="#FFED50"/>
<rect x="70.3672" y="31.9705" width="342.455" height="213.449" rx="15" fill="white"/>
<path d="M98.5957 80.4103C101.094 82.3638 112.419 85.6594 120.174 77.2733C113.882 81.898 109.313 80.7994 106.429 79.2756C103.546 77.7517 103.744 75.7549 103.492 73.0916C103.239 70.4283 103.492 68.7682 103.492 68.7682C103.492 65.8977 106.556 62.8323 109.367 63.8246V56.5811L94.8217 56.9709C94.8217 56.9709 90.0761 65.1657 90.0704 66.026C90.0646 66.8863 90.4693 70.5982 91.3216 72.1745C92.1738 73.7508 96.0976 78.4568 98.5957 80.4103Z" fill="url(#paint1_radial_951_38)"/>
<path d="M123.291 72.7611C133.09 46.2856 91.5274 38.7904 90.0703 66.1423C90.0703 66.1423 91.8006 62.6181 95.3704 64.9794C98.9401 67.3408 95.8985 62.6181 95.8985 61.7952C95.8985 60.9724 94.5726 57.4564 100.561 63.0653C106.55 68.6743 98.1934 55.6952 102.127 59.5592C106.062 63.4231 104.131 59.5592 107.131 59.5592C110.13 59.5592 109.079 68.1279 111.307 68.1279C113.534 68.1279 113.97 63.0117 114.986 68.1279C116.002 73.2441 117.39 72.3854 117.559 71.7056C117.727 71.0258 120.163 64.8008 119.847 71.3657C119.531 77.9307 122.674 74.003 123.291 72.7611Z" fill="url(#paint2_radial_951_38)"/>
<path d="M115.884 58.3783C119.126 58.1146 121.937 61.0983 121.775 59.2111C121.613 57.3238 118.854 56.0076 115.612 56.2713C112.37 56.535 109.874 58.2787 110.036 60.166C110.198 62.0533 112.643 58.642 115.884 58.3783Z" fill="white" fill-opacity="0.7"/>
<path d="M111.338 54.4738C114.698 52.9811 118.878 55.1195 117.961 53.1633C117.044 51.2071 113.577 50.8314 110.217 52.3241C106.857 53.8168 104.876 56.6127 105.793 58.5688C106.71 60.525 107.978 55.9665 111.338 54.4738Z" fill="white" fill-opacity="0.7"/>
<path d="M99.7242 55.0774C103.754 52.5566 109.526 54.5498 107.977 52.2035C106.429 49.8573 101.906 49.9987 97.8762 52.5195C93.8461 55.0403 91.8344 58.9858 93.3829 61.332C94.9315 63.6783 95.6941 57.5982 99.7242 55.0774Z" fill="white" fill-opacity="0.7"/>
<path d="M117.889 62.1362C119.797 62.3839 121.034 64.456 121.186 63.3448C121.338 62.2337 119.914 61.1321 118.006 60.8843C116.097 60.6366 114.426 61.3366 114.274 62.4477C114.122 63.5589 115.98 61.8885 117.889 62.1362Z" fill="white" fill-opacity="0.7"/>
<path d="M118.689 65.5356C120.178 65.7287 121.142 67.3444 121.26 66.478C121.379 65.6116 120.269 64.7526 118.781 64.5595C117.292 64.3663 115.99 64.9121 115.871 65.7785C115.752 66.6449 117.201 65.3424 118.689 65.5356Z" fill="white" fill-opacity="0.7"/>
<path d="M103.643 68.7965C99.6272 69.3437 100.506 78.7698 101.42 76.581C102.334 74.3921 102.585 72.0797 103.643 73.1212C104.7 74.1627 105.435 73.7214 104.826 73.1212C104.216 72.521 103.84 71.1795 105.812 73.1212C107.784 75.0629 106.762 72.115 107.784 73.1212C108.805 74.1274 109.325 74.0214 109.325 73.1212C109.325 72.221 108.859 71.0383 108.859 71.0383C108.859 71.0383 107.658 68.2493 103.643 68.7965Z" fill="url(#paint3_radial_951_38)"/>
<path d="M91.3086 72.1793C92.3765 75.5883 97.1901 80.259 98.5168 80.3425C99.8435 80.426 99.3777 73.5116 97.7924 76.0842C96.207 78.6568 93.413 74.0513 95.1844 74.0522C96.9557 74.0532 97.575 71.7022 96.7782 72.4797C95.9813 73.2571 94.4476 72.9927 93.8442 71.7022C93.2407 70.4118 94.9716 70.6107 95.8002 70.9248C95.0757 68.9635 90.2407 68.7704 91.3086 72.1793Z" fill="url(#paint4_radial_951_38)"/>
<path d="M102.782 70.5925C103.354 70.0603 104.354 70.2065 104.027 69.8735C103.7 69.5406 102.972 69.7022 102.4 70.2344C101.828 70.7667 101.629 71.4682 101.956 71.8011C102.283 72.1341 102.21 71.1248 102.782 70.5925Z" fill="white" fill-opacity="0.7"/>
<path d="M93.712 73.9764C93.8109 73.5012 94.3817 73.2266 94.0898 73.169C93.7978 73.1115 93.481 73.45 93.3822 73.9252C93.2833 74.4004 93.4398 74.8323 93.7317 74.8899C94.0236 74.9474 93.6131 74.4516 93.712 73.9764Z" fill="white" fill-opacity="0.7"/>
<path d="M98.1583 78.48C98.2572 78.0049 98.828 77.7303 98.536 77.6727C98.2441 77.6151 97.9273 77.9537 97.8285 78.4289C97.7296 78.9041 97.8861 79.336 98.178 79.3935C98.4699 79.4511 98.0594 78.9552 98.1583 78.48Z" fill="white" fill-opacity="0.7"/>
<path d="M97.1759 77.877C97.2747 77.4018 97.8455 77.1272 97.5536 77.0697C97.2617 77.0121 96.9449 77.3507 96.846 77.8259C96.7472 78.3011 96.9036 78.7329 97.1955 78.7905C97.4875 78.8481 97.077 78.3522 97.1759 77.877Z" fill="white" fill-opacity="0.7"/>
<path d="M92.7276 72.8402C92.8265 72.365 93.3973 72.0904 93.1054 72.0328C92.8135 71.9752 92.4967 72.3138 92.3978 72.789C92.2989 73.2642 92.4554 73.6961 92.7473 73.7536C93.0392 73.8112 92.6287 73.3154 92.7276 72.8402Z" fill="white" fill-opacity="0.7"/>
<path d="M92.2169 71.3162C92.3157 70.841 92.8866 70.5665 92.5946 70.5089C92.3027 70.4513 91.9859 70.7899 91.887 71.2651C91.7882 71.7403 91.9447 72.1722 92.2366 72.2297C92.5285 72.2873 92.118 71.7914 92.2169 71.3162Z" fill="white" fill-opacity="0.7"/>
<path d="M103.703 71.0124C104.088 70.6537 104.762 70.7522 104.542 70.5278C104.322 70.3034 103.831 70.4123 103.445 70.7711C103.06 71.1298 102.926 71.6026 103.146 71.827C103.367 72.0514 103.317 71.3712 103.703 71.0124Z" fill="white" fill-opacity="0.7"/>
<path d="M104.447 71.5651C104.75 71.2834 105.279 71.3608 105.106 71.1846C104.933 71.0083 104.547 71.0939 104.244 71.3756C103.942 71.6573 103.837 72.0286 104.01 72.2049C104.183 72.3811 104.144 71.8469 104.447 71.5651Z" fill="white" fill-opacity="0.7"/>
<rect x="179.203" y="132.582" width="22.5176" height="68.6423" rx="10" fill="#D9D9D9"/>
<rect x="213.918" y="94.0291" width="22.5176" height="107.195" rx="10" fill="url(#paint5_linear_951_38)"/>
<rect x="245.818" y="118.477" width="22.5176" height="82.7468" rx="10" fill="#D9D9D9"/>
<rect x="280.533" y="77.104" width="22.5176" height="124.12" rx="10" fill="url(#paint6_linear_951_38)"/>
<defs>
<linearGradient id="paint0_linear_951_38" x1="30.9989" y1="29.9754" x2="591.549" y2="362.317" gradientUnits="userSpaceOnUse">
<stop stop-color="#01204D"/>
<stop offset="1" stop-color="#0066FF"/>
</linearGradient>
<radialGradient id="paint1_radial_951_38" cx="0" cy="0" r="1" gradientUnits="userSpaceOnUse" gradientTransform="translate(104.016 64.3428) rotate(86.555) scale(18.4099 21.1996)">
<stop stop-color="#2C0DFF"/>
<stop offset="1" stop-color="#0066FF"/>
</radialGradient>
<radialGradient id="paint2_radial_951_38" cx="0" cy="0" r="1" gradientUnits="userSpaceOnUse" gradientTransform="translate(107.428 61.993) rotate(90) scale(13.0692 17.3573)">
<stop stop-color="white"/>
<stop offset="1" stop-color="#00ECFF"/>
</radialGradient>
<radialGradient id="paint3_radial_951_38" cx="0" cy="0" r="1" gradientUnits="userSpaceOnUse" gradientTransform="translate(104.986 72.8177) rotate(90) scale(4.09236 4.33933)">
<stop stop-color="white"/>
<stop offset="1" stop-color="#00ECFF"/>
</radialGradient>
<radialGradient id="paint4_radial_951_38" cx="0" cy="0" r="1" gradientUnits="userSpaceOnUse" gradientTransform="translate(95.2234 74.9308) rotate(90) scale(5.41248 4.06812)">
<stop stop-color="white"/>
<stop offset="1" stop-color="#00ECFF"/>
</radialGradient>
<linearGradient id="paint5_linear_951_38" x1="225.177" y1="94.0291" x2="225.177" y2="201.224" gradientUnits="userSpaceOnUse">
<stop stop-color="#0056D6"/>
<stop offset="1" stop-color="#011F4D"/>
</linearGradient>
<linearGradient id="paint6_linear_951_38" x1="291.792" y1="77.104" x2="291.792" y2="201.224" gradientUnits="userSpaceOnUse">
<stop stop-color="#0056D6"/>
<stop offset="1" stop-color="#011F4D"/>
</linearGradient>
</defs>
</svg>
