<svg width="484" height="278" viewBox="0 0 484 278" fill="none" xmlns="http://www.w3.org/2000/svg">
<rect width="483.19" height="277.39" rx="15" fill="url(#paint0_linear_951_67)"/>
<path d="M337.116 186.277C344.178 191.799 376.191 201.114 398.113 177.409C380.327 190.482 367.41 187.377 359.26 183.069C351.11 178.762 351.669 173.117 350.956 165.589C350.243 158.06 350.956 153.368 350.956 153.368C350.956 145.253 359.619 136.588 367.564 139.393V118.918L326.449 120.02C326.449 120.02 313.034 143.184 313.018 145.616C313.002 148.048 314.146 158.541 316.555 162.996C318.964 167.452 330.055 180.755 337.116 186.277Z" fill="url(#paint1_radial_951_67)"/>
<path d="M406.924 164.655C434.622 89.8168 317.136 68.6297 313.018 145.946C313.018 145.946 317.909 135.984 327.999 142.659C338.09 149.334 329.492 135.984 329.492 133.658C329.492 131.332 325.744 121.393 342.672 137.248C359.6 153.103 335.979 116.415 347.1 127.337C358.22 138.26 352.763 127.337 361.242 127.337C369.721 127.337 366.751 151.559 373.048 151.559C379.344 151.559 380.575 137.097 383.447 151.559C386.319 166.021 390.243 163.594 390.72 161.672C391.196 159.75 398.081 142.154 397.188 160.711C396.295 179.269 405.18 168.166 406.924 164.655Z" fill="url(#paint2_radial_951_67)"/>
<path d="M385.99 124.001C395.154 123.255 403.099 131.689 402.641 126.354C402.183 121.02 394.383 117.299 385.22 118.045C376.056 118.79 368.999 123.719 369.457 129.054C369.915 134.389 376.827 124.746 385.99 124.001Z" fill="white" fill-opacity="0.7"/>
<path d="M373.136 112.964C382.634 108.745 394.448 114.789 391.856 109.26C389.264 103.73 379.463 102.668 369.965 106.887C360.467 111.107 354.869 119.01 357.461 124.54C360.053 130.069 363.638 117.183 373.136 112.964Z" fill="white" fill-opacity="0.7"/>
<path d="M340.307 114.668C351.699 107.543 368.013 113.177 363.636 106.545C359.259 99.9126 346.475 100.312 335.083 107.438C323.691 114.563 318.004 125.716 322.382 132.349C326.759 138.981 328.915 121.794 340.307 114.668Z" fill="white" fill-opacity="0.7"/>
<path d="M391.653 134.621C397.048 135.321 400.543 141.179 400.973 138.038C401.404 134.897 397.379 131.783 391.984 131.083C386.588 130.382 381.866 132.361 381.436 135.502C381.006 138.643 386.258 133.921 391.653 134.621Z" fill="white" fill-opacity="0.7"/>
<path d="M393.917 144.234C398.124 144.78 400.849 149.347 401.184 146.898C401.52 144.449 398.381 142.021 394.175 141.475C389.968 140.929 386.286 142.471 385.95 144.921C385.615 147.37 389.71 143.688 393.917 144.234Z" fill="white" fill-opacity="0.7"/>
<path d="M351.384 153.448C340.034 154.995 342.517 181.64 345.101 175.453C347.685 169.266 348.395 162.729 351.384 165.673C354.374 168.617 356.451 167.37 354.729 165.673C353.006 163.977 351.942 160.185 357.516 165.673C363.089 171.162 360.201 162.829 363.089 165.673C365.978 168.517 367.447 168.218 367.447 165.673C367.447 163.128 366.13 159.785 366.13 159.785C366.13 159.785 362.735 151.902 351.384 153.448Z" fill="url(#paint3_radial_951_67)"/>
<path d="M316.517 163.011C319.536 172.647 333.143 185.85 336.893 186.086C340.643 186.322 339.327 166.777 334.845 174.049C330.364 181.321 322.466 168.302 327.473 168.305C332.48 168.308 334.231 161.662 331.978 163.86C329.726 166.057 325.391 165.31 323.685 161.662C321.979 158.014 326.872 158.577 329.214 159.464C327.166 153.92 313.499 153.374 316.517 163.011Z" fill="url(#paint4_radial_951_67)"/>
<path d="M348.95 158.525C350.567 157.02 353.395 157.434 352.471 156.492C351.546 155.551 349.486 156.008 347.869 157.513C346.252 159.018 345.691 161.001 346.615 161.942C347.54 162.884 347.333 160.03 348.95 158.525Z" fill="white" fill-opacity="0.7"/>
<path d="M323.314 168.092C323.593 166.749 325.207 165.973 324.382 165.81C323.556 165.647 322.661 166.604 322.381 167.948C322.102 169.291 322.544 170.512 323.369 170.675C324.195 170.838 323.034 169.436 323.314 168.092Z" fill="white" fill-opacity="0.7"/>
<path d="M335.877 180.822C336.157 179.479 337.771 178.702 336.945 178.54C336.12 178.377 335.224 179.334 334.945 180.677C334.665 182.021 335.108 183.242 335.933 183.405C336.758 183.568 335.598 182.166 335.877 180.822Z" fill="white" fill-opacity="0.7"/>
<path d="M333.1 179.118C333.379 177.774 334.993 176.998 334.168 176.835C333.343 176.672 332.447 177.629 332.167 178.973C331.888 180.316 332.33 181.537 333.156 181.7C333.981 181.863 332.82 180.461 333.1 179.118Z" fill="white" fill-opacity="0.7"/>
<path d="M320.531 164.882C320.811 163.538 322.425 162.762 321.6 162.599C320.774 162.436 319.879 163.394 319.599 164.737C319.319 166.081 319.762 167.302 320.587 167.464C321.412 167.627 320.252 166.225 320.531 164.882Z" fill="white" fill-opacity="0.7"/>
<path d="M319.088 160.57C319.368 159.227 320.981 158.45 320.156 158.288C319.331 158.125 318.435 159.082 318.156 160.426C317.876 161.769 318.318 162.99 319.144 163.153C319.969 163.316 318.809 161.914 319.088 160.57Z" fill="white" fill-opacity="0.7"/>
<path d="M351.555 159.713C352.644 158.698 354.551 158.977 353.927 158.342C353.304 157.708 351.916 158.016 350.826 159.03C349.736 160.044 349.358 161.381 349.981 162.016C350.604 162.65 350.465 160.727 351.555 159.713Z" fill="white" fill-opacity="0.7"/>
<path d="M353.657 161.276C354.513 160.48 356.01 160.698 355.521 160.2C355.031 159.702 353.941 159.944 353.085 160.74C352.229 161.537 351.932 162.587 352.421 163.085C352.911 163.583 352.801 162.073 353.657 161.276Z" fill="white" fill-opacity="0.7"/>
<ellipse rx="4.34747" ry="4.35365" transform="matrix(1 0 0 -1 25.4637 18.0365)" fill="#FF5E5E"/>
<ellipse rx="4.34747" ry="4.35365" transform="matrix(1 0 0 -1 55.2752 18.0365)" fill="#A7FF50"/>
<ellipse rx="4.34747" ry="4.35365" transform="matrix(1 0 0 -1 41.6121 18.0365)" fill="#FFED50"/>
<rect x="467.043" y="49.7561" width="16.1707" height="445.926" rx="8.08537" transform="rotate(90 467.043 49.7561)" fill="url(#paint5_linear_951_67)"/>
<rect x="37.5303" y="89.5608" width="173.873" height="10.8831" rx="5" fill="url(#paint6_linear_951_67)"/>
<rect x="37.5303" y="113.503" width="117.368" height="10.8831" rx="5" fill="url(#paint7_linear_951_67)"/>
<rect x="37.5303" y="137.447" width="117.368" height="10.8831" rx="5" fill="url(#paint8_linear_951_67)"/>
<defs>
<linearGradient id="paint0_linear_951_67" x1="0" y1="0" x2="482.874" y2="277.94" gradientUnits="userSpaceOnUse">
<stop stop-color="#01204D"/>
<stop offset="1" stop-color="#0066FF"/>
</linearGradient>
<radialGradient id="paint1_radial_951_67" cx="0" cy="0" r="1" gradientUnits="userSpaceOnUse" gradientTransform="translate(352.438 140.858) rotate(86.555) scale(52.0396 59.9254)">
<stop stop-color="#2C0DFF"/>
<stop offset="1" stop-color="#0066FF"/>
</radialGradient>
<radialGradient id="paint2_radial_951_67" cx="0" cy="0" r="1" gradientUnits="userSpaceOnUse" gradientTransform="translate(362.082 134.217) rotate(90) scale(36.9429 49.0643)">
<stop stop-color="white"/>
<stop offset="1" stop-color="#00ECFF"/>
</radialGradient>
<radialGradient id="paint3_radial_951_67" cx="0" cy="0" r="1" gradientUnits="userSpaceOnUse" gradientTransform="translate(355.181 164.815) rotate(90) scale(11.568 12.2661)">
<stop stop-color="white"/>
<stop offset="1" stop-color="#00ECFF"/>
</radialGradient>
<radialGradient id="paint4_radial_951_67" cx="0" cy="0" r="1" gradientUnits="userSpaceOnUse" gradientTransform="translate(327.583 170.788) rotate(90) scale(15.2996 11.4994)">
<stop stop-color="white"/>
<stop offset="1" stop-color="#00ECFF"/>
</radialGradient>
<linearGradient id="paint5_linear_951_67" x1="435.712" y1="24.1621" x2="470.236" y2="572.089" gradientUnits="userSpaceOnUse">
<stop stop-color="#048AE4"/>
<stop offset="1" stop-color="#048AE4" stop-opacity="0"/>
</linearGradient>
<linearGradient id="paint6_linear_951_67" x1="37.5303" y1="95.7797" x2="211.404" y2="95.7797" gradientUnits="userSpaceOnUse">
<stop stop-color="#0F70FF"/>
<stop offset="1" stop-color="#5AE1FF"/>
</linearGradient>
<linearGradient id="paint7_linear_951_67" x1="37.5303" y1="119.722" x2="154.898" y2="119.722" gradientUnits="userSpaceOnUse">
<stop stop-color="#0F70FF"/>
<stop offset="1" stop-color="#5AE1FF"/>
</linearGradient>
<linearGradient id="paint8_linear_951_67" x1="37.5303" y1="143.666" x2="154.898" y2="143.666" gradientUnits="userSpaceOnUse">
<stop stop-color="#0F70FF"/>
<stop offset="1" stop-color="#5AE1FF"/>
</linearGradient>
</defs>
</svg>
