<svg width="492" height="286" viewBox="0 0 492 286" fill="none" xmlns="http://www.w3.org/2000/svg">
<g filter="url(#filter0_d_951_97)">
<rect x="4" width="483.194" height="277.389" rx="15" fill="url(#paint0_linear_951_97)"/>
<rect x="37.541" y="47.104" width="247.362" height="197.836" rx="5" fill="url(#paint1_linear_951_97)" fill-opacity="0.7"/>
<path d="M56.1973 219.292L131.256 144.068L163.157 176.038L265.894 73.0754" stroke="url(#paint2_linear_951_97)" stroke-width="5"/>
<rect x="37.541" y="47.104" width="247.362" height="9.42075" rx="4.71038" fill="#E6E6E6"/>
<rect x="227.254" y="16.748" width="247.362" height="197.836" rx="5" fill="white"/>
<rect x="227.254" y="16.748" width="247.362" height="9.42075" rx="4.71038" fill="#E6E6E6"/>
<ellipse rx="2.62036" ry="2.61688" transform="matrix(1 0 0 -1 44.3538 51.814)" fill="#FF5E5E"/>
<ellipse rx="2.62036" ry="2.61688" transform="matrix(1 0 0 -1 235.116 21.4581)" fill="#FF5E5E"/>
<ellipse rx="2.62036" ry="2.61688" transform="matrix(1 0 0 -1 61.1233 51.814)" fill="#A7FF50"/>
<ellipse rx="2.62036" ry="2.61688" transform="matrix(1 0 0 -1 251.886 21.4581)" fill="#A7FF50"/>
<ellipse rx="2.62036" ry="2.61688" transform="matrix(1 0 0 -1 52.7385 51.814)" fill="#FFED50"/>
<ellipse rx="2.62036" ry="2.61688" transform="matrix(1 0 0 -1 243.5 21.4581)" fill="#FFED50"/>
<path d="M335.864 142.389C340.255 145.813 360.16 151.589 373.791 136.89C362.731 144.996 354.7 143.071 349.632 140.4C344.565 137.729 344.913 134.229 344.469 129.561C344.026 124.893 344.469 121.983 344.469 121.983C344.469 116.951 349.856 111.579 354.796 113.318V100.622L329.231 101.305C329.231 101.305 320.89 115.668 320.88 117.176C320.87 118.684 321.581 125.19 323.079 127.953C324.577 130.716 331.473 138.965 335.864 142.389Z" fill="url(#paint3_radial_951_97)"/>
<path d="M379.269 128.982C396.491 82.5766 323.441 69.4391 320.88 117.381C320.88 117.381 323.921 111.204 330.195 115.342C336.469 119.481 331.124 111.204 331.124 109.761C331.124 108.319 328.793 102.156 339.318 111.987C349.844 121.819 335.157 99.0693 342.071 105.842C348.986 112.615 345.593 105.842 350.865 105.842C356.137 105.842 354.29 120.861 358.205 120.861C362.12 120.861 362.886 111.893 364.672 120.861C366.457 129.828 368.897 128.323 369.193 127.132C369.49 125.94 373.77 115.029 373.215 126.536C372.66 138.043 378.185 131.159 379.269 128.982Z" fill="url(#paint4_radial_951_97)"/>
<path d="M366.251 103.772C371.949 103.31 376.889 108.54 376.605 105.232C376.32 101.924 371.47 99.6169 365.773 100.079C360.075 100.541 355.687 103.598 355.972 106.906C356.256 110.214 360.554 104.234 366.251 103.772Z" fill="white" fill-opacity="0.7"/>
<path d="M358.26 96.9301C364.166 94.3137 371.512 98.0618 369.9 94.6331C368.288 91.2043 362.194 90.5458 356.289 93.1621C350.383 95.7785 346.902 100.679 348.514 104.108C350.126 107.536 352.354 99.5464 358.26 96.9301Z" fill="white" fill-opacity="0.7"/>
<path d="M337.849 97.987C344.932 93.5687 355.076 97.0623 352.354 92.9498C349.633 88.8373 341.684 89.0853 334.601 93.5036C327.518 97.9219 323.982 104.837 326.703 108.95C329.425 113.062 330.766 102.405 337.849 97.987Z" fill="white" fill-opacity="0.7"/>
<path d="M369.775 110.36C373.129 110.794 375.302 114.426 375.57 112.478C375.837 110.531 373.335 108.6 369.98 108.166C366.626 107.731 363.689 108.958 363.422 110.906C363.154 112.853 366.42 109.926 369.775 110.36Z" fill="white" fill-opacity="0.7"/>
<path d="M371.18 116.319C373.795 116.657 375.489 119.489 375.698 117.97C375.906 116.452 373.955 114.947 371.34 114.608C368.725 114.27 366.436 115.226 366.228 116.745C366.019 118.263 368.565 115.98 371.18 116.319Z" fill="white" fill-opacity="0.7"/>
<path d="M344.735 122.034C337.677 122.993 339.221 139.515 340.828 135.678C342.435 131.842 342.876 127.788 344.735 129.614C346.594 131.439 347.885 130.666 346.814 129.614C345.743 128.562 345.081 126.21 348.547 129.614C352.013 133.017 350.217 127.85 352.013 129.614C353.809 131.377 354.722 131.192 354.722 129.614C354.722 128.036 353.903 125.963 353.903 125.963C353.903 125.963 351.792 121.075 344.735 122.034Z" fill="url(#paint5_radial_951_97)"/>
<path d="M323.057 127.962C324.934 133.937 333.394 142.124 335.726 142.27C338.057 142.416 337.239 130.297 334.452 134.806C331.666 139.315 326.755 131.243 329.869 131.245C332.982 131.246 334.07 127.126 332.67 128.488C331.269 129.851 328.574 129.387 327.513 127.126C326.452 124.864 329.495 125.212 330.951 125.763C329.678 122.325 321.18 121.987 323.057 127.962Z" fill="url(#paint6_radial_951_97)"/>
<path d="M343.223 125.181C344.229 124.248 345.987 124.504 345.412 123.921C344.837 123.337 343.557 123.62 342.551 124.553C341.546 125.486 341.197 126.716 341.772 127.299C342.347 127.883 342.218 126.114 343.223 125.181Z" fill="white" fill-opacity="0.7"/>
<path d="M327.282 131.113C327.456 130.28 328.46 129.799 327.947 129.698C327.433 129.597 326.876 130.191 326.702 131.023C326.529 131.856 326.804 132.613 327.317 132.714C327.831 132.815 327.109 131.946 327.282 131.113Z" fill="white" fill-opacity="0.7"/>
<path d="M335.094 139.007C335.268 138.174 336.271 137.693 335.758 137.592C335.245 137.491 334.688 138.084 334.514 138.917C334.34 139.75 334.615 140.507 335.129 140.608C335.642 140.709 334.92 139.84 335.094 139.007Z" fill="white" fill-opacity="0.7"/>
<path d="M333.366 137.95C333.54 137.117 334.544 136.636 334.031 136.535C333.517 136.434 332.96 137.027 332.786 137.86C332.613 138.693 332.888 139.45 333.401 139.551C333.915 139.652 333.193 138.782 333.366 137.95Z" fill="white" fill-opacity="0.7"/>
<path d="M325.554 129.124C325.728 128.291 326.731 127.81 326.218 127.709C325.705 127.608 325.148 128.201 324.974 129.034C324.8 129.867 325.075 130.624 325.589 130.725C326.102 130.826 325.38 129.957 325.554 129.124Z" fill="white" fill-opacity="0.7"/>
<path d="M324.654 126.45C324.828 125.617 325.832 125.136 325.319 125.035C324.805 124.934 324.248 125.527 324.074 126.36C323.901 127.193 324.176 127.95 324.689 128.051C325.203 128.152 324.481 127.283 324.654 126.45Z" fill="white" fill-opacity="0.7"/>
<path d="M344.843 125.918C345.52 125.289 346.705 125.462 346.318 125.068C345.93 124.675 345.067 124.866 344.39 125.495C343.712 126.123 343.477 126.952 343.864 127.345C344.252 127.739 344.165 126.546 344.843 125.918Z" fill="white" fill-opacity="0.7"/>
<path d="M346.149 126.887C346.681 126.393 347.612 126.529 347.308 126.22C347.003 125.911 346.325 126.061 345.793 126.555C345.261 127.048 345.077 127.699 345.381 128.008C345.685 128.317 345.617 127.381 346.149 126.887Z" fill="white" fill-opacity="0.7"/>
</g>
<defs>
<filter id="filter0_d_951_97" x="0" y="0" width="491.193" height="285.389" filterUnits="userSpaceOnUse" color-interpolation-filters="sRGB">
<feFlood flood-opacity="0" result="BackgroundImageFix"/>
<feColorMatrix in="SourceAlpha" type="matrix" values="0 0 0 0 0 0 0 0 0 0 0 0 0 0 0 0 0 0 127 0" result="hardAlpha"/>
<feOffset dy="4"/>
<feGaussianBlur stdDeviation="2"/>
<feComposite in2="hardAlpha" operator="out"/>
<feColorMatrix type="matrix" values="0 0 0 0 0 0 0 0 0 0 0 0 0 0 0 0 0 0 0.25 0"/>
<feBlend mode="normal" in2="BackgroundImageFix" result="effect1_dropShadow_951_97"/>
<feBlend mode="normal" in="SourceGraphic" in2="effect1_dropShadow_951_97" result="shape"/>
</filter>
<linearGradient id="paint0_linear_951_97" x1="4" y1="0" x2="486.874" y2="277.943" gradientUnits="userSpaceOnUse">
<stop stop-color="#01204D"/>
<stop offset="1" stop-color="#0066FF"/>
</linearGradient>
<linearGradient id="paint1_linear_951_97" x1="104.622" y1="137.648" x2="345.003" y2="281.334" gradientUnits="userSpaceOnUse">
<stop stop-color="white"/>
<stop offset="1" stop-color="white" stop-opacity="0"/>
</linearGradient>
<linearGradient id="paint2_linear_951_97" x1="265.425" y1="73.0754" x2="55.8957" y2="219.33" gradientUnits="userSpaceOnUse">
<stop stop-color="#005A9C"/>
<stop offset="1" stop-color="#0094FF"/>
</linearGradient>
<radialGradient id="paint3_radial_951_97" cx="0" cy="0" r="1" gradientUnits="userSpaceOnUse" gradientTransform="translate(345.391 114.226) rotate(86.5455) scale(32.2685 37.26)">
<stop stop-color="#2C0DFF"/>
<stop offset="1" stop-color="#0066FF"/>
</radialGradient>
<radialGradient id="paint4_radial_951_97" cx="0" cy="0" r="1" gradientUnits="userSpaceOnUse" gradientTransform="translate(351.387 110.108) rotate(90) scale(22.9072 30.5071)">
<stop stop-color="white"/>
<stop offset="1" stop-color="#00ECFF"/>
</radialGradient>
<radialGradient id="paint5_radial_951_97" cx="0" cy="0" r="1" gradientUnits="userSpaceOnUse" gradientTransform="translate(347.096 129.082) rotate(90) scale(7.17296 7.62678)">
<stop stop-color="white"/>
<stop offset="1" stop-color="#00ECFF"/>
</radialGradient>
<radialGradient id="paint6_radial_951_97" cx="0" cy="0" r="1" gradientUnits="userSpaceOnUse" gradientTransform="translate(329.937 132.784) rotate(90) scale(9.48682 7.15011)">
<stop stop-color="white"/>
<stop offset="1" stop-color="#00ECFF"/>
</radialGradient>
</defs>
</svg>
