<svg width="419" height="515" viewBox="0 0 419 515" fill="none" xmlns="http://www.w3.org/2000/svg">
<path d="M152.409 299.438C152.84 305.379 153.545 308.712 155.082 312.453C155.183 312.7 155.268 312.953 155.331 313.212L156.997 320.027L194.759 314.447C197.304 314.071 199.148 311.825 199.022 309.255L198.202 292.566C198.055 289.555 195.297 287.359 192.33 287.888L156.476 294.284C154.004 294.725 152.227 296.934 152.409 299.438Z" fill="#EBD3A3"/>
<path d="M250.449 365.929C250.449 365.929 269.676 368.641 277.072 360.753C284.467 352.865 285.206 346.702 292.355 343.005C299.503 339.307 310.843 332.651 310.843 332.651L335 323.038C328.642 315.515 326.92 310.724 324.154 302.085L278.597 282.095C271.905 298.912 260.033 307.241 217.12 319.155L192.704 330.055L177.88 348.804C182.332 357.612 185.75 361.433 193.14 366.68C201.673 368.993 207.184 369.012 217.12 368.86L250.449 365.929Z" fill="#2C0DFF"/>
<path d="M199.682 325.259L199.959 321.934C200.061 320.714 199.67 319.504 198.873 318.574C198.003 317.559 196.733 316.975 195.396 316.975H179.572C177.503 316.975 175.648 318.249 174.905 320.18L174.551 321.102C174.166 322.103 174.113 323.201 174.4 324.235L176.138 330.491H180.498L189.398 331.705C189.857 331.767 190.323 331.766 190.781 331.701L199.246 330.491L199.682 325.259Z" fill="#EBD3A3"/>
<path d="M155.599 312.276L185.784 308.169C188.48 307.802 190.975 309.658 191.398 312.347L192.261 317.841C192.681 320.511 190.902 323.032 188.245 323.531L181.524 324.794C180.617 324.965 179.68 324.881 178.817 324.551L178.191 324.312C177.388 324.006 176.52 323.911 175.671 324.038L170.319 324.835C169.356 324.979 168.456 325.4 167.73 326.047L166.799 326.876C166.065 327.53 165.155 327.953 164.182 328.092L157.948 328.984C155.213 329.376 152.678 327.474 152.29 324.738L151.323 317.933C150.933 315.188 152.852 312.65 155.599 312.276Z" fill="#FB651D"/>
<path d="M172.648 338.339C168.413 333.752 167.077 325.492 167.077 325.492C170.6 324.004 172.568 323.581 176.051 323.965C176.051 323.965 176.118 325.808 179.567 329.154C183.016 332.499 200.12 330.719 199.336 329.157C204.537 321.485 201.467 301.373 199.326 275.545L204.598 275.546C205.358 276.191 211.28 311.498 211.452 314.359C211.625 317.22 211.535 330.63 208.123 336.372C204.711 342.113 176.884 342.927 172.648 338.339Z" fill="#FB651D"/>
<path d="M202.733 311.307L191.397 314.795L191.87 320.027H202.261L202.733 311.307Z" fill="#FB651D"/>
<path d="M153.355 296.123C158.653 295.087 162.728 295.087 169.452 293.015C176.176 290.944 176.584 297.573 182.493 297.159C184.228 297.037 185.981 296.755 187.591 296.417C191.003 295.7 194.515 298.179 194.515 301.666V308.416C194.515 309.407 195.318 310.211 196.31 310.211H196.351C197.424 310.211 198.247 311.163 198.092 312.225C197.863 313.791 199.657 314.839 200.909 313.871L201.789 313.19C202.378 312.734 202.698 312.012 202.639 311.269L200.832 288.436V287.621C200.832 287.488 200.827 287.356 200.813 287.224C200.684 286.011 199.832 279.539 196.145 277.477C193.703 276.111 184.132 276.073 181.474 275.198C180.41 274.848 179.499 274.694 178.72 274.683C175.308 274.636 170.853 277.588 167.5 276.958C164.207 276.338 160.782 276.375 160.079 278.927C158.653 284.107 160.487 284.107 153.355 284.107C146.223 284.107 148.057 297.159 153.355 296.123Z" fill="#FFCC66"/>
<path d="M190.151 315.904L189.909 314.621C189.417 312.013 186.974 310.244 184.343 310.59L158.211 314.031C155.406 314.4 153.466 317.021 153.932 319.811L154.257 321.757C154.714 324.499 157.321 326.341 160.059 325.857L163.785 325.198C164.658 325.044 165.455 324.607 166.054 323.954C166.629 323.326 167.387 322.897 168.221 322.728L177.026 320.939C177.997 320.742 179 321.063 179.676 321.787C180.37 322.531 181.408 322.848 182.399 322.619L186.363 321.703C188.977 321.099 190.648 318.54 190.151 315.904Z" fill="#29AEF1"/>
<path d="M170.219 346.592C166.879 343.956 160.004 328.747 160.004 328.747L165.236 327.875L167.416 326.131C168.929 331.346 170.474 333.742 173.956 337.467C176.783 339.423 179.153 340.012 183.548 340.955H192.704C192.704 340.955 191.248 344.817 188.488 346.592C185.728 348.367 173.558 349.228 170.219 346.592Z" fill="#EBD3A3"/>
<path d="M199.245 320.899V321.583C199.245 322.247 199.623 322.853 200.218 323.147C201.377 323.719 202.733 322.875 202.733 321.583V320.899C202.733 319.936 201.953 319.155 200.989 319.155C200.026 319.155 199.245 319.936 199.245 320.899Z" fill="#EBD3A3"/>
<path d="M216.461 321.101C217.623 316.899 213.638 315.274 216.067 308.479C218.694 301.128 211.632 301.577 208.791 297.154C210.491 306.496 211.33 312.193 211.426 320.014C211.449 321.886 212.86 323.382 214.616 322.735C215.31 322.48 216.264 321.813 216.461 321.101Z" fill="#FFCC66"/>
<path d="M157.682 356.059C163.666 351.022 172.643 348.2 172.643 348.2H178.753C181.056 353.782 182.551 356.969 189.077 363.717C174.845 377.911 167.465 382.642 157.682 387.093C148.148 391.202 144.953 393.547 141.524 397.773L112.477 412.443L105.949 397.773L132.348 382.055C132.348 382.055 151.697 361.097 157.682 356.059Z" fill="#270AEB"/>
<path d="M216.329 339.938C216.329 339.938 220.717 328.855 235.279 329.661C249.841 330.467 252.349 359.292 249.841 382.055C249.841 382.055 245.652 391.325 236.675 401.804C227.699 412.283 191.194 420.948 191.194 420.948L156.513 430.755L152.589 416.367L182.417 405.23C182.417 405.23 213.735 396.161 216.329 382.055C218.922 367.949 216.329 339.938 216.329 339.938Z" fill="#270AEB"/>
<path d="M103.349 412.812L99.4273 401.424C98.871 399.808 99.3617 398.017 100.664 396.91C102.79 395.103 106.058 395.867 107.163 398.429L111.933 409.487C112.953 411.85 111.838 414.59 109.459 415.571C107.008 416.581 104.212 415.318 103.349 412.812Z" fill="#003380"/>
<path d="M146.796 433.825L143.811 421.033C143.442 419.451 143.878 417.789 144.976 416.591C147.586 413.744 152.309 414.877 153.342 418.599L156.842 431.196C157.512 433.608 156.295 436.144 153.994 437.13L153.635 437.284C150.775 438.51 147.503 436.854 146.796 433.825Z" fill="#023480"/>
<path d="M331.796 296.661L329.331 303.809L303.013 293.866L278.305 282.117L281.756 275.461L307.373 285.146L331.796 296.661Z" fill="#FFAA00"/>
<path d="M378.433 217.798L328.255 295.537L286 278.019L325.676 197L346.58 210.37L378.433 217.798Z" fill="#FFCC66"/>
<path d="M293.096 201.757L323.17 204.222L286.883 278.17L282.743 275.954V248.592L290.138 226.9L293.096 201.757Z" fill="#FFAA00"/>
<path d="M135.206 441.472L143.829 437.561C146.036 436.56 147.208 434.12 146.608 431.771L144.927 425.182C144.239 422.488 141.486 420.872 138.799 421.586L125.454 425.128C124.056 425.499 122.887 426.457 122.249 427.756L120.891 430.52C120.233 431.861 120.208 433.426 120.824 434.787L121.596 436.492C122.156 437.729 123.195 438.685 124.474 439.141L131.464 441.629C132.684 442.063 134.026 442.007 135.206 441.472Z" fill="#EBD3A3"/>
<path d="M361.439 214.077C361.439 214.077 372.339 200.125 382.367 184.865C392.395 169.605 374.494 117.486 370.595 80.224L359.695 76.736C356.429 115.632 359.259 166.553 355.771 175.709C352.442 184.448 337.098 202.801 335.801 203.24L335.715 203.177C335.71 203.241 335.74 203.261 335.801 203.24L346.615 211.025L361.439 214.077Z" fill="#EBD3A3"/>
<path d="M304.911 191.444C304.954 202.379 293.422 201.869 293.422 201.869L307.374 203.504L319.582 204.486C319.582 204.486 326.08 204.063 327.518 193.165C328.957 182.266 333.199 114.623 335.064 94.0427L321.587 93.0167C303.635 142.463 304.869 180.509 304.911 191.444Z" fill="#EBD3A3"/>
<path d="M353.058 63.0993C353.66 68.3521 354.242 72.0354 358.555 76.0993C359.01 76.5282 359.561 76.8447 360.15 77.0551L368.969 80.2049C370.531 80.7627 372.248 80.5243 373.571 79.5251C381.551 73.5018 409.713 51.6291 414.195 39.6764C417.974 29.6004 418.796 14.749 418.961 7.27481C419.019 4.6491 416.957 2.51259 414.334 2.37922L373.873 0.321903C370.645 0.157753 368.117 3.05179 368.71 6.22946C370.972 18.3623 373.384 32.2461 371.903 37.0604C370.293 42.293 364.216 51.0881 355.066 58.382C353.643 59.516 352.851 61.2917 353.058 63.0993Z" fill="#FB651D"/>
<path d="M369.366 21.3863L337.626 92.3041C336.748 94.2643 334.717 95.4453 332.58 95.2382L322.999 94.3101C322.494 94.2611 321.998 94.1378 321.535 93.9294C313.043 90.1047 308.029 83.6141 306.9 80.3146C305.739 76.9252 306.792 74.331 310.247 69.0621C319.461 51.0794 322.407 38.8752 322.649 16.7848C322.681 13.8725 325.139 11.552 328.044 11.7556L365.152 14.3559C368.618 14.5988 370.785 18.2151 369.366 21.3863Z" fill="#FB651D"/>
<path d="M350.072 32.7146C348.596 26.8452 341.664 23.6758 345.082 22.8333C348.499 21.9908 352.466 26.066 353.942 31.9354C355.419 37.8049 353.845 43.246 350.427 44.0884C347.01 44.9309 351.548 38.584 350.072 32.7146Z" fill="white" fill-opacity="0.7"/>
<path d="M404.072 16.4065C402.596 10.5371 395.664 7.36771 399.082 6.52522C402.499 5.68273 406.466 9.75788 407.942 15.6273C409.419 21.4968 407.845 26.9379 404.427 27.7803C401.01 28.6228 405.548 22.2759 404.072 16.4065Z" fill="white" fill-opacity="0.7"/>
<path d="M86.0858 405.349L94.9029 402.756C97.2473 402.066 99.7466 403.172 100.813 405.371L103.766 411.463C104.969 413.942 103.938 416.927 101.461 418.137L89.272 424.09C87.9533 424.734 86.4183 424.766 85.0737 424.178L82.374 422.996C81.008 422.399 79.98 421.223 79.5704 419.789L79.048 417.961C78.6802 416.674 78.8441 415.293 79.5028 414.127L83.1438 407.685C83.7835 406.554 84.8387 405.716 86.0858 405.349Z" fill="#EBD3A3"/>
<ellipse rx="2.42684" ry="2.24775" transform="matrix(-0.997485 0.0708719 0.0708719 0.997485 181.851 316.338)" fill="black"/>
<path d="M164.373 316.408C161.692 315.257 160.342 315.373 158.269 317.28" stroke="black"/>
<ellipse rx="2.42684" ry="2.24775" transform="matrix(-0.997485 0.0708719 0.0708719 0.997485 161.794 319.826)" fill="black"/>
<path d="M184.43 312.92C181.749 311.769 180.399 311.885 178.326 313.792" stroke="black"/>
<rect width="11.1404" height="2.28356" rx="1.14178" transform="matrix(-0.988225 0.15301 0.15301 0.988225 187.568 312.179)" fill="url(#paint0_linear_938_353)" fill-opacity="0.5"/>
<rect width="14.8977" height="2.28356" rx="1.14178" transform="matrix(-0.988225 0.15301 0.15301 0.988225 187.568 315.667)" fill="url(#paint1_linear_938_353)" fill-opacity="0.5"/>
<rect width="15.0555" height="2.28356" rx="1.14178" transform="matrix(-0.988225 0.15301 0.15301 0.988225 170.056 318.564)" fill="url(#paint2_linear_938_353)" fill-opacity="0.5"/>
<rect width="11.1404" height="2.28356" rx="1.14178" transform="matrix(-0.988225 0.15301 0.15301 0.988225 176.232 313.924)" fill="url(#paint3_linear_938_353)" fill-opacity="0.5"/>
<rect width="11.1404" height="2.28356" rx="1.14178" transform="matrix(-0.988225 0.15301 0.15301 0.988225 164.896 315.667)" fill="url(#paint4_linear_938_353)" fill-opacity="0.5"/>
<path d="M145.484 443.68L98.5172 464.833C97.962 465.083 97.344 465.158 96.7451 465.049L8.30083 448.86C5.52371 448.352 4.92238 444.638 7.39719 443.28L43.5844 423.412C44.1603 423.096 44.8241 422.978 45.4738 423.075L144.697 437.978C147.657 438.423 148.212 442.451 145.484 443.68Z" fill="#023480"/>
<path d="M98.1017 431.645C118.668 447.254 120.203 455.794 97.2297 464.781L98.1017 431.645Z" fill="#01204D"/>
<path d="M99.4119 462.566L99.4362 462.396C99.6635 460.805 98.5967 459.317 97.0169 459.023L8.11311 442.427C6.34679 442.098 4.68878 443.384 4.56926 445.177L4.53581 445.678C4.43441 447.199 5.48984 448.555 6.98937 448.829L95.9023 465.093C97.5772 465.399 99.1711 464.252 99.4119 462.566Z" fill="#0054D2"/>
<path d="M147.806 446.905L97.6652 471.322V464.782L147.806 441.673V446.905Z" fill="#0066FF"/>
<path d="M4.79421 453.445V447.777L97.6631 464.781V471.321L4.79421 453.445Z" fill="#0066FF"/>
<path d="M10.8047 373.589L95.8536 391.145C98.1764 391.625 99.8428 393.67 99.8428 396.042V453.521C99.8428 456.653 96.9965 459.014 93.9186 458.435L8.86971 442.44C6.50611 441.995 4.79387 439.931 4.79387 437.526V378.486C4.79387 375.318 7.70226 372.949 10.8047 373.589Z" fill="#023480"/>
<path d="M41.894 428.406C43.6211 429.754 51.4507 432.029 56.8125 426.24C52.4623 429.433 49.3031 428.674 47.3098 427.622C45.3165 426.57 45.4534 425.192 45.2789 423.353C45.1044 421.514 45.2789 420.368 45.2789 420.368C45.2789 418.387 47.3976 416.27 49.3407 416.955V411.955L39.2849 412.224C39.2849 412.224 36.004 417.881 36 418.475C35.9961 419.069 36.2759 421.632 36.8651 422.72C37.4542 423.808 40.167 427.057 41.894 428.406Z" fill="url(#paint5_radial_938_353)"/>
<path d="M58.9673 423.125C65.7417 404.848 37.0073 399.673 36 418.556C36 418.556 37.1962 416.123 39.6642 417.753C42.1322 419.383 40.0294 416.123 40.0294 415.555C40.0294 414.987 39.1126 412.56 43.2528 416.432C47.393 420.304 41.6159 411.344 44.3357 414.011C47.0555 416.679 45.7208 414.011 47.7946 414.011C49.8684 414.011 49.1419 419.927 50.682 419.927C52.222 419.927 52.5231 416.395 53.2255 419.927C53.9279 423.459 54.8876 422.866 55.0041 422.397C55.1206 421.927 56.8045 417.63 56.5861 422.162C56.3677 426.694 58.5408 423.983 58.9673 423.125Z" fill="url(#paint6_radial_938_353)"/>
<path d="M53.8479 413.195C56.0891 413.013 58.0324 415.073 57.9204 413.77C57.8084 412.467 55.9007 411.558 53.6596 411.74C51.4184 411.922 49.6924 413.126 49.8043 414.429C49.9163 415.732 51.6068 413.377 53.8479 413.195Z" fill="white" fill-opacity="0.7"/>
<path d="M50.7032 410.5C53.0262 409.47 55.9157 410.946 55.2818 409.596C54.6478 408.245 52.2508 407.986 49.9278 409.016C47.6048 410.047 46.2356 411.977 46.8695 413.327C47.5035 414.678 48.3803 411.531 50.7032 410.5Z" fill="white" fill-opacity="0.7"/>
<path d="M42.675 410.917C45.4612 409.177 49.4513 410.553 48.3808 408.933C47.3102 407.313 44.1836 407.411 41.3974 409.151C38.6112 410.891 37.2204 413.615 38.291 415.235C39.3615 416.855 39.8888 412.657 42.675 410.917Z" fill="white" fill-opacity="0.7"/>
<path d="M55.2332 415.791C56.5527 415.962 57.4075 417.392 57.5127 416.625C57.6179 415.858 56.6335 415.097 55.314 414.926C53.9945 414.755 52.8395 415.239 52.7343 416.006C52.6291 416.773 53.9136 415.62 55.2332 415.791Z" fill="white" fill-opacity="0.7"/>
<path d="M55.7858 418.137C56.8144 418.27 57.4808 419.385 57.5628 418.787C57.6448 418.189 56.8774 417.597 55.8488 417.463C54.8202 417.33 53.9198 417.707 53.8378 418.305C53.7558 418.903 54.7572 418.004 55.7858 418.137Z" fill="white" fill-opacity="0.7"/>
<path d="M45.3839 420.388C42.6078 420.766 43.2151 427.274 43.8471 425.762C44.4792 424.251 44.6527 422.655 45.3839 423.374C46.1151 424.093 46.6232 423.788 46.2018 423.374C45.7805 422.96 45.5202 422.033 46.8834 423.374C48.2467 424.714 47.5403 422.679 48.2467 423.374C48.9531 424.068 49.3125 423.995 49.3125 423.374C49.3125 422.752 48.9903 421.936 48.9903 421.936C48.9903 421.936 48.1599 420.01 45.3839 420.388Z" fill="url(#paint7_radial_938_353)"/>
<path d="M36.856 422.723C37.5943 425.077 40.9222 428.301 41.8394 428.359C42.7566 428.417 42.4346 423.643 41.3386 425.419C40.2425 427.195 38.3109 424.016 39.5355 424.016C40.7602 424.017 41.1883 422.394 40.6374 422.931C40.0865 423.467 39.0262 423.285 38.609 422.394C38.1917 421.503 39.3884 421.64 39.9612 421.857C39.4604 420.503 36.1177 420.37 36.856 422.723Z" fill="url(#paint8_radial_938_353)"/>
<path d="M44.7888 421.628C45.1842 421.26 45.8757 421.361 45.6497 421.131C45.4236 420.901 44.9199 421.013 44.5245 421.38C44.1291 421.748 43.9918 422.232 44.2179 422.462C44.4439 422.692 44.3935 421.995 44.7888 421.628Z" fill="white" fill-opacity="0.7"/>
<path d="M38.5178 423.964C38.5862 423.636 38.9808 423.446 38.779 423.407C38.5772 423.367 38.3581 423.601 38.2898 423.929C38.2214 424.257 38.3296 424.555 38.5314 424.595C38.7332 424.634 38.4494 424.292 38.5178 423.964Z" fill="white" fill-opacity="0.7"/>
<path d="M41.591 427.074C41.6594 426.746 42.054 426.556 41.8522 426.517C41.6504 426.477 41.4314 426.711 41.363 427.039C41.2947 427.367 41.4029 427.665 41.6047 427.705C41.8065 427.744 41.5227 427.402 41.591 427.074Z" fill="white" fill-opacity="0.7"/>
<path d="M40.9113 426.658C40.9797 426.33 41.3743 426.141 41.1725 426.101C40.9707 426.061 40.7517 426.295 40.6833 426.623C40.615 426.951 40.7232 427.249 40.925 427.289C41.1268 427.328 40.843 426.986 40.9113 426.658Z" fill="white" fill-opacity="0.7"/>
<path d="M37.8381 423.181C37.9065 422.853 38.3011 422.663 38.0993 422.623C37.8975 422.584 37.6785 422.817 37.6101 423.145C37.5417 423.473 37.6499 423.772 37.8517 423.811C38.0535 423.851 37.7698 423.509 37.8381 423.181Z" fill="white" fill-opacity="0.7"/>
<path d="M37.4856 422.128C37.5539 421.8 37.9485 421.61 37.7467 421.571C37.5449 421.531 37.3259 421.765 37.2576 422.093C37.1892 422.421 37.2974 422.719 37.4992 422.758C37.701 422.798 37.4172 422.456 37.4856 422.128Z" fill="white" fill-opacity="0.7"/>
<path d="M45.4253 421.918C45.6918 421.67 46.1579 421.739 46.0055 421.584C45.8532 421.429 45.5136 421.504 45.2472 421.752C44.9807 421.999 44.8882 422.326 45.0405 422.48C45.1929 422.635 45.1588 422.166 45.4253 421.918Z" fill="white" fill-opacity="0.7"/>
<path d="M45.9378 422.3C46.1471 422.105 46.5131 422.159 46.3934 422.037C46.2738 421.916 46.0071 421.975 45.7979 422.169C45.5886 422.364 45.5159 422.62 45.6356 422.742C45.7552 422.863 45.7285 422.494 45.9378 422.3Z" fill="white" fill-opacity="0.7"/>
<path d="M243.289 333.979C254.754 354.744 262 362.496 278.605 358.831C272.817 365.601 267.337 367.627 250.701 365.807C251.595 352.156 248.957 345.515 243.289 333.979Z" fill="#023480"/>
<path d="M370.838 222.739C352.893 219.962 345.27 217.062 335.491 209.778" stroke="#FFAA00" stroke-width="2"/>
<path d="M320.898 204.051L323.514 202.307L323.078 204.487L320.898 204.051Z" fill="#FFAA00"/>
<path d="M303.896 196.202C302.588 197.074 292.996 201.521 292.996 201.87C295.732 202.078 297.691 202.257 300.408 200.998C302.465 199.822 305.204 195.33 303.896 196.202Z" fill="#FFAA00"/>
<path d="M365.372 208.846L378.888 218.002L360.576 214.078L365.372 208.846Z" fill="#FFAA00"/>
<path d="M340.083 198.817L326.567 197.509L335.723 204.049L340.083 198.817Z" fill="#FFAA00"/>
<path d="M190.969 357.087C187.917 356.651 184.138 350.547 181.377 347.931C181.377 347.931 186.173 346.623 188.353 345.751C190.533 344.879 192.277 341.391 192.713 340.955C193.149 340.519 196.637 340.519 197.509 340.519C198.381 340.519 201.433 346.623 197.945 351.419C194.457 356.215 194.021 357.523 190.969 357.087Z" fill="#EBD3A3"/>
<path d="M203.178 339.212C210.919 367.796 180.899 368.035 179.634 348.368" stroke="#023480" stroke-width="2"/>
<path d="M189.225 363.628C171.728 369.478 150.771 390.74 147.023 392.368C146.993 392.38 146.962 392.392 146.932 392.404C143.444 393.712 121.225 401.497 112.488 412.461C133.752 402.887 143.419 398.022 146.932 392.404C146.961 392.394 146.991 392.381 147.023 392.368C165.133 385.011 174.164 378.184 189.225 363.628Z" fill="#023480"/>
<path d="M217.565 368.859C208.1 371.916 190.626 367.284 188.789 363.627C205.378 371.183 211.733 366.67 216.693 339.647L217.565 368.859Z" fill="#023480"/>
<path d="M203.613 339.149C211.331 339.683 212.035 336.861 210.589 328.748C209.281 333.98 209.221 337.175 203.613 339.149Z" fill="#023480"/>
<path d="M316.101 330.491C327.989 316.249 315.59 304.413 278.169 282.095C294.843 290.744 324.822 300.407 324.386 301.715C323.95 303.023 328.987 315.887 334.85 323.079L316.101 330.491Z" fill="#023480"/>
<path d="M353.165 60.1681C356.891 55.5559 360.141 54.0641 360.141 54.0641C356.432 62.2824 356.928 67.6215 359.705 76.7363C357.666 78.105 349.439 64.7804 353.165 60.1681Z" fill="#FB5100"/>
<path d="M307.384 74.5575L315.232 58.8613C311.405 71.1254 311.025 77.8422 315.232 89.3816C309.393 84.3673 305.411 79.5693 307.384 74.5575Z" fill="#FB5100"/>
<ellipse cx="294.628" cy="455.287" rx="92.5" ry="25.1319" transform="rotate(-23.0037 294.628 455.287)" fill="black" fill-opacity="0.2"/>
<defs>
<linearGradient id="paint0_linear_938_353" x1="5.57018" y1="0" x2="5.57018" y2="2.28356" gradientUnits="userSpaceOnUse">
<stop stop-color="white"/>
<stop offset="1" stop-color="#38F0FC"/>
</linearGradient>
<linearGradient id="paint1_linear_938_353" x1="7.44887" y1="0" x2="7.44887" y2="2.28356" gradientUnits="userSpaceOnUse">
<stop stop-color="white"/>
<stop offset="1" stop-color="#38F0FC"/>
</linearGradient>
<linearGradient id="paint2_linear_938_353" x1="7.52776" y1="0" x2="7.52776" y2="2.28356" gradientUnits="userSpaceOnUse">
<stop stop-color="white"/>
<stop offset="1" stop-color="#38F0FC"/>
</linearGradient>
<linearGradient id="paint3_linear_938_353" x1="5.57018" y1="0" x2="5.57018" y2="2.28356" gradientUnits="userSpaceOnUse">
<stop stop-color="white"/>
<stop offset="1" stop-color="#38F0FC"/>
</linearGradient>
<linearGradient id="paint4_linear_938_353" x1="5.57018" y1="0" x2="5.57018" y2="2.28356" gradientUnits="userSpaceOnUse">
<stop stop-color="white"/>
<stop offset="1" stop-color="#38F0FC"/>
</linearGradient>
<radialGradient id="paint5_radial_938_353" cx="0" cy="0" r="1" gradientUnits="userSpaceOnUse" gradientTransform="translate(45.6414 417.313) rotate(86.5501) scale(12.7097 14.6563)">
<stop stop-color="#2C0DFF"/>
<stop offset="1" stop-color="#0066FF"/>
</radialGradient>
<radialGradient id="paint6_radial_938_353" cx="0" cy="0" r="1" gradientUnits="userSpaceOnUse" gradientTransform="translate(48 415.691) rotate(90) scale(9.02254 12)">
<stop stop-color="white"/>
<stop offset="1" stop-color="#00ECFF"/>
</radialGradient>
<radialGradient id="paint7_radial_938_353" cx="0" cy="0" r="1" gradientUnits="userSpaceOnUse" gradientTransform="translate(46.3125 423.164) rotate(90) scale(2.82524 3)">
<stop stop-color="white"/>
<stop offset="1" stop-color="#00ECFF"/>
</radialGradient>
<radialGradient id="paint8_radial_938_353" cx="0" cy="0" r="1" gradientUnits="userSpaceOnUse" gradientTransform="translate(39.5625 424.623) rotate(90) scale(3.73661 2.8125)">
<stop stop-color="white"/>
<stop offset="1" stop-color="#00ECFF"/>
</radialGradient>
</defs>
</svg>
