<svg width="816" height="553" viewBox="0 0 816 553" fill="none" xmlns="http://www.w3.org/2000/svg">
<rect width="816" height="553" rx="50" fill="white" fill-opacity="0.05"/>
<path d="M171 143C171 134.716 177.716 128 186 128H639.19C647.474 128 654.19 134.716 654.19 143V390.39C654.19 398.674 647.474 405.39 639.19 405.39H186C177.716 405.39 171 398.674 171 390.39V143Z" fill="url(#paint0_linear_1098_12)"/>
<ellipse rx="4.34747" ry="4.35365" transform="matrix(1 0 0 -1 196.464 146.036)" fill="#FF5E5E"/>
<ellipse rx="4.34747" ry="4.35365" transform="matrix(1 0 0 -1 226.275 146.036)" fill="#A7FF50"/>
<ellipse rx="4.34747" ry="4.35365" transform="matrix(1 0 0 -1 212.612 146.036)" fill="#FFED50"/>
<rect x="241.367" y="159.97" width="342.455" height="213.449" rx="15" fill="white"/>
<path d="M269.596 208.41C272.094 210.364 283.419 213.659 291.174 205.273C284.882 209.898 280.313 208.799 277.429 207.276C274.546 205.752 274.744 203.755 274.492 201.092C274.239 198.428 274.492 196.768 274.492 196.768C274.492 193.898 277.556 190.832 280.367 191.825V184.581L265.822 184.971C265.822 184.971 261.076 193.166 261.07 194.026C261.065 194.886 261.469 198.598 262.322 200.175C263.174 201.751 267.098 206.457 269.596 208.41Z" fill="url(#paint1_radial_1098_12)"/>
<path d="M294.291 200.761C304.09 174.286 262.527 166.79 261.07 194.142C261.07 194.142 262.801 190.618 266.37 192.979C269.94 195.341 266.899 190.618 266.899 189.795C266.899 188.972 265.573 185.456 271.561 191.065C277.55 196.674 269.193 183.695 273.127 187.559C277.062 191.423 275.131 187.559 278.131 187.559C281.13 187.559 280.079 196.128 282.307 196.128C284.534 196.128 284.97 191.012 285.986 196.128C287.002 201.244 288.39 200.385 288.559 199.706C288.727 199.026 291.163 192.801 290.847 199.366C290.531 205.931 293.674 202.003 294.291 200.761Z" fill="url(#paint2_radial_1098_12)"/>
<path d="M286.884 186.378C290.126 186.115 292.937 189.098 292.775 187.211C292.613 185.324 289.854 184.008 286.612 184.271C283.37 184.535 280.874 186.279 281.036 188.166C281.198 190.053 283.643 186.642 286.884 186.378Z" fill="white" fill-opacity="0.7"/>
<path d="M282.338 182.474C285.698 180.981 289.878 183.119 288.961 181.163C288.044 179.207 284.577 178.831 281.217 180.324C277.857 181.817 275.876 184.613 276.793 186.569C277.71 188.525 278.978 183.967 282.338 182.474Z" fill="white" fill-opacity="0.7"/>
<path d="M270.724 183.077C274.754 180.557 280.526 182.55 278.977 180.204C277.429 177.857 272.906 177.999 268.876 180.519C264.846 183.04 262.834 186.986 264.383 189.332C265.931 191.678 266.694 185.598 270.724 183.077Z" fill="white" fill-opacity="0.7"/>
<path d="M288.889 190.136C290.797 190.384 292.034 192.456 292.186 191.345C292.338 190.234 290.914 189.132 289.006 188.884C287.097 188.637 285.426 189.337 285.274 190.448C285.122 191.559 286.98 189.888 288.889 190.136Z" fill="white" fill-opacity="0.7"/>
<path d="M289.689 193.536C291.178 193.729 292.142 195.344 292.26 194.478C292.379 193.612 291.269 192.753 289.781 192.559C288.292 192.366 286.99 192.912 286.871 193.779C286.752 194.645 288.201 193.342 289.689 193.536Z" fill="white" fill-opacity="0.7"/>
<path d="M274.643 196.796C270.627 197.344 271.506 206.77 272.42 204.581C273.334 202.392 273.585 200.08 274.643 201.121C275.7 202.163 276.435 201.721 275.826 201.121C275.216 200.521 274.84 199.179 276.812 201.121C278.784 203.063 277.762 200.115 278.784 201.121C279.805 202.127 280.325 202.021 280.325 201.121C280.325 200.221 279.859 199.038 279.859 199.038C279.859 199.038 278.658 196.249 274.643 196.796Z" fill="url(#paint3_radial_1098_12)"/>
<path d="M262.309 200.179C263.376 203.588 268.19 208.259 269.517 208.343C270.843 208.426 270.378 201.512 268.792 204.084C267.207 206.657 264.413 202.051 266.184 202.052C267.956 202.053 268.575 199.702 267.778 200.48C266.981 201.257 265.448 200.993 264.844 199.702C264.241 198.412 265.972 198.611 266.8 198.925C266.076 196.963 261.241 196.77 262.309 200.179Z" fill="url(#paint4_radial_1098_12)"/>
<path d="M273.782 198.593C274.354 198.06 275.354 198.207 275.027 197.874C274.7 197.541 273.972 197.702 273.4 198.234C272.828 198.767 272.629 199.468 272.956 199.801C273.283 200.134 273.21 199.125 273.782 198.593Z" fill="white" fill-opacity="0.7"/>
<path d="M264.712 201.976C264.811 201.501 265.382 201.227 265.09 201.169C264.798 201.111 264.481 201.45 264.382 201.925C264.283 202.4 264.44 202.832 264.732 202.89C265.024 202.947 264.613 202.452 264.712 201.976Z" fill="white" fill-opacity="0.7"/>
<path d="M269.158 206.48C269.257 206.005 269.828 205.73 269.536 205.673C269.244 205.615 268.927 205.954 268.828 206.429C268.73 206.904 268.886 207.336 269.178 207.394C269.47 207.451 269.059 206.955 269.158 206.48Z" fill="white" fill-opacity="0.7"/>
<path d="M268.176 205.877C268.275 205.402 268.846 205.127 268.554 205.07C268.262 205.012 267.945 205.351 267.846 205.826C267.747 206.301 267.904 206.733 268.196 206.791C268.487 206.848 268.077 206.352 268.176 205.877Z" fill="white" fill-opacity="0.7"/>
<path d="M263.728 200.84C263.826 200.365 264.397 200.09 264.105 200.033C263.813 199.975 263.497 200.314 263.398 200.789C263.299 201.264 263.455 201.696 263.747 201.754C264.039 201.811 263.629 201.315 263.728 200.84Z" fill="white" fill-opacity="0.7"/>
<path d="M263.217 199.316C263.316 198.841 263.887 198.566 263.595 198.509C263.303 198.451 262.986 198.79 262.887 199.265C262.788 199.74 262.945 200.172 263.237 200.23C263.528 200.287 263.118 199.791 263.217 199.316Z" fill="white" fill-opacity="0.7"/>
<path d="M274.703 199.012C275.088 198.654 275.762 198.752 275.542 198.528C275.322 198.303 274.831 198.412 274.445 198.771C274.06 199.13 273.926 199.603 274.146 199.827C274.367 200.051 274.317 199.371 274.703 199.012Z" fill="white" fill-opacity="0.7"/>
<path d="M275.447 199.565C275.75 199.283 276.279 199.361 276.106 199.185C275.933 199.008 275.547 199.094 275.244 199.376C274.942 199.657 274.837 200.029 275.01 200.205C275.183 200.381 275.144 199.847 275.447 199.565Z" fill="white" fill-opacity="0.7"/>
<rect x="350.203" y="260.582" width="22.5176" height="68.6423" rx="10" fill="#D9D9D9"/>
<rect x="384.918" y="222.029" width="22.5176" height="107.195" rx="10" fill="url(#paint5_linear_1098_12)"/>
<rect x="416.818" y="246.477" width="22.5176" height="82.7468" rx="10" fill="#D9D9D9"/>
<rect x="451.533" y="205.104" width="22.5176" height="124.12" rx="10" fill="url(#paint6_linear_1098_12)"/>
<defs>
<linearGradient id="paint0_linear_1098_12" x1="201.999" y1="157.975" x2="762.549" y2="490.317" gradientUnits="userSpaceOnUse">
<stop stop-color="#01204D"/>
<stop offset="1" stop-color="#0066FF"/>
</linearGradient>
<radialGradient id="paint1_radial_1098_12" cx="0" cy="0" r="1" gradientUnits="userSpaceOnUse" gradientTransform="translate(275.016 192.343) rotate(86.555) scale(18.4099 21.1996)">
<stop stop-color="#2C0DFF"/>
<stop offset="1" stop-color="#0066FF"/>
</radialGradient>
<radialGradient id="paint2_radial_1098_12" cx="0" cy="0" r="1" gradientUnits="userSpaceOnUse" gradientTransform="translate(278.428 189.993) rotate(90) scale(13.0692 17.3573)">
<stop stop-color="white"/>
<stop offset="1" stop-color="#00ECFF"/>
</radialGradient>
<radialGradient id="paint3_radial_1098_12" cx="0" cy="0" r="1" gradientUnits="userSpaceOnUse" gradientTransform="translate(275.986 200.818) rotate(90) scale(4.09236 4.33933)">
<stop stop-color="white"/>
<stop offset="1" stop-color="#00ECFF"/>
</radialGradient>
<radialGradient id="paint4_radial_1098_12" cx="0" cy="0" r="1" gradientUnits="userSpaceOnUse" gradientTransform="translate(266.223 202.931) rotate(90) scale(5.41248 4.06812)">
<stop stop-color="white"/>
<stop offset="1" stop-color="#00ECFF"/>
</radialGradient>
<linearGradient id="paint5_linear_1098_12" x1="396.177" y1="222.029" x2="396.177" y2="329.224" gradientUnits="userSpaceOnUse">
<stop stop-color="#0056D6"/>
<stop offset="1" stop-color="#011F4D"/>
</linearGradient>
<linearGradient id="paint6_linear_1098_12" x1="462.792" y1="205.104" x2="462.792" y2="329.224" gradientUnits="userSpaceOnUse">
<stop stop-color="#0056D6"/>
<stop offset="1" stop-color="#011F4D"/>
</linearGradient>
</defs>
</svg>
