<svg width="816" height="553" viewBox="0 0 816 553" fill="none" xmlns="http://www.w3.org/2000/svg">
<rect width="816" height="553" rx="50" fill="white" fill-opacity="0.05"/>
<rect x="170" y="140" width="483.19" height="277.39" rx="15" fill="url(#paint0_linear_1098_9)"/>
<path d="M507.116 326.277C514.178 331.799 546.191 341.114 568.113 317.409C550.327 330.482 537.41 327.377 529.26 323.069C521.11 318.762 521.669 313.117 520.956 305.589C520.243 298.06 520.956 293.368 520.956 293.368C520.956 285.253 529.619 276.588 537.564 279.393V258.918L496.449 260.02C496.449 260.02 483.034 283.184 483.018 285.616C483.002 288.048 484.146 298.541 486.555 302.996C488.964 307.452 500.055 320.755 507.116 326.277Z" fill="url(#paint1_radial_1098_9)"/>
<path d="M576.924 304.655C604.622 229.817 487.136 208.63 483.018 285.946C483.018 285.946 487.909 275.984 497.999 282.659C508.09 289.334 499.492 275.984 499.492 273.658C499.492 271.332 495.744 261.393 512.672 277.248C529.6 293.103 505.979 256.415 517.1 267.337C528.22 278.26 522.763 267.337 531.242 267.337C539.721 267.337 536.751 291.559 543.048 291.559C549.344 291.559 550.575 277.097 553.447 291.559C556.319 306.021 560.243 303.594 560.72 301.672C561.196 299.75 568.081 282.154 567.188 300.711C566.295 319.269 575.18 308.166 576.924 304.655Z" fill="url(#paint2_radial_1098_9)"/>
<path d="M555.99 264.001C565.154 263.255 573.099 271.689 572.641 266.354C572.183 261.02 564.383 257.299 555.22 258.045C546.056 258.79 538.999 263.719 539.457 269.054C539.915 274.389 546.827 264.746 555.99 264.001Z" fill="white" fill-opacity="0.7"/>
<path d="M543.136 252.964C552.634 248.745 564.448 254.789 561.856 249.26C559.264 243.73 549.463 242.668 539.965 246.887C530.467 251.107 524.869 259.01 527.461 264.54C530.053 270.069 533.638 257.183 543.136 252.964Z" fill="white" fill-opacity="0.7"/>
<path d="M510.307 254.668C521.699 247.543 538.013 253.177 533.636 246.545C529.259 239.913 516.475 240.312 505.083 247.438C493.691 254.563 488.004 265.716 492.382 272.349C496.759 278.981 498.915 261.794 510.307 254.668Z" fill="white" fill-opacity="0.7"/>
<path d="M561.653 274.621C567.048 275.321 570.543 281.179 570.973 278.038C571.404 274.897 567.379 271.783 561.984 271.083C556.588 270.382 551.866 272.361 551.436 275.502C551.006 278.643 556.258 273.921 561.653 274.621Z" fill="white" fill-opacity="0.7"/>
<path d="M563.917 284.234C568.124 284.78 570.849 289.347 571.184 286.898C571.52 284.449 568.381 282.021 564.175 281.475C559.968 280.929 556.286 282.471 555.95 284.921C555.615 287.37 559.71 283.688 563.917 284.234Z" fill="white" fill-opacity="0.7"/>
<path d="M521.384 293.448C510.034 294.995 512.517 321.64 515.101 315.453C517.685 309.266 518.395 302.729 521.384 305.673C524.374 308.617 526.451 307.37 524.729 305.673C523.006 303.977 521.942 300.185 527.516 305.673C533.089 311.162 530.201 302.829 533.089 305.673C535.978 308.517 537.447 308.218 537.447 305.673C537.447 303.128 536.13 299.785 536.13 299.785C536.13 299.785 532.735 291.902 521.384 293.448Z" fill="url(#paint3_radial_1098_9)"/>
<path d="M486.517 303.011C489.536 312.647 503.143 325.85 506.893 326.086C510.643 326.322 509.327 306.777 504.845 314.049C500.364 321.321 492.466 308.302 497.473 308.305C502.48 308.308 504.231 301.662 501.978 303.86C499.726 306.057 495.391 305.31 493.685 301.662C491.979 298.014 496.872 298.577 499.214 299.464C497.166 293.92 483.499 293.374 486.517 303.011Z" fill="url(#paint4_radial_1098_9)"/>
<path d="M518.95 298.525C520.567 297.02 523.395 297.434 522.471 296.492C521.546 295.551 519.486 296.008 517.869 297.513C516.252 299.018 515.691 301.001 516.615 301.942C517.54 302.884 517.333 300.03 518.95 298.525Z" fill="white" fill-opacity="0.7"/>
<path d="M493.314 308.092C493.593 306.749 495.207 305.973 494.382 305.81C493.556 305.647 492.661 306.604 492.381 307.948C492.102 309.291 492.544 310.512 493.369 310.675C494.195 310.838 493.034 309.436 493.314 308.092Z" fill="white" fill-opacity="0.7"/>
<path d="M505.877 320.822C506.157 319.479 507.771 318.702 506.945 318.54C506.12 318.377 505.224 319.334 504.945 320.677C504.665 322.021 505.108 323.242 505.933 323.405C506.758 323.568 505.598 322.166 505.877 320.822Z" fill="white" fill-opacity="0.7"/>
<path d="M503.1 319.118C503.379 317.774 504.993 316.998 504.168 316.835C503.343 316.672 502.447 317.629 502.167 318.973C501.888 320.316 502.33 321.537 503.156 321.7C503.981 321.863 502.82 320.461 503.1 319.118Z" fill="white" fill-opacity="0.7"/>
<path d="M490.531 304.882C490.811 303.538 492.425 302.762 491.6 302.599C490.774 302.436 489.879 303.394 489.599 304.737C489.319 306.081 489.762 307.302 490.587 307.464C491.412 307.627 490.252 306.225 490.531 304.882Z" fill="white" fill-opacity="0.7"/>
<path d="M489.088 300.57C489.368 299.227 490.981 298.45 490.156 298.288C489.331 298.125 488.435 299.082 488.156 300.426C487.876 301.769 488.318 302.99 489.144 303.153C489.969 303.316 488.809 301.914 489.088 300.57Z" fill="white" fill-opacity="0.7"/>
<path d="M521.555 299.713C522.644 298.698 524.551 298.977 523.927 298.342C523.304 297.708 521.916 298.016 520.826 299.03C519.736 300.044 519.358 301.381 519.981 302.016C520.604 302.65 520.465 300.727 521.555 299.713Z" fill="white" fill-opacity="0.7"/>
<path d="M523.657 301.276C524.513 300.48 526.01 300.698 525.521 300.2C525.031 299.702 523.941 299.944 523.085 300.74C522.229 301.537 521.932 302.587 522.421 303.085C522.911 303.583 522.801 302.073 523.657 301.276Z" fill="white" fill-opacity="0.7"/>
<ellipse rx="4.34747" ry="4.35365" transform="matrix(1 0 0 -1 195.464 158.036)" fill="#FF5E5E"/>
<ellipse rx="4.34747" ry="4.35365" transform="matrix(1 0 0 -1 225.275 158.036)" fill="#A7FF50"/>
<ellipse rx="4.34747" ry="4.35365" transform="matrix(1 0 0 -1 211.612 158.036)" fill="#FFED50"/>
<rect x="637.043" y="189.756" width="16.1707" height="445.926" rx="8.08537" transform="rotate(90 637.043 189.756)" fill="url(#paint5_linear_1098_9)"/>
<rect x="207.53" y="229.561" width="173.873" height="10.8831" rx="5" fill="url(#paint6_linear_1098_9)"/>
<rect x="207.53" y="253.503" width="117.368" height="10.8831" rx="5" fill="url(#paint7_linear_1098_9)"/>
<rect x="207.53" y="277.447" width="117.368" height="10.8831" rx="5" fill="url(#paint8_linear_1098_9)"/>
<defs>
<linearGradient id="paint0_linear_1098_9" x1="170" y1="140" x2="652.874" y2="417.94" gradientUnits="userSpaceOnUse">
<stop stop-color="#01204D"/>
<stop offset="1" stop-color="#0066FF"/>
</linearGradient>
<radialGradient id="paint1_radial_1098_9" cx="0" cy="0" r="1" gradientUnits="userSpaceOnUse" gradientTransform="translate(522.438 280.858) rotate(86.555) scale(52.0396 59.9254)">
<stop stop-color="#2C0DFF"/>
<stop offset="1" stop-color="#0066FF"/>
</radialGradient>
<radialGradient id="paint2_radial_1098_9" cx="0" cy="0" r="1" gradientUnits="userSpaceOnUse" gradientTransform="translate(532.082 274.217) rotate(90) scale(36.9429 49.0643)">
<stop stop-color="white"/>
<stop offset="1" stop-color="#00ECFF"/>
</radialGradient>
<radialGradient id="paint3_radial_1098_9" cx="0" cy="0" r="1" gradientUnits="userSpaceOnUse" gradientTransform="translate(525.181 304.815) rotate(90) scale(11.568 12.2661)">
<stop stop-color="white"/>
<stop offset="1" stop-color="#00ECFF"/>
</radialGradient>
<radialGradient id="paint4_radial_1098_9" cx="0" cy="0" r="1" gradientUnits="userSpaceOnUse" gradientTransform="translate(497.583 310.788) rotate(90) scale(15.2996 11.4994)">
<stop stop-color="white"/>
<stop offset="1" stop-color="#00ECFF"/>
</radialGradient>
<linearGradient id="paint5_linear_1098_9" x1="605.712" y1="164.162" x2="640.236" y2="712.089" gradientUnits="userSpaceOnUse">
<stop stop-color="#048AE4"/>
<stop offset="1" stop-color="#048AE4" stop-opacity="0"/>
</linearGradient>
<linearGradient id="paint6_linear_1098_9" x1="207.53" y1="235.78" x2="381.404" y2="235.78" gradientUnits="userSpaceOnUse">
<stop stop-color="#0F70FF"/>
<stop offset="1" stop-color="#5AE1FF"/>
</linearGradient>
<linearGradient id="paint7_linear_1098_9" x1="207.53" y1="259.722" x2="324.898" y2="259.722" gradientUnits="userSpaceOnUse">
<stop stop-color="#0F70FF"/>
<stop offset="1" stop-color="#5AE1FF"/>
</linearGradient>
<linearGradient id="paint8_linear_1098_9" x1="207.53" y1="283.666" x2="324.898" y2="283.666" gradientUnits="userSpaceOnUse">
<stop stop-color="#0F70FF"/>
<stop offset="1" stop-color="#5AE1FF"/>
</linearGradient>
</defs>
</svg>
