<svg width="816" height="553" viewBox="0 0 816 553" fill="none" xmlns="http://www.w3.org/2000/svg">
<rect width="816" height="553" rx="50" fill="white" fill-opacity="0.05"/>
<rect x="172" y="134" width="483.194" height="277.389" rx="15" fill="url(#paint0_linear_1097_6)"/>
<rect x="205.541" y="181.104" width="247.362" height="197.836" rx="5" fill="url(#paint1_linear_1097_6)" fill-opacity="0.7"/>
<path d="M224.197 353.292L299.256 278.068L331.157 310.038L433.894 207.075" stroke="url(#paint2_linear_1097_6)" stroke-width="5"/>
<rect x="205.541" y="181.104" width="247.362" height="9.42075" rx="4.71038" fill="#E6E6E6"/>
<rect x="395.254" y="150.748" width="247.362" height="197.836" rx="5" fill="white"/>
<rect x="395.254" y="150.748" width="247.362" height="9.42075" rx="4.71038" fill="#E6E6E6"/>
<ellipse rx="2.62036" ry="2.61688" transform="matrix(1 0 0 -1 212.354 185.814)" fill="#FF5E5E"/>
<ellipse rx="2.62036" ry="2.61688" transform="matrix(1 0 0 -1 403.116 155.458)" fill="#FF5E5E"/>
<ellipse rx="2.62036" ry="2.61688" transform="matrix(1 0 0 -1 229.123 185.814)" fill="#A7FF50"/>
<ellipse rx="2.62036" ry="2.61688" transform="matrix(1 0 0 -1 419.886 155.458)" fill="#A7FF50"/>
<ellipse rx="2.62036" ry="2.61688" transform="matrix(1 0 0 -1 220.739 185.814)" fill="#FFED50"/>
<ellipse rx="2.62036" ry="2.61688" transform="matrix(1 0 0 -1 411.5 155.458)" fill="#FFED50"/>
<path d="M503.864 276.389C508.255 279.813 528.16 285.589 541.791 270.89C530.731 278.996 522.7 277.071 517.632 274.4C512.565 271.729 512.913 268.229 512.469 263.561C512.026 258.893 512.469 255.983 512.469 255.983C512.469 250.951 517.856 245.579 522.796 247.318V234.622L497.231 235.305C497.231 235.305 488.89 249.668 488.88 251.176C488.87 252.684 489.581 259.19 491.079 261.953C492.577 264.716 499.473 272.965 503.864 276.389Z" fill="url(#paint3_radial_1097_6)"/>
<path d="M547.269 262.982C564.491 216.577 491.441 203.439 488.88 251.381C488.88 251.381 491.921 245.204 498.195 249.342C504.469 253.481 499.124 245.204 499.124 243.761C499.124 242.319 496.793 236.156 507.318 245.987C517.844 255.819 503.157 233.069 510.071 239.842C516.986 246.615 513.593 239.842 518.865 239.842C524.137 239.842 522.29 254.861 526.205 254.861C530.12 254.861 530.886 245.893 532.672 254.861C534.457 263.828 536.897 262.323 537.193 261.132C537.49 259.94 541.77 249.029 541.215 260.536C540.66 272.043 546.185 265.159 547.269 262.982Z" fill="url(#paint4_radial_1097_6)"/>
<path d="M534.251 237.772C539.949 237.31 544.889 242.54 544.605 239.232C544.32 235.924 539.47 233.617 533.773 234.079C528.075 234.541 523.687 237.598 523.972 240.906C524.256 244.214 528.554 238.234 534.251 237.772Z" fill="white" fill-opacity="0.7"/>
<path d="M526.26 230.93C532.166 228.314 539.512 232.062 537.9 228.633C536.288 225.204 530.194 224.546 524.289 227.162C518.383 229.778 514.902 234.679 516.514 238.108C518.126 241.536 520.354 233.546 526.26 230.93Z" fill="white" fill-opacity="0.7"/>
<path d="M505.849 231.987C512.932 227.569 523.076 231.062 520.354 226.95C517.633 222.837 509.684 223.085 502.601 227.504C495.518 231.922 491.982 238.837 494.703 242.95C497.425 247.062 498.766 236.405 505.849 231.987Z" fill="white" fill-opacity="0.7"/>
<path d="M537.775 244.36C541.129 244.794 543.302 248.426 543.57 246.478C543.837 244.531 541.335 242.6 537.98 242.166C534.626 241.731 531.689 242.958 531.422 244.906C531.154 246.853 534.42 243.926 537.775 244.36Z" fill="white" fill-opacity="0.7"/>
<path d="M539.18 250.319C541.795 250.657 543.489 253.489 543.698 251.97C543.906 250.452 541.955 248.947 539.34 248.608C536.725 248.27 534.436 249.226 534.228 250.745C534.019 252.263 536.565 249.98 539.18 250.319Z" fill="white" fill-opacity="0.7"/>
<path d="M512.735 256.034C505.677 256.993 507.221 273.515 508.828 269.678C510.435 265.842 510.876 261.788 512.735 263.614C514.594 265.439 515.885 264.666 514.814 263.614C513.743 262.562 513.081 260.21 516.547 263.614C520.013 267.017 518.217 261.85 520.013 263.614C521.809 265.377 522.722 265.192 522.722 263.614C522.722 262.036 521.903 259.963 521.903 259.963C521.903 259.963 519.792 255.075 512.735 256.034Z" fill="url(#paint5_radial_1097_6)"/>
<path d="M491.057 261.962C492.934 267.937 501.394 276.124 503.726 276.27C506.057 276.416 505.239 264.297 502.452 268.806C499.666 273.315 494.755 265.243 497.869 265.245C500.982 265.246 502.07 261.126 500.67 262.488C499.269 263.851 496.574 263.387 495.513 261.126C494.452 258.864 497.495 259.212 498.951 259.763C497.678 256.325 489.18 255.987 491.057 261.962Z" fill="url(#paint6_radial_1097_6)"/>
<path d="M511.223 259.181C512.229 258.248 513.987 258.504 513.412 257.921C512.837 257.337 511.557 257.62 510.551 258.553C509.546 259.486 509.197 260.716 509.772 261.299C510.347 261.883 510.218 260.114 511.223 259.181Z" fill="white" fill-opacity="0.7"/>
<path d="M495.282 265.113C495.456 264.28 496.46 263.799 495.947 263.698C495.433 263.597 494.876 264.191 494.702 265.023C494.529 265.856 494.804 266.613 495.317 266.714C495.831 266.815 495.109 265.946 495.282 265.113Z" fill="white" fill-opacity="0.7"/>
<path d="M503.094 273.007C503.268 272.174 504.271 271.693 503.758 271.592C503.245 271.491 502.688 272.084 502.514 272.917C502.34 273.75 502.615 274.507 503.129 274.608C503.642 274.709 502.92 273.84 503.094 273.007Z" fill="white" fill-opacity="0.7"/>
<path d="M501.366 271.95C501.54 271.117 502.544 270.636 502.031 270.535C501.517 270.434 500.96 271.027 500.786 271.86C500.613 272.693 500.888 273.45 501.401 273.551C501.915 273.652 501.193 272.782 501.366 271.95Z" fill="white" fill-opacity="0.7"/>
<path d="M493.554 263.124C493.728 262.291 494.731 261.81 494.218 261.709C493.705 261.608 493.148 262.201 492.974 263.034C492.8 263.867 493.075 264.624 493.589 264.725C494.102 264.826 493.38 263.957 493.554 263.124Z" fill="white" fill-opacity="0.7"/>
<path d="M492.654 260.45C492.828 259.617 493.832 259.136 493.319 259.035C492.805 258.934 492.248 259.527 492.074 260.36C491.901 261.193 492.176 261.95 492.689 262.051C493.203 262.152 492.481 261.283 492.654 260.45Z" fill="white" fill-opacity="0.7"/>
<path d="M512.843 259.918C513.52 259.289 514.705 259.462 514.318 259.068C513.93 258.675 513.067 258.866 512.39 259.495C511.712 260.123 511.477 260.952 511.864 261.345C512.252 261.739 512.165 260.546 512.843 259.918Z" fill="white" fill-opacity="0.7"/>
<path d="M514.149 260.887C514.681 260.393 515.612 260.529 515.308 260.22C515.003 259.911 514.325 260.061 513.793 260.555C513.261 261.048 513.077 261.699 513.381 262.008C513.685 262.317 513.617 261.381 514.149 260.887Z" fill="white" fill-opacity="0.7"/>
<defs>
<linearGradient id="paint0_linear_1097_6" x1="172" y1="134" x2="654.874" y2="411.943" gradientUnits="userSpaceOnUse">
<stop stop-color="#01204D"/>
<stop offset="1" stop-color="#0066FF"/>
</linearGradient>
<linearGradient id="paint1_linear_1097_6" x1="272.622" y1="271.648" x2="513.003" y2="415.334" gradientUnits="userSpaceOnUse">
<stop stop-color="white"/>
<stop offset="1" stop-color="white" stop-opacity="0"/>
</linearGradient>
<linearGradient id="paint2_linear_1097_6" x1="433.425" y1="207.075" x2="223.896" y2="353.33" gradientUnits="userSpaceOnUse">
<stop stop-color="#005A9C"/>
<stop offset="1" stop-color="#0094FF"/>
</linearGradient>
<radialGradient id="paint3_radial_1097_6" cx="0" cy="0" r="1" gradientUnits="userSpaceOnUse" gradientTransform="translate(513.391 248.226) rotate(86.5455) scale(32.2685 37.26)">
<stop stop-color="#2C0DFF"/>
<stop offset="1" stop-color="#0066FF"/>
</radialGradient>
<radialGradient id="paint4_radial_1097_6" cx="0" cy="0" r="1" gradientUnits="userSpaceOnUse" gradientTransform="translate(519.387 244.108) rotate(90) scale(22.9072 30.5071)">
<stop stop-color="white"/>
<stop offset="1" stop-color="#00ECFF"/>
</radialGradient>
<radialGradient id="paint5_radial_1097_6" cx="0" cy="0" r="1" gradientUnits="userSpaceOnUse" gradientTransform="translate(515.096 263.082) rotate(90) scale(7.17296 7.62678)">
<stop stop-color="white"/>
<stop offset="1" stop-color="#00ECFF"/>
</radialGradient>
<radialGradient id="paint6_radial_1097_6" cx="0" cy="0" r="1" gradientUnits="userSpaceOnUse" gradientTransform="translate(497.937 266.784) rotate(90) scale(9.48682 7.15011)">
<stop stop-color="white"/>
<stop offset="1" stop-color="#00ECFF"/>
</radialGradient>
</defs>
</svg>
