<svg width="28" height="36" viewBox="0 0 28 36" fill="none" xmlns="http://www.w3.org/2000/svg">
<path d="M16.6514 33.1372H10.9424C10.9424 33.1372 10.9424 35.2828 13.7969 35.2828C16.6514 35.2828 16.6514 33.1372 16.6514 33.1372Z" fill="#414451"/>
<path d="M9.51473 27.4156H13.7965H18.0783C18.0783 27.4156 18.0783 25.2709 19.5056 23.8405C20.9329 22.4101 23.7874 20.9788 23.7874 13.8268C23.7874 6.67477 19.5056 3.81396 13.7965 3.81396C8.08747 3.81396 3.80566 6.67477 3.80566 13.8268C3.80566 20.9788 5.94453 21.6945 7.3718 23.1249C8.79907 24.5553 9.51473 27.4156 9.51473 27.4156Z" fill="#FFB82A"/>
<path d="M10.594 8.30759C12.3272 7.22353 14.8092 8.08069 14.1432 7.07169C13.4773 6.06268 11.5324 6.12351 9.79929 7.20756C8.06613 8.29161 7.20099 9.98837 7.86693 10.9974C8.53287 12.0064 8.86086 9.39164 10.594 8.30759Z" fill="white"/>
<path d="M9.51465 32.4221V28.1309H18.0782V32.4221L16.651 33.1373H10.9419L9.51465 32.4221Z" fill="#575B6D"/>
<line x1="9.51465" y1="30.4922" x2="18.0782" y2="30.4922" stroke="#414451"/>
<rect x="13.3213" width="0.951511" height="2.86081" rx="0.475756" fill="#FFB82A"/>
<rect width="0.952034" height="2.85924" rx="0.476017" transform="matrix(0.86555 0.500823 -0.499177 0.8665 20.1602 0.981445)" fill="#FFB82A"/>
<rect width="0.952034" height="2.85924" rx="0.476017" transform="matrix(0.86555 -0.500823 0.499177 0.8665 6.66113 1.45801)" fill="#FFB82A"/>
<rect width="0.95308" height="2.8561" rx="0.47654" transform="matrix(0.499177 -0.8665 0.86555 0.500823 1.77441 5.81396)" fill="#FFB82A"/>
<rect width="0.95308" height="2.8561" rx="0.47654" transform="matrix(0.499177 0.8665 -0.86555 0.500823 25.3086 4.98828)" fill="#FFB82A"/>
<rect x="27.6396" y="12.3145" width="0.953602" height="2.85453" rx="0.476801" transform="rotate(90 27.6396 12.3145)" fill="#FFB82A"/>
<rect width="0.95308" height="2.8561" rx="0.47654" transform="matrix(-0.499177 0.8665 -0.86555 -0.500823 26.7354 18.8975)" fill="#FFB82A"/>
<rect x="2.85449" y="12.397" width="0.953602" height="2.85453" rx="0.476801" transform="rotate(90 2.85449 12.397)" fill="#FFB82A"/>
<rect width="0.95308" height="2.8561" rx="0.47654" transform="matrix(-0.499177 -0.8665 0.86555 -0.500823 1.38086 19.8052)" fill="#FFB82A"/>
</svg>
