<svg width="27" height="27" viewBox="0 0 27 27" fill="none" xmlns="http://www.w3.org/2000/svg">
<path d="M0.375561 11.1915L5.39442 13.3426C6.0545 11.6582 6.73734 10.2241 7.44294 9.04048C8.14854 7.85684 9.11589 6.53662 10.345 5.07983L8.56962 4.70425C8.1144 4.6132 7.67055 4.63596 7.23809 4.77254C6.80562 4.90911 6.43006 5.13673 6.1114 5.45541L0.375561 11.1915ZM7.37465 14.2986L12.7008 19.6591C14.3396 19.1356 15.8988 18.4131 17.3782 17.4917C18.8577 16.5694 20.2234 15.4822 21.4753 14.2303C23.4783 12.2272 24.9691 9.9396 25.9479 7.36745C26.9266 4.7953 27.2225 2.39387 26.8356 0.163153C24.6049 -0.223808 22.2036 0.0775663 19.6316 1.06727C17.0596 2.05789 14.7721 3.55475 12.7691 5.55784C11.4944 6.83253 10.4074 8.19827 9.50784 9.65507C8.60923 11.1119 7.89816 12.6597 7.37465 14.2986ZM16.7978 10.2014C16.2743 9.67783 16.0126 9.03456 16.0126 8.27157C16.0126 7.50948 16.2743 6.86667 16.7978 6.34314C17.3213 5.81961 17.9646 5.55784 18.7275 5.55784C19.4896 5.55784 20.1324 5.81961 20.6559 6.34314C21.1794 6.86667 21.4411 7.50948 21.4411 8.27157C21.4411 9.03456 21.1794 9.67783 20.6559 10.2014C20.1324 10.7249 19.4896 10.9867 18.7275 10.9867C17.9646 10.9867 17.3213 10.7249 16.7978 10.2014ZM15.8419 26.6244L21.5436 20.9224C21.8622 20.6038 22.0898 20.2227 22.2264 19.7793C22.363 19.335 22.3857 18.8852 22.2947 18.43L21.9533 16.6545C20.4965 17.8837 19.1709 18.8511 17.9764 19.5567C16.781 20.2623 15.3411 20.9452 13.6568 21.6053L15.8419 26.6244ZM2.56064 18.669C3.35729 17.8723 4.32464 17.468 5.46271 17.4562C6.60077 17.4453 7.56813 17.8381 8.36477 18.6348C9.16142 19.4315 9.55974 20.3989 9.55974 21.537C9.55974 22.6751 9.16142 23.6425 8.36477 24.4392C7.79574 25.0083 6.84568 25.4977 5.5146 25.9074C4.18261 26.3171 2.34441 26.6813 0 27C0.318658 24.6555 0.682838 22.8231 1.09254 21.5029C1.50224 20.1827 1.99161 19.238 2.56064 18.669Z" fill="url(#paint0_linear_1007_76)"/>
<defs>
<linearGradient id="paint0_linear_1007_76" x1="13.5" y1="0" x2="13.5" y2="27" gradientUnits="userSpaceOnUse">
<stop stop-color="white"/>
<stop offset="1" stop-color="#5CFFD8"/>
</linearGradient>
</defs>
</svg>
