<svg width="49" height="49" viewBox="0 0 49 49" fill="none" xmlns="http://www.w3.org/2000/svg">
<path d="M21.4686 13.9847C22.1426 10.8172 26.6632 10.8172 27.3372 13.9847L27.8572 16.4284C28.1766 17.9298 29.5778 18.9478 31.1044 18.7877L33.5892 18.5271C36.81 18.1893 38.207 22.4886 35.4027 24.1085L33.2393 25.3581C31.9101 26.1259 31.3749 27.7731 31.9989 29.1755L33.0147 31.4582C34.3312 34.4169 30.6739 37.0741 28.2669 34.9077L26.4098 33.2363C25.2689 32.2094 23.5369 32.2094 22.396 33.2363L20.5389 34.9077C18.1318 37.0741 14.4745 34.4169 15.7911 31.4582L16.8068 29.1755C17.4308 27.7731 16.8956 26.1259 15.5665 25.3581L13.403 24.1085C10.5988 22.4886 11.9958 18.1893 15.2165 18.5271L17.7013 18.7877C19.2279 18.9478 20.6291 17.9298 20.9486 16.4284L21.4686 13.9847Z" fill="#FFB82A"/>
<path d="M22.2652 19.1678C22.7562 16.8604 26.0493 16.8604 26.5403 19.1678C26.773 20.2615 27.7937 21.0031 28.9058 20.8864C31.2519 20.6403 32.2696 23.7723 30.2268 24.9522C29.2586 25.5115 28.8687 26.7115 29.3233 27.733C30.2823 29.8884 27.6181 31.824 25.8647 30.2459C25.0336 29.4978 23.7719 29.4978 22.9408 30.2459C21.1873 31.824 18.5231 29.8884 19.4822 27.733C19.9368 26.7115 19.5469 25.5115 18.5786 24.9522C16.5359 23.7723 17.5535 20.6403 19.8997 20.8864C21.0118 21.0031 22.0325 20.2615 22.2652 19.1678Z" fill="#FFC85B"/>
<circle cx="24.1057" cy="12.7214" r="0.892788" fill="#E89B01"/>
<circle cx="24.7004" cy="15.1023" r="0.892788" fill="#E89B01"/>
<circle cx="18.6656" cy="32.5495" r="0.892788" transform="rotate(70.8847 18.6656 32.5495)" fill="#E89B01"/>
<circle cx="16.6109" cy="33.8918" r="0.892788" transform="rotate(70.8847 16.6109 33.8918)" fill="#E89B01"/>
<circle cx="13.2283" cy="20.7892" r="0.892788" transform="rotate(-50.5629 13.2283 20.7892)" fill="#E89B01"/>
<circle cx="15.1082" cy="21.8757" r="0.892788" transform="rotate(-50.5629 15.1082 21.8757)" fill="#E89B01"/>
<circle cx="29.7959" cy="32.5916" r="0.892788" transform="rotate(-28.4013 29.7959 32.5916)" fill="#E89B01"/>
<circle cx="31.4522" cy="34.4027" r="0.892788" transform="rotate(-28.4013 31.4522 34.4027)" fill="#E89B01"/>
<circle cx="35.8928" cy="20.4327" r="0.892788" transform="rotate(90.4732 35.8928 20.4327)" fill="#E89B01"/>
<circle cx="33.9055" cy="20.716" r="0.892788" transform="rotate(90.4732 33.9055 20.716)" fill="#E89B01"/>
</svg>
